<?xml version="1.0" encoding="UTF-8" standalone="no"?>
<svg
   id="svg2"
   viewBox="0 0 411.01521 411"
   width="2500"
   height="2500"
   version="1.1"
   sodipodi:docname="338.svg"
   inkscape:version="1.4 (86a8ad7, 2024-10-11)"
   xmlns:inkscape="http://www.inkscape.org/namespaces/inkscape"
   xmlns:sodipodi="http://sodipodi.sourceforge.net/DTD/sodipodi-0.dtd"
   xmlns="http://www.w3.org/2000/svg"
   xmlns:svg="http://www.w3.org/2000/svg">
  <defs
     id="defs1" />
  <sodipodi:namedview
     id="namedview1"
     pagecolor="#505050"
     bordercolor="#eeeeee"
     borderopacity="1"
     inkscape:showpageshadow="0"
     inkscape:pageopacity="0"
     inkscape:pagecheckerboard="0"
     inkscape:deskcolor="#505050"
     inkscape:zoom="0.21863742"
     inkscape:cx="1872.964"
     inkscape:cy="885.02692"
     inkscape:window-width="1920"
     inkscape:window-height="991"
     inkscape:window-x="-9"
     inkscape:window-y="-9"
     inkscape:window-maximized="1"
     inkscape:current-layer="svg2" />
  <style
     id="style1">.st0{fill:#fff;stroke:#0053a0;stroke-width:21.127}.st1{fill:#0053a0}.st2{fill:#fdbe11}</style>
  <path
     id="ellipse-big"
     class="st0"
     d="m 391.31343,205.50417 c 0,104.15957 -83.38014,188.63162 -186.1933,188.63162 -102.81309,0 -186.193204,-84.47205 -186.193204,-188.63162 0,-104.15958 83.380114,-188.631666 186.193204,-188.631666 102.81316,0 186.1933,84.472086 186.1933,188.631666 z" />
  <path
     id="ellipse-small"
     class="st1"
     d="M 32.999116,207.73478 C 31.754635,111.43081 107.85932,32.292776 202.91836,31.128982 297.97746,29.868206 376.09248,107.06658 377.24123,203.37055 378.48572,299.6745 302.28528,378.8125 207.22618,379.97629 112.26283,381.14009 34.147866,304.03873 32.999116,207.73478 Z M 202.91836,28.898377 C 106.71057,30.159154 29.648593,110.17003 30.797343,207.73478 32.041824,305.20252 111.01836,383.27371 207.3219,382.10992 303.52975,380.84914 380.59176,300.8383 379.44301,203.27356 378.19853,105.70882 299.12621,27.6376 202.91836,28.898377 Z"
     style="stroke-width:0.96354" />
  <path
     id="kinda-ellipse"
     class="st1"
     d="m 198.802,89.609635 c -21.15615,-0.09698 -45.66283,8.437551 -62.22397,22.306085 -0.0957,0 -0.0957,0.19397 0.0958,0.29095 9.4772,3.78234 15.89105,8.82544 26.03834,14.54744 0.38293,0.19395 0.47865,0.097 0.57438,-0.19397 4.88219,-25.11856 35.13262,-18.13579 38.00449,-36.465591 -0.0957,-0.09698 -0.0957,-0.387931 -0.38291,-0.387931 -0.76584,-0.09698 -1.43594,-0.09698 -2.10605,-0.09698 z m 12.54053,0 c -0.19146,0 -0.28719,0.09698 -0.28719,0.387931 -1.24447,3.200453 2.48896,6.594872 4.59501,8.728494 0.19146,0.193968 0.57437,0.387936 0.86156,0.581894 13.49781,5.528026 28.43157,9.698286 31.68637,25.409506 0.0957,0.29095 0.0957,0.38793 0.38291,0.19396 7.17969,-4.84913 14.35938,-9.69828 21.6348,-14.35345 0.38292,-0.19397 0.19146,-0.29095 0,-0.48492 -16.3697,-11.928885 -36.95147,-19.590573 -58.87346,-20.463415 z m -84.2417,30.161705 c -13.21061,11.8319 -24.5066,27.34915 -30.346067,44.70908 -0.09573,0.19397 0,0.29096 0.287188,0.29096 12.923389,1.16379 17.135449,-15.80821 26.995549,-22.20907 0.0958,-0.097 0.28719,-0.19397 0.28719,-0.29095 -0.76584,-7.75863 -1.05303,-14.25649 2.77614,-22.50002 z m 159.0062,3.78233 c 0.76584,6.01293 0.19147,11.73493 -1.43593,17.26294 -0.0957,0.29095 -0.0957,0.48492 0.19146,0.67889 9.47718,5.14008 14.64656,20.26941 25.65543,20.8513 0.0957,0.097 0.38291,0.097 0.28719,-0.097 -3.63772,-13.48061 -14.64658,-29.3858 -24.69815,-38.69616 z m 28.33585,47.52159 c -13.49781,13.67458 8.42417,36.7565 -21.34761,49.55823 -2.58469,0.77586 -5.16938,1.74569 -7.56261,1.74569 -6.60531,0 -15.98677,-5.0431 -15.98677,5.14009 0,0.19397 0.19146,0.29095 0.38291,0.38794 9.19001,3.97629 21.6348,12.60776 21.82626,25.89441 0.47865,15.90519 -16.08251,26.5733 -13.40209,41.60564 35.32408,-30.93753 49.77919,-76.51946 36.08991,-124.332 z m -220.272805,2.23061 c -0.09573,0 -0.191458,0.19396 -0.287188,0.38793 -13.306358,36.95046 -0.191458,94.3643 40.684833,124.71993 0,-0.77587 0.47864,-2.42457 0.95728,-3.49138 0.19147,-0.38794 0.19147,-0.96983 0,-1.45475 -1.53167,-6.69181 -5.45656,-13.38363 -9.19,-19.97846 -12.92342,-21.72416 -5.74376,-36.56254 15.12522,-46.26082 0.28719,-0.097 0.28719,-0.19396 0.19145,-0.48491 -0.28719,-0.67889 -0.6701,-1.45475 -0.95729,-2.13362 -0.0958,-0.19397 0,-0.5819 -0.47865,-0.48492 -4.69073,0.5819 -9.95583,0.96983 -14.74229,0.77587 -7.17969,-1.64871 -13.97644,-4.46121 -19.14578,-12.21984 -9.18998,-12.99571 3.44622,-30.54959 -11.774668,-39.18107 -0.191458,-0.19396 -0.287188,-0.19396 -0.382917,-0.19396 z m 192.989985,53.43754 c 0.38292,0 0.67011,0.097 1.05302,0.19397 4.595,0.87284 11.58323,3.58836 15.79532,8.82543 0.28719,0.29095 0.19146,0.5819 -0.28719,0.5819 -6.70105,-0.19397 -14.16792,-0.96983 -19.3373,-5.14009 -0.76583,-0.5819 -1.43593,-1.16379 -0.86156,-2.61854 0.38291,-0.87284 1.6274,-1.55172 2.58468,-1.74569 0.38293,-0.097 0.67011,-0.097 1.05303,-0.097 z m -165.03714,2.71552 h 1.14874 c 0.28719,0 0.67011,0 0.86157,0.29095 1.24448,1.55173 1.05302,3.68535 -1.34021,5.43104 -5.07365,3.29741 -10.9131,3.49138 -16.36964,3.68534 -0.19145,0 -0.57437,-0.19396 -0.19145,-0.58189 4.88215,-4.5582 10.24296,-8.72846 15.89099,-8.82544 z m 91.51712,62.26298 c -0.0958,0 -0.19146,0 -0.19146,0.097 -4.11636,2.03664 -10.62595,3.00646 -14.35939,0.87284 -0.47864,-0.19397 -0.6701,-0.097 -0.86156,0.19397 -6.60531,11.25 -22.20917,11.05603 -33.31376,8.14655 -8.23272,-1.84267 -16.36969,-4.26724 -22.97501,2.42458 34.7497,25.4095 88.26232,26.18536 128.46859,-1.74569 -7.56261,-3.58837 -14.45511,-1.06681 -22.78355,0.96983 -9.47719,2.2306 -22.68782,4.26724 -33.40949,-10.66812 -0.19146,-0.097 -0.38292,-0.29095 -0.57437,-0.29095 z m -6.98824,2.52156 h 0.28719 c 1.24448,0.097 1.91458,0.77586 2.58468,1.6487 0.38293,0.48492 0.47865,1.06682 0.38293,1.64871 -0.19147,5.23708 -1.05303,10.47415 -2.77615,15.03234 0,0.19397 -0.19146,0.29095 -0.28719,0 -2.01032,-6.40087 -5.45656,-12.89872 -1.14876,-18.03881 0.47865,-0.19397 0.67011,-0.29094 0.9573,-0.29094 z"
     style="stroke-width:0.96354" />
  <path
     id="leicester"
     class="st1"
     d="m 217.85212,40.924249 c 1.05302,1.35776 2.10604,2.909486 1.72312,4.558193 -1.34021,7.564662 -2.77614,15.129323 -4.30782,22.693986 -0.28718,1.648707 -1.43593,2.42457 -2.68041,3.588364 8.23272,1.551725 23.45365,4.461211 31.68636,6.012937 -0.19145,-3.297418 2.29751,-5.237074 3.2548,-8.146559 -2.77615,1.939657 -6.22239,2.618536 -9.47719,1.939657 -3.35052,-0.67888 -11.67896,-2.327588 -15.12522,-3.006468 0.57439,-2.618538 0.86157,-5.334057 1.53167,-7.952594 3.2548,0.581898 8.5199,1.842674 11.77469,2.230606 2.77615,0.67888 4.88219,-3.200433 6.41387,-5.14009 -1.05303,0.290948 -3.06335,0.387931 -4.11637,0.09698 -3.44625,-0.67888 -9.57291,-2.036639 -13.01917,-2.71552 0.28719,-2.521553 0.86157,-5.043108 1.34021,-7.467678 5.83948,1.551726 18.18855,2.133622 22.49636,7.17673 0.19147,-2.71552 -1.43593,-6.206902 0.19147,-8.049576 -8.13699,-1.551725 -23.64512,-4.267245 -31.68637,-5.81897 z m -3.9249,0.193966 c -7.84979,0 -22.78355,0.872845 -30.63334,0.969828 1.6274,2.812503 -0.86157,5.237074 -0.86157,8.049576 2.68042,-2.424571 9.28573,-3.200433 12.73199,-3.103451 0,7.661644 0.76583,15.323289 0.86156,22.984933 0,1.454743 -1.05302,2.327588 -2.01031,2.909485 3.44624,0 8.80708,-0.484914 11.96615,-0.484914 -1.53167,-1.454743 -2.39323,-1.551725 -2.39323,-3.588365 -0.57438,-7.079747 -0.86156,-15.226306 -1.05302,-22.209071 3.54198,-0.290948 9.95583,0.387932 12.82771,2.133623 0.0958,-3.200434 -2.87188,-6.303885 -1.43594,-7.661644 z m -34.27106,2.036639 c -4.97791,1.066812 -16.17823,1.939657 -20.48605,5.237074 -5.16936,3.588364 -6.31812,11.637941 0.38293,15.226305 4.21208,1.745692 12.1576,-0.193965 16.36969,0.193966 2.87187,0.09698 4.02062,4.170262 2.20177,6.109919 -4.02063,3.685348 -15.12522,3.685348 -19.91167,2.133622 1.14874,2.812503 2.48895,5.237074 3.73344,7.952594 1.6274,-1.066811 4.49927,-1.260777 6.41385,-1.648709 3.92489,-0.581896 13.30636,-3.103451 15.89105,-6.400867 3.15907,-3.78233 3.25479,-9.21337 0.19146,-12.60777 -2.77615,-3.103451 -11.29604,-2.521553 -14.93376,-2.230605 -2.10604,0 -3.73343,0.775863 -5.74375,-0.193965 -1.6274,-1.163794 -1.53166,-4.07328 0.28718,-5.043108 3.63772,-1.939657 11.7747,-2.230605 15.50814,-0.67888 -0.0957,-2.812502 0.19146,-5.431039 0.0958,-8.049576 z m 80.50827,6.788799 c 0.6701,1.648708 1.05301,3.297417 0.28719,4.849142 -2.96761,6.49785 -6.31813,12.898718 -9.4772,19.396568 -0.86156,1.939657 -2.01031,3.103451 -4.11635,3.879314 2.77614,1.454742 7.56261,3.879314 10.33875,5.334056 -1.14875,-4.364228 1.72312,-8.243542 3.44625,-11.831906 1.62739,0.872845 5.93521,2.909484 6.98823,4.655176 1.43594,2.42457 1.72313,4.946125 2.10605,7.467678 0.0958,2.230606 0.28719,3.976297 -2.01032,4.75216 3.25479,1.35776 8.32845,4.073289 11.39178,5.528045 -2.39323,-5.043131 -0.9573,-11.83193 -4.11636,-16.778055 2.10605,0.09698 5.55229,0.484915 7.84979,-0.969828 4.02063,-2.424571 4.97793,-6.109919 3.63772,-11.153026 -0.76584,-2.618538 -3.2548,-4.07328 -5.45657,-5.140091 -5.16938,-2.327588 -15.69959,-7.467679 -20.86896,-9.989233 z m -117.26828,3.3944 c -7.17968,4.073278 -20.9647,11.056043 -28.04865,15.226306 1.81885,0.484913 3.15906,1.163794 4.02062,2.812502 3.54198,6.400868 7.08396,12.898718 10.62595,19.299586 0.95728,1.551735 0.6701,3.491407 -0.0958,5.334092 7.37115,-4.170287 21.15615,-11.444012 28.5273,-15.517291 -2.29751,-1.35776 -0.86156,-5.721988 -1.72312,-8.631473 -0.76584,2.521553 -3.35053,4.849142 -5.45657,6.400867 -3.44625,2.327588 -11.4875,6.497851 -15.02948,8.53449 -1.34021,-2.327588 -2.5847,-4.752158 -3.82917,-7.079747 2.77614,-1.745691 9.18999,-4.655176 11.96614,-6.497851 1.6274,-2.036639 0.67011,-4.946124 1.05302,-7.370695 -0.6701,0.872845 -1.62739,1.648708 -2.58468,2.133622 -2.96761,1.648709 -9.57292,5.334056 -12.63625,7.079748 -1.14876,-2.230606 -2.48896,-4.267245 -3.54198,-6.594833 5.55229,-2.521555 15.50812,-9.407336 21.82626,-9.019405 -1.72314,-2.327588 -4.2121,-3.394399 -5.07366,-6.109918 z m 123.77786,5.81897 c 2.77615,1.357759 6.79677,3.200434 9.28573,4.558193 6.60531,3.491383 1.91458,10.765095 -2.87187,8.049576 -2.77615,-0.969828 -7.46688,-3.685348 -10.1473,-4.752159 1.14875,-2.715519 2.58469,-5.14009 3.73344,-7.85561 z M 108.33796,73.4135 c -0.76583,1.066811 -1.72312,2.133622 -2.96759,2.71552 -3.92488,1.842674 -11.008836,8.340524 -12.731962,12.413804 -2.393231,4.655195 -2.297501,8.922458 0.478646,14.353496 3.159064,6.40087 7.658336,9.40734 14.550806,9.40734 6.79673,-0.38794 13.01912,-6.49785 15.79527,-10.28018 1.53167,-1.84267 3.06333,-3.782336 5.36084,-4.849146 -1.91459,-2.133632 -3.92491,-4.170285 -5.83949,-6.303917 -0.6701,2.61855 -1.91459,4.752184 -3.54198,6.982801 -2.48896,2.812502 -6.31811,7.273712 -10.62591,7.079742 -4.30778,-0.19397 -5.74371,-2.32759 -7.65829,-4.46121 -1.914577,-2.133617 -3.254786,-4.655181 -2.967598,-8.534517 0.382917,-3.879324 7.849768,-10.959071 13.306298,-11.153037 -1.24447,-2.230605 -1.91457,-4.946124 -3.15904,-7.370696 z M 81.916737,99.307954 c -2.010313,2.618546 -5.456565,7.079756 -7.562607,9.601306 1.914584,-0.29095 3.733439,-0.097 5.169377,1.06681 5.743752,4.46121 11.391775,9.01941 17.039798,13.5776 1.435938,1.06681 2.106042,2.8125 2.297501,4.65517 2.106034,-2.52155 5.456554,-6.98276 7.466854,-9.40733 -1.72312,0.19397 -3.44624,0.29095 -4.88217,-0.77586 L 84.214238,104.35107 C 82.7783,103.09029 81.916737,101.44158 81.916737,99.307954 Z M 68.418919,116.66789 c -3.637708,7.46767 -11.104586,21.53019 -14.646567,28.99787 2.010314,-0.77586 3.446251,-0.67889 5.265107,0.29095 6.413856,3.29741 12.827712,6.40087 19.337297,9.6013 1.531668,0.77586 2.967606,2.42456 3.541981,4.07328 3.54198,-7.66165 10.147296,-21.14226 14.263651,-28.70692 -0.861562,0 -1.723126,-0.67889 -2.297501,-1.35777 -1.723125,-1.64871 -2.584688,-3.49138 -4.307813,-5.14008 0.478645,3.00646 0,6.6918 -1.244481,9.6013 -1.531667,3.29741 -5.552293,11.25 -7.083961,14.54742 -2.488959,-0.87284 -4.499272,-2.32759 -6.892502,-3.3944 1.24448,-2.90948 4.78646,-9.6013 6.03094,-12.51079 0,-1.74568 -2.010314,-4.55819 -3.446251,-6.69181 -0.09573,1.06681 -0.574375,2.2306 -1.053022,3.20043 -1.531667,3.20043 -5.073647,10.28019 -6.605314,13.38364 -2.201771,-1.1638 -5.073648,-2.23061 -7.27542,-3.29742 1.531668,-3.20043 5.456564,-11.15303 7.083961,-14.35347 1.244479,-2.52154 3.254793,-4.55818 5.743752,-5.81896 -2.488959,-0.87284 -4.212084,-0.5819 -6.413857,-2.42457 z m 4.690732,41.7996 c 1.053021,1.64871 1.244479,4.5582 1.340209,6.59484 0.287187,3.78232 -1.914584,11.05603 -2.48896,14.74139 -6.892502,-1.35777 -13.880733,-3.10345 -20.773236,-4.65518 -1.914584,-0.38793 -2.680418,-1.93966 -3.829168,-3.58836 -0.765834,3.20043 -2.010314,9.11638 -2.584689,12.31681 1.435938,-1.06681 2.39323,-1.84267 4.020626,-1.45474 7.371149,1.55173 14.742298,3.20043 22.113446,4.94613 1.723125,0.38792 3.350522,1.6487 4.307814,3.29742 1.531667,-7.27372 4.499272,-20.46338 6.030939,-27.7371 -0.765833,0.097 -1.531667,0.19396 -2.201771,-0.19396 -2.297501,-1.26078 -3.829168,-3.10345 -5.93521,-4.26725 z"
     style="stroke-width:0.96354" />
  <path
     id="football"
     class="st1"
     d="m 73.109651,220.53651 c -1.053022,1.55172 -2.488959,2.71552 -4.307815,3.10345 -6.796773,1.93966 -13.976462,3.3944 -21.730528,5.33406 -1.531667,0.58189 -2.488959,-0.097 -3.924897,-1.26078 0.670104,3.20043 1.723126,8.34052 2.488959,11.54095 2.776147,-3.87931 7.849795,-3.78232 11.870421,-5.14008 0.957292,3.29741 2.106043,10.18319 3.159063,13.38362 1.723126,1.7457 4.499274,2.03664 6.701045,2.81251 -0.574376,-0.87284 -1.627396,-2.71552 -1.818855,-3.78233 -0.765833,-3.49138 -2.297501,-10.08621 -3.063334,-13.5776 2.584688,-0.58189 5.169376,-1.35776 7.754065,-1.74569 1.435937,5.52802 4.69073,15.71122 2.106042,20.94829 2.680418,-0.87284 4.78646,-3.78232 7.17969,-3.20043 -1.435938,-7.27371 -4.977919,-20.94829 -6.413856,-28.41597 z m 0.382917,33.65304 c -0.861564,0 -1.723126,0.097 -2.584689,0.19397 -5.839481,1.26078 -11.296045,4.17026 -13.785004,10.37716 -3.254793,8.63147 3.159063,21.91813 11.87042,25.21555 5.552293,2.03663 11.104587,0.4849 15.316672,-2.61855 3.829168,-2.71551 6.509586,-7.17672 6.413857,-13.18967 -0.287188,-6.78879 -4.020626,-13.48061 -9.381462,-17.26293 -2.680417,-1.93967 -5.265106,-2.71553 -7.849794,-2.71553 z m -0.191459,7.56466 c 3.254793,0 6.509586,0.77586 8.711357,4.17027 2.776147,3.49138 3.63771,8.34052 1.627397,11.34698 -2.776147,3.68536 -7.275419,5.91596 -11.966151,5.722 -5.169376,-0.19397 -10.338753,-6.88578 -8.807085,-13.28665 1.435937,-5.23708 7.275418,-7.75863 10.434482,-7.9526 z m 20.198861,25.11856 c -1.244479,0 -2.488959,0.29095 -3.733438,0.77587 -5.839482,2.2306 -10.147295,6.01293 -11.870421,12.51078 -2.393231,8.92242 7.275419,20.75433 16.369693,22.40303 5.839486,0.96983 11.008836,-1.16379 14.550786,-4.94612 3.35051,-3.29741 5.45654,-8.24355 4.3078,-14.15949 -1.43593,-6.59484 -6.70101,-12.31683 -12.73192,-15.12933 -2.488956,-0.96983 -4.786457,-1.55172 -6.8925,-1.45474 z m 2.967606,7.27372 c 2.584688,0 4.882184,1.06681 6.605304,2.90948 3.15905,3.00647 4.6907,6.69182 3.25478,10.57113 -2.0103,4.55819 -5.83946,7.56466 -10.530189,8.14655 -5.073647,0.67889 -11.678962,-6.10991 -11.008858,-11.73492 0.861563,-5.14009 4.116356,-7.27371 6.892503,-8.72845 1.627396,-0.77587 3.254793,-1.16379 4.78646,-1.16379 z m 22.687734,13.38362 c -0.0958,2.90949 -3.06333,2.03664 -5.36082,5.81898 3.54197,-0.38794 9.47717,2.8125 12.25332,4.94612 -4.11636,6.30388 -8.42416,12.51078 -12.54051,18.81467 -0.76582,1.35776 -2.10603,1.45474 -3.54196,1.55173 2.58468,1.84267 7.37112,5.0431 9.95581,6.88577 -0.47865,-2.13362 -0.28719,-3.87931 0.76583,-5.52801 3.63771,-5.52802 7.37115,-11.05605 11.10458,-16.58407 0.19146,-0.19397 0.38293,-0.77586 0.76584,-0.58189 3.06333,1.6487 7.75407,5.81896 8.80708,9.11638 1.24449,-2.42458 1.05303,-6.40087 3.35053,-7.3707 -6.50959,-4.55819 -19.14584,-12.70475 -25.5597,-17.06898 z m 27.09136,18.32976 c 0.9573,1.74569 0.67011,3.68534 0.19146,5.52803 -2.10604,7.07974 -4.78646,13.48061 -6.8925,20.56035 -0.47864,1.7457 -1.53167,2.71553 -3.63771,3.20043 6.60532,2.13364 14.35938,4.94614 21.34761,7.17674 7.27542,2.42458 13.78501,0.58189 14.64657,-7.17674 0.47865,-4.4612 -4.21208,-6.49784 -6.03094,-7.46766 4.78646,0.58189 8.04125,-2.03665 8.32844,-6.59484 0.38292,-3.29742 -2.48896,-6.7888 -9.19,-9.01941 -4.78646,-1.55172 -13.97646,-4.84914 -18.76293,-6.2069 z m 100.70712,5.52803 c -3.06333,0.77586 -8.23271,3.00646 -11.29604,4.07327 1.72312,0.77586 2.87187,1.26078 3.44625,3.00647 2.20178,6.69182 4.78646,12.89872 6.98823,19.49355 0.57437,2.13363 1.34021,4.46122 0.28719,6.49785 6.98823,-2.13362 19.14584,-6.59483 26.03834,-8.92242 -0.38291,-0.58189 -0.95729,-1.06681 -0.95729,-1.84267 -0.19146,-2.52156 0.47865,-4.5582 0.28719,-7.07976 -1.6274,3.39441 -5.07365,5.1401 -8.71136,6.49786 -2.01031,0.67888 -7.65834,3.20043 -9.66865,3.3944 -2.20177,-6.7888 -4.88219,-13.86855 -7.08396,-20.56037 -0.67011,-1.6487 -0.28718,-2.90948 0.6701,-4.55818 z m -94.1018,2.2306 c 2.58469,0.87285 9.8601,2.61853 12.34906,3.68534 3.44626,1.45475 1.24449,7.75863 -2.39322,6.88579 -2.48896,-0.38793 -9.66866,-2.42457 -12.06188,-3.29742 0.6701,-2.42457 1.34021,-4.84914 2.10604,-7.27371 z m 33.88814,3.68534 c 0.19146,0.48492 0.0958,1.55173 -0.28719,2.13363 l -13.01917,22.30605 c -1.14876,1.93965 -2.2975,2.81251 -3.82917,4.07329 2.9676,0.48491 8.13698,1.93965 11.10459,2.52154 -0.95729,-2.13362 -0.86157,-4.75215 0.67011,-6.7888 4.59499,0.38794 13.21062,1.06681 17.70989,1.64872 0.9573,2.2306 2.10605,4.84913 0,6.88578 3.06334,0 8.32845,-0.097 11.20032,0.097 -1.34021,-1.55172 -2.58469,-3.20044 -3.15906,-5.23708 -1.34021,-4.17026 -6.50959,-19.49354 -8.13698,-24.2457 -0.28719,-0.87285 0.0957,-1.93966 0.0957,-2.03664 z m 34.36678,0.097 c -3.35052,0.5819 -8.99854,1.26078 -12.15761,1.64871 1.53167,1.06681 2.58469,1.74569 2.87188,3.58836 0.76583,6.98277 2.20177,13.67458 3.06333,20.56037 0.19146,2.13362 0.19146,4.94612 -1.24447,6.7888 7.27541,-0.67889 20.6775,-2.90949 27.95292,-3.78234 -0.28718,-0.67887 -0.76583,-1.26078 -0.57437,-1.93965 0.28719,-2.52156 1.24447,-4.65518 1.53166,-7.17673 -2.39323,2.8125 -5.83948,4.26724 -9.66865,4.94612 -2.20177,0.38794 -8.51989,1.35776 -10.43448,1.35776 -0.86156,-7.07975 -2.01032,-14.54743 -2.87188,-21.53019 -0.38291,-1.93965 0.28719,-3.00647 1.53167,-4.46121 z m -29.10168,5.23707 5.26511,14.64442 c -3.35053,-0.19397 -9.66865,-0.58191 -12.92345,-0.96984 z m -42.40804,2.90948 c 3.06335,1.1638 8.13699,2.9095 10.81741,3.97631 5.93521,2.13362 4.40354,10.18319 -2.77615,7.66164 -3.25479,-1.06681 -7.56261,-2.42457 -10.62594,-3.58837 0.6701,-2.61854 1.81886,-5.43104 2.58468,-8.04958 z"
     style="stroke-width:0.96354" />
  <path
     id="city"
     class="st1"
     d="m 308.50767,83.596699 c -4.69073,-0.193966 -7.75406,1.066811 -11.10458,3.879314 -3.63772,3.394404 -6.12668,7.27374 -6.12668,13.189707 0.0958,4.65518 5.07365,11.92889 11.10459,15.8082 1.72313,1.26078 4.40355,2.81251 4.59501,4.94613 2.01031,-2.03665 4.11635,-4.07329 6.12666,-6.01294 -4.88219,-1.45474 -13.1149,-6.30389 -14.35937,-11.83191 -0.76584,-4.364225 0.28718,-5.818971 2.20177,-8.243549 3.44624,-4.170287 6.98822,-5.722016 12.1576,-4.267266 4.69073,1.842685 8.90282,7.855643 9.19001,12.122885 2.39322,-1.26077 4.78645,-2.32759 7.17969,-3.588358 -1.91459,-1.260779 -2.87188,-2.715525 -4.11636,-4.461231 -2.87188,-4.267264 -8.32844,-10.280206 -14.83802,-11.347017 -0.57438,-0.09698 -1.34021,-0.193965 -2.01032,-0.193965 z m 25.84689,22.597041 c -0.0958,3.10345 -1.72313,4.07328 -3.92491,5.72198 -5.36082,3.68535 -10.43448,7.46768 -15.69958,11.05605 -1.53167,0.96983 -3.44626,2.23061 -5.64803,1.16379 1.72314,2.71552 5.16938,7.3707 6.89251,9.98924 0.19145,-2.81251 1.6274,-4.07329 3.35052,-5.1401 5.74376,-3.87931 11.20032,-8.14655 16.94407,-11.92888 1.6274,-1.16379 2.58469,-1.64871 4.88219,-0.87285 -1.72313,-2.61853 -5.07365,-7.27371 -6.79677,-9.98923 z m 10.24302,14.64441 c -1.6274,2.42457 -5.16938,0.96982 -7.65834,1.93965 3.06333,1.7457 6.41386,7.3707 7.75407,10.66811 -6.89251,3.20044 -12.54052,6.2069 -19.3373,9.40734 -1.34021,0.67888 -3.35052,0.29095 -4.69073,-0.29094 1.43594,2.90948 3.73344,8.04957 5.16938,10.95905 0.76583,-2.2306 2.9676,-4.17026 5.07364,-5.0431 6.12668,-2.8125 11.20032,-5.52803 17.32698,-8.24354 1.53168,3.10345 4.2121,9.0194 3.35053,12.51078 2.39323,-1.45474 3.54199,-4.5582 6.2224,-4.26724 -3.35052,-7.17673 -9.86011,-20.46339 -13.21063,-27.64011 z m 14.83802,31.13149 c -0.6701,3.00647 -3.35052,4.75215 -5.07364,6.98276 -3.35052,3.9763 -7.37115,8.43751 -11.29604,12.41381 -0.9573,0.87284 -3.2548,1.1638 -4.69074,1.45474 -2.9676,0.38793 -4.30781,0.77587 -6.50958,-1.1638 0.6701,3.20044 1.81885,8.92243 2.48896,12.02588 1.24447,-1.93966 2.58468,-3.00647 5.07364,-3.68535 2.20177,-0.38793 4.11636,-1.26077 5.64803,-0.5819 7.17968,3.9763 20.58177,9.6013 22.3049,11.347 l -2.48896,-11.92889 c -0.76583,1.16379 -1.72313,1.74569 -2.68041,1.35775 -4.30782,-1.6487 -9.38147,-4.07328 -13.01918,-5.52801 2.68042,-3.10345 5.74375,-6.20691 8.61563,-9.11639 1.24448,-1.55172 2.87188,-2.13363 4.40355,-0.67888 z"
     style="stroke-width:0.96354" />
  <path
     id="club"
     class="st1"
     d="m 342.49153,222.18521 c -1.3402,0 -2.87187,0.48492 -4.59499,1.64872 -2.29751,2.13362 -3.15907,5.33405 -4.02063,8.24354 -1.05302,4.94612 -3.63771,15.03234 -4.595,19.97846 1.62739,-1.35776 3.06333,-1.45475 4.88219,-1.06681 7.17968,1.55173 14.26365,3.20043 21.34761,4.75216 1.72312,0.29094 2.96761,1.74569 4.02063,3.20044 1.05302,-6.88579 5.2651,-20.85132 5.16938,-27.83408 -0.0958,-5.72199 -5.36084,-9.40733 -10.43449,-8.24355 -2.87188,0.77587 -4.49927,4.17027 -5.07365,6.49785 0,-3.29742 -2.68042,-7.27371 -6.70105,-7.17673 z m 0,8.34053 c 2.10605,0 4.02063,1.93965 3.44626,4.46121 -0.57438,2.52156 -1.53167,7.9526 -2.20177,10.47414 -2.39324,-0.4849 -4.97792,-1.06681 -7.37115,-1.6487 0.67011,-2.61854 1.34021,-6.40087 2.01031,-9.11639 0.76583,-3.00647 2.48897,-4.17026 4.11635,-4.17026 z m 13.1149,0.48492 c 2.20178,0.097 4.2121,2.32759 3.73345,5.0431 -0.6701,3.29742 -1.91459,9.21337 -2.48896,12.4138 l -8.04125,-1.74569 c 0.6701,-3.29741 1.72312,-7.95258 2.58468,-11.25 0.6701,-3.29742 2.48896,-4.5582 4.21208,-4.46121 z m -26.80417,22.597 c -2.01031,3.68534 -3.82917,7.17673 -5.93521,10.86207 1.6274,-0.77586 3.15906,-0.87284 4.49927,-0.19396 4.69073,2.52155 8.61564,4.84914 13.30636,7.46768 1.81885,1.06681 3.73344,3.00647 3.9249,5.52801 -0.0958,3.49139 -2.39323,7.66165 -5.55229,9.01941 -2.29751,1.06681 -4.88219,0 -6.60532,-1.06681 -4.21209,-2.61854 -7.56261,-4.46121 -11.77469,-7.07974 -1.43594,-0.87286 -2.77614,-1.45475 -2.87188,-4.26725 -2.01031,3.49138 -3.82917,7.27371 -6.03094,10.86207 2.87188,-1.26077 4.78647,-0.38792 6.79678,0.87286 3.73344,2.2306 6.8925,4.07327 10.62594,6.2069 2.87187,1.6487 5.74375,2.71551 9.57292,1.84267 3.35052,-0.77586 6.2224,-4.07328 8.23271,-7.46768 2.20177,-3.58837 4.11636,-7.66165 3.82917,-11.63794 -0.19146,-4.07328 -2.68042,-6.88579 -5.36084,-8.63147 -4.40354,-2.71552 -7.94552,-4.5582 -12.44479,-7.27372 -1.72312,-0.87284 -4.11636,-2.42457 -4.21209,-5.0431 z m 2.48897,41.89658 c -0.0958,3.3944 -2.01032,7.46768 -4.40356,10.28019 -1.24447,1.6487 -5.07364,6.10991 -6.70104,7.8556 -5.36084,-4.55819 -10.24302,-8.72845 -15.60386,-13.38363 -1.43593,-1.16379 -2.58469,-2.8125 -2.58469,-4.75216 -2.20177,2.32759 -5.16937,5.72199 -7.27541,8.24355 1.81886,-0.29095 3.54198,0.67887 4.97791,1.84267 5.26511,4.55819 10.33876,9.21336 15.69959,13.67458 1.6274,1.45474 2.39323,2.90948 2.48897,5.23707 4.88218,-5.52802 13.785,-16.00217 18.57145,-21.62718 -0.6701,-0.29094 -1.53166,-0.38792 -1.81884,-1.16378 -1.53168,-2.52156 -1.91459,-4.17027 -3.35052,-6.20691 z m -37.14294,8.92242 c -1.53167,2.03664 -4.49927,3.10345 -6.70105,4.07328 -4.69073,2.23061 -11.20031,7.66165 -12.63625,13.96553 -1.05302,5.43104 0.0957,9.89225 3.06333,13.86855 2.96761,4.07327 6.70105,6.40086 11.7747,6.49785 5.74375,-0.097 11.87042,-3.78233 16.36969,-8.43751 1.53167,-1.55173 3.35052,-3.58837 5.45657,-3.78233 -1.81886,-2.2306 -3.35052,-4.65517 -5.36083,-6.7888 -1.24449,3.9763 -7.46689,10.57113 -11.67897,11.73493 -3.73344,0.87284 -6.12667,-0.19397 -8.90282,-2.52156 -2.96761,-3.10345 -4.88219,-6.98276 -3.63771,-11.54096 1.81886,-5.81897 9.4772,-10.08622 14.26365,-9.31035 -0.47865,-2.42457 -1.14875,-5.23707 -2.01031,-7.75863 z"
     style="stroke-width:0.96354" />
  <path
     id="leaf-top"
     class="st1"
     d="m 205.9817,90.579468 c -0.57438,1.745693 -1.05302,4.170285 -1.43594,6.206938 -0.0958,0.484917 -0.28719,0.775865 -0.57438,1.066812 -13.59354,13.868542 -30.44188,9.795262 -36.66428,30.161652 -0.6701,1.7457 0.19146,3.49139 3.25479,5.23708 0.28719,0.19396 0.57438,0.097 0.57438,-0.19396 -0.76584,-22.1121 28.71876,-20.56037 35.13262,-35.980635 0.0957,-0.193968 0.28719,-0.09699 0.38291,0 5.45657,10.280185 14.35938,11.540955 22.5921,16.390095 6.12666,3.58837 10.5302,6.7888 11.77469,16.972 0,0.48492 0.19145,0.38793 0.38291,0.19397 0.95729,-1.06682 3.15907,-1.55173 3.06333,-3.10345 -2.01031,-15.03235 -18.28428,-18.23278 -31.39918,-24.43968 -0.57437,-0.38793 -1.05301,-0.87284 -1.62739,-1.26078 -2.77615,-3.297418 -4.88218,-6.982778 -5.45656,-11.250042 z m -0.2872,18.814702 c -0.19145,0 -0.28718,0 -0.38291,0.097 -0.0958,0.097 -0.28719,0.19397 -0.38291,0.38792 -0.0958,0.097 0,0.58191 0,0.87286 0.0958,0.19395 0.19145,0.29094 0.28719,0.38792 0.19145,0.29095 0.38291,0.38794 0.6701,0.67889 0.38292,0.19396 0.76583,-0.097 0.86156,-0.29095 0.0958,-0.48492 0.0958,-1.06681 0,-1.45475 0,-0.19397 -0.19145,-0.29095 -0.28719,-0.38792 -0.0957,-0.19397 -0.28719,-0.19397 -0.47864,-0.19397 0,-0.097 -0.0958,-0.19397 -0.2872,-0.097 z m 4.49928,4.17027 c 0,0 -0.0957,0 -0.0957,0.097 -0.0958,0.097 -0.19146,0.19397 -0.19146,0.29095 0,0.58189 -0.28719,1.45474 0.28718,1.84267 0.28719,0.097 0.57438,0.19397 0.86156,-0.097 0.0958,-0.19397 0.28719,-0.19397 0.28719,-0.5819 0,-0.19396 -0.19146,-0.19396 -0.28719,-0.38793 -0.0957,-0.29095 0,-0.67889 -0.0957,-0.87284 -0.0958,-0.097 -0.19146,-0.29095 -0.28719,-0.29095 -0.19146,0 -0.38292,-0.097 -0.47865,0 z m -8.23271,0.097 c -0.38292,0.097 -0.86156,0.38792 -0.9573,0.96983 -0.19145,0.29095 -0.19145,0.58189 0,0.77586 0.19147,0.29095 0.47865,0.67888 0.86157,0.87284 0.28719,0.19397 0.67011,0.19397 0.86157,-0.48491 0.19145,-0.5819 0.19145,-1.35776 -0.0958,-1.55173 -0.28719,-0.38792 -0.28719,-0.67887 -0.6701,-0.58189 z m 4.40354,7.27371 c -1.72312,5.33406 -2.20177,7.9526 -3.44625,12.21984 2.29751,0 3.54198,0 5.16938,0.097 -1.34021,-4.84914 -1.43594,-6.7888 -1.72313,-12.31682 z"
     style="stroke-width:0.96354" />
  <path
     id="leaf-left"
     class="st1"
     d="m 125.95208,147.21748 c -0.0958,0 -0.19146,0 -0.28718,0.097 -12.1576,8.63147 -15.41237,24.05175 -31.016179,21.53019 11.104559,5.23708 10.817369,18.13579 11.966119,30.06468 0.95729,10.08621 8.51985,23.66382 29.00589,20.85131 0.19146,0 0.38292,-0.19396 0.19146,-0.38792 -1.34021,-1.93966 -5.74375,-1.26078 -6.79677,-1.45475 -16.17822,-3.10345 -18.95435,-18.23278 -22.30485,-35.30175 -0.76583,-4.94613 -3.92488,-8.04958 -5.93518,-11.73493 -0.0957,-0.38792 -0.28719,-0.48491 0.19145,-0.58189 10.3387,-2.03664 18.09274,-11.05605 26.42118,-20.75433 0.19146,-0.097 0.19146,-0.38793 0,-0.48491 -0.47864,-0.48492 -0.86156,-0.96983 -1.34021,-1.55173 0,-0.29095 0,-0.29095 -0.0958,-0.29095 z m -1.62739,19.88149 c -0.19146,0 -0.28719,0 -0.38292,0.097 -0.19146,0.097 -0.28718,0.19396 -0.38292,0.38792 -0.0958,0.097 0,0.58191 0,0.87285 0.0958,0.19397 0.28719,0.29095 0.38292,0.38793 0.19146,0.29095 0.38292,0.38794 0.6701,0.67888 0.38293,0.19397 0.76584,-0.097 0.86157,-0.29094 0.0958,-0.48492 0.0958,-1.06681 0,-1.45475 0,-0.19397 -0.19146,-0.29095 -0.28719,-0.38793 -0.0958,-0.19396 -0.28719,-0.19396 -0.47865,-0.19396 -0.0958,-0.097 -0.19145,-0.19397 -0.38291,-0.097 z m 4.69073,4.26724 c -0.0958,0 -0.0958,0 -0.19145,0.097 -0.0958,0.097 -0.19147,0.19396 -0.19147,0.29095 0,0.5819 -0.28718,1.45474 0.19147,1.74569 0.28718,0.097 0.57437,0.19397 0.76582,-0.097 0.0958,-0.19397 0.28719,-0.19397 0.28719,-0.48492 0,-0.19397 -0.19145,-0.19397 -0.19145,-0.38792 -0.0958,-0.29096 0,-0.67889 -0.0958,-0.87286 -0.0957,-0.097 -0.19145,-0.29094 -0.28719,-0.29094 z m -8.23271,0.67888 c -0.38292,0.097 -0.86156,0.48492 -0.95729,0.96982 -0.19146,0.29096 -0.19146,0.48492 0,0.67889 0.19145,0.29094 0.47864,0.67888 0.86156,0.87284 0.28719,0.19397 0.6701,0.19397 0.86156,-0.48491 0.19146,-0.5819 0.0958,-1.35777 -0.0958,-1.55172 -0.38293,-0.29096 -0.28719,-0.58191 -0.67011,-0.48492 z m 4.78646,7.17672 c -0.67011,5.33406 -2.58469,11.44399 -4.49928,15.51726 2.20177,-0.29095 3.92491,1.06682 4.11636,2.8125 0.57437,-1.93965 2.01032,-3.49138 3.82917,-2.90948 -1.14875,-4.94612 -2.58469,-10.1832 -3.44625,-15.42028 z"
     style="stroke-width:0.96354" />
  <path
     id="leaf-bottom-left"
     class="st1"
     d="m 142.89615,231.49556 c -0.0958,0 -0.19146,0.097 -0.28718,0.097 -18.76293,7.37069 -22.49636,24.43967 -12.06188,39.47201 7.8498,13.38364 11.39177,19.00864 7.65833,29.77374 14.64657,-17.74786 40.68492,10.95906 55.61867,-11.15303 0.19146,-0.29095 -0.0958,-0.48491 -0.38292,-0.77586 -0.76583,-0.48491 -1.53167,-0.87285 -2.20177,-1.16379 -0.57437,-0.19397 -0.86156,-0.097 -1.14876,0.38792 -6.12666,6.49786 -25.9426,5.04312 -40.87636,5.14009 -0.47865,0 -1.81886,0.29095 -2.2975,0.48492 -1.43594,0.77586 -2.87188,1.35776 -4.40354,1.26078 -0.38292,0 -1.05302,-0.19397 -0.9573,-1.06681 0.76584,-11.05605 -5.74375,-18.03881 -9.8601,-27.1552 -1.24449,-3.10345 -10.81741,-20.56036 12.06187,-31.13149 0.0958,-0.19396 0.28719,-0.29095 0.28719,-0.67888 -0.0958,-1.06681 -0.28719,-2.13362 -0.57437,-3.20043 -0.19146,-0.29096 -0.28719,-0.38794 -0.57438,-0.29096 z m 16.94407,21.04529 c -0.19146,0 -0.28718,0.097 -0.38292,0.097 -0.0957,0.097 -0.28719,0.19396 -0.38291,0.38793 -0.0958,0.097 -0.0958,0.5819 0,0.87284 0,0.19397 0.28718,0.29095 0.38291,0.38794 0.19146,0.29095 0.38292,0.38793 0.67011,0.67887 0.38291,0.19397 0.76584,-0.097 0.86156,-0.38792 0.0958,-0.48492 0.0958,-1.06681 0,-1.45475 0,-0.19397 -0.19146,-0.19397 -0.28719,-0.38793 -0.19146,-0.19396 -0.28718,-0.19396 -0.47864,-0.29095 -0.0957,0 -0.19146,0 -0.38292,0.097 z m 4.78646,3.97629 c -0.0958,0 -0.0958,0 -0.19145,0.097 -0.0958,0.097 -0.19146,0.19396 -0.19146,0.29095 0,0.58189 -0.28719,1.45473 0.19146,1.84267 0.28718,0.097 0.57437,0.19397 0.76582,-0.097 0.0958,-0.19396 0.38293,-0.19396 0.38293,-0.48491 0,-0.097 -0.19147,-0.19396 -0.28719,-0.38793 -0.0958,-0.19397 0,-0.67889 -0.0958,-0.87284 -0.0957,-0.097 -0.19145,-0.29095 -0.28719,-0.29095 -0.0958,0 -0.19145,-0.097 -0.28718,-0.097 z m -8.42416,0.58189 c -0.38293,0.097 -0.76584,0.48492 -0.9573,0.96983 -0.19146,0.29095 -0.19146,0.48492 0,0.67889 0.19146,0.29095 0.47865,0.67887 0.86156,0.87284 0.28719,0.19397 0.67011,0.19397 0.86156,-0.48492 0.19146,-0.58189 0.19146,-1.35775 -0.0958,-1.55172 -0.38292,-0.29095 -0.28719,-0.5819 -0.6701,-0.48492 z m 4.3078,6.88579 c -0.6701,5.33406 -2.58468,11.44397 -4.49927,15.51725 2.20178,-0.29094 3.9249,1.06681 4.11636,2.81251 0.57437,-1.93966 2.01031,-3.3944 3.82917,-2.90949 -1.24449,-4.94612 -2.68042,-10.1832 -3.44626,-15.42027 z"
     style="stroke-width:0.96354" />
  <path
     id="leaf-bottom-right"
     class="st1"
     d="m 267.15266,231.39858 c -0.0957,0 -0.19147,0.097 -0.28719,0.19397 -0.38291,0.87284 -0.86156,1.7457 -1.24448,2.61854 -0.38292,0.96983 -0.38292,1.84267 1.14875,2.32759 26.8999,11.15302 13.68928,32.19829 6.60532,44.6121 -0.76584,1.26078 -2.48896,5.04311 -2.5847,6.69182 -0.28719,1.74569 0,3.29741 0,5.14009 0,0.38793 -0.57437,0.58189 -0.95729,0.48491 -17.23125,-3.3944 -32.16501,12.02587 -46.2372,-4.55819 -1.34021,-1.45474 -2.87188,-1.55173 -3.44625,-1.06681 -0.6701,0.48491 -1.05303,0.96983 -1.53167,1.64871 -0.28718,0.38793 -0.28718,0.67887 0.0958,1.06681 14.64657,20.8513 36.3771,-3.78233 55.04429,6.59483 -4.40354,-10.57113 4.21209,-20.85131 9.09427,-30.16166 10.81741,-18.52373 -1.81885,-29.9677 -15.69958,-35.59271 0.0958,0 0.0958,0 0,0 z m -14.26365,20.65735 c -0.19147,0 -0.28719,0.097 -0.38292,0.097 -0.0958,0.097 -0.28718,0.19397 -0.38292,0.38794 -0.0957,0.19396 0,0.58189 0,0.87284 0.0958,0.19397 0.19146,0.29095 0.28719,0.38793 0.19146,0.29095 0.38292,0.38793 0.67011,0.67888 0.38291,0.29095 0.76582,0 0.86156,-0.29095 0.0958,-0.48491 0.0958,-1.06681 0,-1.45474 0,-0.19396 -0.19146,-0.29095 -0.19146,-0.38793 -0.0958,-0.19397 -0.28719,-0.19397 -0.47865,-0.29095 z m 4.49926,4.26724 c -0.0957,0 -0.0957,0 -0.19145,0.097 -0.0958,0.097 -0.19146,0.19397 -0.19146,0.29095 0,0.58189 -0.28719,1.45474 0.19146,1.74569 0.28719,0.19396 0.57438,0.19396 0.86156,-0.097 0.0957,-0.19396 0.28719,-0.19396 0.28719,-0.48491 0,-0.097 -0.19146,-0.19396 -0.19146,-0.38793 -0.0957,-0.19397 0,-0.67888 -0.0957,-0.87284 -0.0958,-0.097 -0.0958,-0.29096 -0.28718,-0.29096 -0.0958,0 -0.19146,-0.097 -0.38293,0 z m -8.32843,0.58191 c -0.38292,0.097 -0.76584,0.48491 -0.9573,0.96982 -0.19145,0.29095 -0.19145,0.48491 0,0.67888 0.19146,0.29095 0.47865,0.67888 0.86157,0.87284 0.28719,0.19397 0.6701,0.19397 0.86156,-0.4849 0.19145,-0.58191 0.0958,-1.35777 -0.0958,-1.55173 -0.28719,-0.29096 -0.28719,-0.5819 -0.6701,-0.48491 z m 4.595,6.88577 c -0.67011,5.33406 -2.58469,11.44398 -4.49928,15.51726 2.20177,-0.29095 3.92491,1.06681 4.11636,2.8125 0.57437,-1.93965 2.01032,-3.49138 3.82917,-2.90948 -1.14875,-4.84915 -2.58469,-10.08622 -3.44625,-15.42028 z"
     style="stroke-width:0.96354" />
  <path
     id="leaf-right"
     class="st1"
     d="m 283.52235,146.92654 c -0.0957,0 -0.0957,0.097 -0.19146,0.097 -0.19145,0.19396 -0.38291,1.55172 -0.38291,2.42456 0,0.19397 0,0.29095 0.19146,0.48492 3.82917,2.42458 15.4124,15.61424 25.46396,17.94183 0.47864,0.097 0.47864,0.48491 0.28719,0.67887 -11.96615,14.25648 2.2975,36.56253 -21.25188,45.00004 -4.40355,1.26078 -8.80709,0.67889 -9.57292,3.58837 0,0.097 0.0957,0.19397 0.19146,0.19397 14.16791,0.87284 23.07073,-3.97631 25.65541,-14.1595 3.44626,-11.44397 -3.06333,-27.73709 9.09429,-36.56253 0.28718,-0.19397 0.0957,-0.67888 -0.0958,-0.5819 -12.25333,1.26078 -20.10313,-11.92889 -29.1974,-19.10561 z m 3.92489,19.10561 c -0.19145,0 -0.28718,0.097 -0.38291,0.19397 -0.0957,0.097 -0.28719,0.19396 -0.38292,0.38793 -0.0958,0.097 0,0.5819 0,0.87284 0.0958,0.19397 0.19146,0.29095 0.2872,0.38794 0.19145,0.29095 0.38291,0.38793 0.6701,0.58189 0.38291,0.29095 0.76583,0 0.86156,-0.29094 0.0957,-0.48492 0.0957,-1.06681 0,-1.45475 0,-0.19397 -0.19146,-0.29095 -0.19146,-0.38793 -0.0957,-0.19396 -0.28719,-0.19396 -0.47864,-0.29095 z m 4.11636,4.65517 c 0,0 -0.0957,0 -0.0957,0.097 -0.0957,0.097 -0.0957,0.19397 -0.0957,0.29095 0,0.58189 -0.28719,1.45475 0.19145,1.74569 0.28719,0.097 0.57437,0.19396 0.76584,-0.097 0.0957,-0.19395 0.38292,-0.19395 0.38292,-0.48491 0,-0.19396 -0.19146,-0.19396 -0.2872,-0.38793 -0.0957,-0.29094 0,-0.67888 -0.0957,-0.87284 -0.0957,-0.097 -0.0957,-0.29096 -0.28719,-0.29096 -0.19146,0.097 -0.38291,0 -0.47865,0 z m -8.5199,0.097 c -0.38291,0.097 -0.76583,0.48492 -0.95729,0.96983 -0.19146,0.29095 -0.19146,0.48491 0,0.67888 0.19146,0.29094 0.47864,0.67888 0.86157,0.87285 0.28718,0.19396 0.6701,0.19396 0.86156,-0.48492 0.0957,-0.5819 0.0957,-1.35776 -0.0957,-1.55172 -0.38292,-0.19397 -0.28718,-0.58191 -0.67011,-0.48492 z m 4.59501,6.88578 c -0.6701,5.33406 -2.58469,11.44398 -4.49927,15.51725 2.20177,-0.29094 4.02062,1.06682 4.11635,2.81251 0.57438,-1.93966 2.01031,-3.49138 3.82917,-2.90949 -1.14876,-4.94612 -2.58469,-10.18319 -3.44625,-15.42027 z"
     style="stroke-width:0.96354" />
  <path
     id="fox-outline"
     class="st1"
     d="m 275.38537,113.66142 h -0.19146 c -10.91313,3.10345 -25.5597,15.8082 -37.62158,26.96123 -0.38291,0.38793 -0.86156,0.48491 -1.24448,0.38793 -8.04125,-2.71552 -17.42271,-3.00647 -25.17678,-3.20044 -11.10458,-1.06681 -24.50667,0.38794 -36.47282,4.26725 -0.47865,0.19397 -0.86156,-0.29095 -1.24448,-0.77586 -9.47719,-10.66811 -22.78355,-19.39657 -37.23867,-25.50649 -0.38291,-0.19397 -0.76582,-0.38793 -1.14874,0.097 -7.37115,6.88577 -5.74376,27.34915 0.57437,38.4052 0.76584,1.6487 0.9573,4.46121 0.9573,5.43104 0.47865,5.91595 1.62739,11.15302 3.15906,16.68105 0.38292,3.49138 1.72313,6.98276 3.63771,9.89225 0.38291,0.48491 0.19145,0.87284 -0.0958,1.16379 -2.48896,2.52155 -4.78646,4.94612 -7.27542,7.46768 -0.19146,0.19396 -0.57437,0.29094 -0.86156,0.38793 -2.10604,0.29095 -2.77615,0.96982 -3.73344,3.3944 -0.19146,0.38793 -0.0958,0.5819 0.0958,0.87284 0.38292,0.67889 2.77614,4.94613 4.78646,7.17674 1.91458,1.93965 1.24447,3.78232 -0.38292,5.52801 3.06334,2.32759 8.51991,6.7888 8.90282,7.46768 0.38291,1.7457 3.44625,2.42457 1.62739,4.94613 0.47865,0.097 0.76584,0.29094 1.14875,0.58189 0.28719,0.29096 0.38293,0.58191 0.38293,0.87285 0.28718,2.81251 0.76582,5.33405 2.29749,7.9526 6.2224,10.66811 13.21063,9.01939 21.44334,18.13579 4.97792,5.43104 9.86011,5.72199 13.21064,15.32329 -0.28719,3.68534 -0.47865,5.91595 0.95728,9.0194 1.72313,3.87931 6.12667,3.97629 11.67897,6.59483 0.76584,0.29095 1.14875,0.48491 1.72312,1.06681 1.43594,1.45475 3.15907,2.32759 5.07365,3.29742 1.53167,0.67888 3.35052,0.67888 4.78646,-0.097 2.68042,-1.55173 3.25479,-0.38794 8.23271,-4.07328 4.69073,-1.35776 12.25334,-7.17674 11.4875,-17.16596 0,-0.29095 0.0958,-0.48492 0.19147,-0.77586 0.19146,-0.48492 0.57437,-0.87286 0.95728,-1.35777 1.91459,-2.32759 4.02063,-4.26724 5.36084,-7.07975 0.28719,-0.67888 0.47865,-1.35775 1.05302,-1.84267 18.6672,-15.42027 12.06188,-8.63147 18.76292,-13.86855 13.78501,-10.66811 4.78647,-23.08191 20.9647,-30.06468 -2.20177,-4.75215 -1.43593,-5.14009 5.64803,-15.12931 -3.73344,-2.03665 -6.41386,-4.36423 -8.99855,-6.20691 -8.23271,-6.49785 -0.76583,-12.02587 -0.0958,-15.2263 0.47864,-1.84268 1.14875,-4.07329 1.34021,-6.40087 0.86156,-5.33406 0.38292,-11.63794 3.06334,-14.45045 2.01031,-1.93965 2.58468,-12.60777 2.87187,-13.38363 2.20177,-6.98277 1.34021,-7.85561 1.81886,-12.21984 0.0958,-0.58189 0.28718,-1.06681 0,-1.6487 -1.53167,-4.26725 -3.35053,-8.34052 -5.5523,-12.41381 -0.19145,-0.38793 -0.28719,-0.67888 -0.57438,-0.77586 -0.19145,0.29095 -0.28718,0.29095 -0.28718,0.29095 z m -6.50959,16.29312 c -0.86156,8.72845 -4.02062,14.45044 -3.06333,21.72415 -3.63771,4.5582 -2.39324,12.9957 -5.74376,18.03881 -0.19145,0.29095 -0.47865,0.48492 -0.86156,0.38793 -4.49927,-0.77586 -7.56261,-6.40087 -11.39178,-9.6013 -0.38291,-0.29095 -0.57437,-0.5819 -0.47864,-0.87284 1.53167,-3.49139 5.07365,-6.98277 2.2975,-10.47415 0.28719,-10.08622 12.15762,-11.73492 19.24157,-19.2026 z m -128.1814,1.74569 c 6.98823,3.97629 11.48751,10.66811 14.93375,10.76509 0.57439,0.87285 1.34021,1.74569 1.91459,2.42458 5.16937,5.91595 1.05302,8.14655 5.5523,15.71121 0.47865,1.06682 0.6701,2.13363 0,2.71552 -3.06334,2.71552 -5.74376,5.33406 -8.23271,8.34052 -3.35053,4.07329 -4.97792,2.61854 -5.93522,0 -0.57437,-1.93965 -1.24448,-4.07328 -0.38291,-6.30388 0.57437,-1.1638 0.19145,-2.23061 -0.67011,-3.39439 -1.24447,-1.7457 -2.20177,-3.49139 -3.15906,-5.33406 -0.38292,-0.67889 -0.57437,-1.26078 -0.67011,-2.13362 -1.24447,-7.46768 -0.95728,-18.7177 -3.35052,-22.79097 z m 86.92212,74.28885 c 0.47864,-0.097 0.95729,0.29095 1.05301,0.77587 0.0958,0.48491 -0.28718,0.96983 -0.86156,1.06681 -0.47864,0.097 -0.95729,-0.29095 -1.05302,-0.87285 -0.0957,-0.48491 0.2872,-0.96983 0.86157,-0.96983 z m -47.8646,0.097 c 0.47864,0 0.95729,0.29095 1.05302,0.87285 0.0958,0.48491 -0.2872,0.96982 -0.86157,1.06681 -0.47864,0.097 -0.95729,-0.29094 -1.05301,-0.77586 0,-0.67888 0.38291,-1.1638 0.86156,-1.1638 z m 77.062,21.04528 c 0.76583,0 0.9573,0.67888 0.86156,1.45474 -0.76582,10.28018 -5.55229,7.46768 -16.36968,17.16597 -2.87189,2.32759 -1.91459,4.46121 -5.74376,7.75863 -3.15906,3.00646 -6.12667,6.2069 -8.90282,10.08621 -0.47865,0.67888 -0.76583,0 -0.76583,-0.38793 -0.0957,-0.77587 -0.57438,-1.7457 -1.24448,-2.52156 -1.81885,-2.03664 1.05303,-1.74568 -2.10604,-6.69182 -1.34021,-1.93965 -2.87187,0.58191 -3.82917,-2.61853 -0.57437,-2.03664 0,-1.06681 -0.76584,-5.81897 l 1.91459,-1.55172 c 0.86156,2.52155 2.10604,4.75215 3.44625,6.49785 0.19147,0.29094 -0.19146,2.42456 0.6701,4.26724 0.19146,-3.00647 2.87188,-4.75216 -0.95728,-10.08622 -0.47865,-0.67887 -0.76584,-1.35776 -0.9573,-2.2306 0,-0.097 0,-0.19397 -0.0958,-0.29095 7.17969,-4.75216 15.22095,-8.53449 22.78355,-11.73493 -0.38291,0.48492 -0.76584,0.87286 -1.14875,1.35777 -0.19146,0.19396 0.19146,0.29095 0.28719,0.29095 0.47865,-0.097 0.67011,-0.097 1.05302,0 0.28719,0.097 0.19146,0.38792 0.19146,0.58189 0.0957,0.87284 -0.67011,0.96983 -0.47865,1.93965 1.24448,-1.6487 2.39324,-3.20043 3.73345,-4.65517 0.28718,-0.38793 0.6701,-0.87284 1.24447,-0.77586 l 1.34021,0.19396 c 0.47865,0 0.95729,-0.097 1.43594,-0.19396 1.24448,-0.48491 2.10604,-1.06681 3.25479,-1.84268 0.57437,-0.097 0.86156,-0.19396 1.14875,-0.19396 z m -101.66441,1.64871 c 0,0 0.0958,0 0.19145,0.097 3.54199,1.84267 8.51991,3.00647 11.00887,4.07328 1.34021,0.58189 2.68041,1.55173 3.73343,1.74569 0.38293,0 0.38293,-0.19396 0.19146,-0.48491 -0.28718,-0.38794 -0.57437,-0.87284 -0.76583,-1.1638 6.12667,2.90949 11.87043,6.30389 17.90137,10.28018 0,0.097 0,0.097 -0.0958,0.19397 -0.19145,0.48492 -0.38291,0.96983 -0.47864,1.45475 -0.0958,0.29094 -0.19146,0.4849 -0.28719,0.77586 l -0.28719,0.58189 c -0.0958,0.29095 -0.28719,0.67888 -0.38292,0.87285 -0.19146,0.29094 -0.38291,0.77586 -0.47865,1.06681 0,0.097 -0.0957,0.19396 -0.19145,0.29094 -0.0958,0.19397 -0.19146,0.38794 -0.28718,0.67889 -0.0958,0.19397 -0.0958,0.29094 -0.0958,0.38793 0,0.097 0,0.097 -0.0957,0.19396 0,0.19397 -0.0958,0.38794 -0.0958,0.58191 v 0.58189 c 0,0.19397 0,0.48492 0.0958,0.67887 0.0957,0.58191 0.28718,0.87286 0.47864,0.96984 0.0957,0 0.19145,0 0.19145,0.097 0.0958,0 0.38293,0.097 0.47865,-0.19396 0.0958,-0.19397 0.19146,-0.38794 0.28719,-0.67889 l 0.28719,-0.58189 c 0.19146,-0.38794 0.47865,-0.77586 0.76583,-1.1638 0.0957,-0.097 0.0957,-0.19396 0.19146,-0.29095 0.47864,-0.67887 1.05303,-1.35776 1.53167,-2.03664 0.0958,-0.097 0.0958,-0.097 0.0958,-0.19396 l 0.57438,-0.87285 c 0.0957,-0.097 0.0957,-0.19396 0.19145,-0.29095 0.19146,-0.29094 0.38292,-0.58189 0.47865,-0.87284 l 3.82916,2.90948 c -0.6701,1.55173 -1.43593,3.78234 -1.72312,5.23708 -0.47865,3.39439 -2.58469,2.71552 -4.11635,1.35776 0.0957,3.58836 0.38291,5.04311 -1.6274,8.14656 -0.28719,0.48491 -0.47865,0.29094 -0.67011,0 -4.69073,-9.21338 -9.28573,-6.98277 -15.22094,-16.87502 -0.57437,-1.45474 -1.53167,-2.8125 -3.54198,-3.49138 -7.37115,-2.90949 -12.63625,-4.94613 -12.4448,-13.48062 0.0958,-0.48491 0.19146,-0.58189 0.38292,-0.58189 z m 64.9044,30.74356 c 0.28719,0 0.57437,0.29095 0.6701,0.5819 1.53167,3.39439 3.35053,9.40733 2.77616,11.25001 -2.20178,8.4375 -8.04126,9.89225 -13.59355,9.11638 -4.11636,-0.58189 -4.11636,-1.55172 -4.2121,-4.26725 0,-0.29094 0.38293,-0.38792 0.76584,-0.48491 4.97792,-1.55173 7.94552,-4.36422 8.04126,-9.50431 0,-0.67889 0.0957,-1.45475 -0.28719,-2.13363 1.34021,-0.87284 2.68041,-1.84267 3.9249,-3.00646 l 0.0958,-0.097 c 0.38292,-0.5819 0.86156,-1.06681 1.43595,-1.45474 0.19145,0.097 0.28718,0 0.38291,0 z m -27.57001,0.67887 c 0.19146,-0.097 0.28718,0 0.47865,0.19397 0.0958,0.097 0.28718,0.5819 0.6701,0.5819 0.67011,0.87285 1.62739,1.55172 2.48895,2.23061 -0.28718,0.29094 -0.47863,0.58189 -0.57437,0.87284 -0.28719,0.77586 -0.19145,2.13363 0,3.39441 0.0958,0.77586 0.38292,1.35775 0.76584,2.03663 1.81885,2.8125 3.06333,4.07328 5.07365,5.52803 0.86156,0.48491 1.72312,0.96983 2.87187,0.87284 0.28719,0 0.47865,0.19397 0.38292,0.38793 -0.28719,4.17026 -2.20177,4.46121 -6.89251,3.87932 -10.43448,-2.13363 -11.39177,-9.01941 -5.74375,-19.39657 0.0958,-0.38794 0.2872,-0.58191 0.47865,-0.58191 z m 13.49782,22.50002 c 1.43594,0 2.9676,0 4.49927,0.19397 0.19146,0 0.28719,0.19397 0.19146,0.38794 -0.19146,0.58189 -0.86156,1.26078 -1.14876,1.55172 -0.19145,0.19396 -0.47864,0.19396 -0.76582,0.29095 -1.14876,0.29095 -2.87188,0.48492 -3.15907,0.38793 l -0.86156,-0.29095 c -0.9573,-0.58189 -1.91459,-1.16379 -2.87188,-1.84267 -0.19146,-0.19397 -0.19146,-0.38793 0,-0.48492 1.34021,0 2.68042,-0.19397 4.11636,-0.19397 z"
     style="stroke-width:0.96354" />
  <path
     id="fox-background"
     class="st2"
     d="m 274.23662,121.42005 h -0.19146 c -11.87042,4.36422 -26.61272,13.09268 -34.27106,24.63363 -3.06333,2.52156 -6.2224,4.94613 -9.57292,7.17674 6.79678,-9.21338 -6.79677,-9.79527 -23.26219,-11.63794 -11.29604,-0.96983 -24.79387,2.61853 -29.10167,5.0431 -0.38293,0.19397 -0.67011,0.67888 -0.28719,1.06682 1.24447,1.74568 1.62739,3.87931 2.29749,5.81896 0.0957,0.19397 -0.0958,0.19397 -0.28718,0.097 -14.26365,-12.99569 -35.61126,-30.4526 -42.79095,-32.19829 -0.38292,-0.097 -0.67011,0.097 -0.86157,0.38792 -0.47864,1.06682 -0.6701,1.35777 -1.05302,2.42458 -0.28718,0.96983 -0.76583,1.55172 -1.05302,1.74569 -4.11635,4.07327 3.06333,11.63794 4.11636,25.50648 0.6701,5.81898 2.10603,8.43751 3.44624,12.5108 0.19146,0.58189 0.38293,0.96982 0.38293,1.55172 1.81884,6.49785 3.06333,13.09268 5.45656,19.00863 2.96761,9.6013 -8.5199,8.04958 -8.99855,16.00217 -0.28718,5.43104 6.03094,8.34053 4.97792,12.31682 -0.0957,0.29096 -0.57437,0.48491 -0.28719,0.87285 4.78646,5.0431 6.70104,3.87931 8.61563,8.04957 4.49927,8.04958 9.47719,-0.77586 17.61418,10.95906 6.12666,2.90949 11.87041,6.30389 17.90135,10.28019 0.47865,-1.35776 0.86156,-3.10346 1.14875,-5.23708 0.76584,-4.36422 0.57439,-8.82543 -2.10603,-14.93536 -0.47865,-0.87284 -0.19147,-2.42456 0.6701,-3.10345 0.47864,-0.38792 0.67011,-0.48491 0.67011,0.19397 0.76582,8.14656 7.27541,13.57759 3.25479,21.23924 -0.19146,0.29095 -0.28719,0.48492 -0.28719,0.96983 0.0957,1.06681 -0.0958,1.93966 -0.47865,2.81251 l 3.82917,2.90948 c 0.28719,-0.67888 0.47865,-1.1638 0.6701,-1.55173 1.72312,-9.0194 3.06333,-23.56682 4.40354,-25.4095 0.0958,-0.19397 0.28719,-0.48491 0,-0.67888 -1.53166,-1.55173 -3.15905,-4.17026 -2.39322,-4.94612 0.86156,-0.67889 5.64802,1.35775 5.55229,4.84914 -0.19146,3.10345 -3.25479,32.29528 -6.98823,36.46555 -0.19146,0.19396 -0.0957,0.38792 0,0.4849 1.62739,2.32759 1.34021,2.9095 0.76583,3.20044 -0.57437,0.19397 -1.6274,0.097 -2.10604,0.29095 h -0.28719 c 0.67011,0.87284 1.6274,1.55173 2.48896,2.23061 0.57438,-0.48492 1.43594,-0.87285 2.77615,-1.1638 5.36083,-0.96983 10.43448,-0.77586 14.35938,1.06681 0.47865,0.29095 0.86156,0.5819 1.05302,0.96983 1.34021,-0.87284 2.68042,-1.84267 3.92489,-3.00647 -0.38291,0.29095 -1.14874,0 -1.24447,-0.58189 -2.10605,-11.83191 -4.40354,-13.67459 -5.74375,-22.597 -0.57438,-3.00647 -0.76584,-6.2069 -0.28719,-9.1164 0.19145,-0.96982 0.28719,-1.74568 0,-2.81249 -0.76583,-2.90949 -0.76583,-5.91596 -0.0958,-8.82545 0.47865,-0.96982 1.53168,-2.2306 2.39324,-3.3944 0.67011,-0.87284 1.14875,-1.93965 1.53167,-3.00646 0.38291,-1.1638 4.11635,-6.7888 7.27541,-7.66165 0.28719,-0.097 0.28719,-0.19396 0.38292,-0.48491 0,-0.29095 -0.47864,-0.29095 -0.47864,-0.67888 0.0958,-2.2306 13.97646,-1.06682 21.25188,-0.38793 2.77615,-0.29095 5.55229,-0.67889 8.13698,-1.16379 0.47865,-0.097 0.47865,0.097 0.19146,0.38793 -2.20177,2.42456 -5.26511,3.78233 -8.13699,4.07328 -0.57437,0.097 -0.6701,0.38792 -0.76583,0.77586 -1.62739,8.24354 -13.40208,12.21984 -18.47573,11.25 -0.28719,-0.097 -0.38292,0.19397 -0.28719,0.38794 0.38291,4.17026 -1.43594,4.65518 -2.96761,16.97199 -0.0957,0.67889 -0.0957,1.26078 0,2.03664 0.28719,2.03664 0.86156,3.87932 1.24449,6.01295 7.17969,-4.75217 15.22093,-8.53449 22.78354,-11.73493 1.53167,-1.7457 3.06334,-3.29742 4.59501,-5.1401 0.47864,-0.58189 1.24447,-0.96982 2.10603,-1.26077 6.03094,-2.52155 12.15762,-6.59483 16.65689,-11.54096 0.0958,-0.19396 0.38292,-0.48491 0.28718,-0.77586 -1.43593,-6.59484 2.87188,-8.53449 5.64803,-13.48061 0.38291,-0.67889 0,-0.77586 -0.47865,-1.06681 -2.96761,-1.93966 -5.64802,-4.5582 -7.75406,-6.98277 -0.47865,-0.77586 -0.67011,-1.64871 -0.86156,-2.52155 -2.20177,-10.28019 2.29749,-11.05605 3.06333,-16.972 -0.0957,-3.00647 0.76584,-6.40086 1.6274,-9.50431 1.05302,-3.58837 1.53166,-6.49786 2.77614,-8.53449 0.57438,-17.94184 6.12667,-13.86855 4.59501,-23.37288 -0.38293,-1.93965 -1.34021,-5.33405 -2.5847,-7.75862 0.19146,0.29094 0.0958,0.19397 -0.0957,0.19397 z m -3.44626,3.49137 h 0.28719 c 0.67011,0 1.14876,0.48492 1.14876,1.06682 0.0958,1.16379 0.38291,2.2306 0.57437,3.29741 -4.11635,9.89226 -1.72313,23.46985 -7.08396,31.81037 -0.28719,7.27372 -1.14875,11.92889 -5.45657,14.83838 -0.19146,0.097 -0.38291,0.097 -0.57437,0 -6.79677,-3.39439 -12.92344,-10.37716 -18.85865,-15.90519 9.28573,-6.10991 0.86156,-12.51078 7.46687,-19.49354 7.65834,-8.24355 14.45511,-9.01941 21.44335,-15.12933 0.47864,-0.38793 0.76582,-0.48492 1.05301,-0.48492 z m -132.7764,0.48492 c 0.86156,0 1.81886,0.48491 2.48896,1.1638 6.8925,3.00646 6.2224,5.81896 11.58324,8.53449 1.14875,0.58189 3.06333,1.6487 4.59499,2.03664 0.67011,2.42457 1.81886,2.32759 4.30782,6.69182 0.57438,1.06681 2.77615,2.81249 3.06333,4.26724 0.19147,0.87284 0.0958,1.74569 0.0958,2.61853 -0.0958,2.42458 -1.05302,4.84915 0.28719,5.91596 1.05302,0.58189 0.38291,1.16379 2.39322,2.13362 1.05302,0.48491 1.53167,0.96983 0.9573,2.03664 -1.6274,2.8125 -3.54198,5.14009 -5.36084,7.75862 -0.47864,0.5819 -1.14875,1.06681 -1.81885,1.45475 -3.82917,2.32759 -7.08396,5.62501 -10.53022,8.72846 -0.19145,0.19396 -0.28719,0 -0.47865,-0.097 -3.35052,-1.93965 -4.21208,-5.23707 -4.69073,-9.79527 -1.14874,-12.12286 -3.54198,-1.6487 -7.5626,-37.8233 -0.57437,-1.64871 -1.14875,-4.5582 -0.67011,-5.23708 0.38293,-0.19396 0.86156,-0.38793 1.34021,-0.38793 z m 78.11504,23.56683 c -3.06335,5.81897 -4.59501,5.23708 -6.50959,7.46768 -0.0958,0.19397 -0.28719,0.38793 -0.38292,0.5819 -0.0957,0.19396 -0.28719,0.38793 -0.38292,0.67888 -0.19146,0.19396 -0.28718,0.48491 -0.28718,0.67888 0,0.19397 -0.0958,0.38793 -0.0958,0.58189 0.0958,1.84268 -0.19146,2.61854 0.28719,3.29742 0,0 0.0958,0.097 0.0958,0.19397 v 0.19396 c 0,0.097 0,0.29095 -0.0958,0.38794 -0.38293,-0.19397 -0.86157,-0.67889 -1.34021,-1.06681 -0.38293,-0.29095 -0.67011,-0.58191 -0.76584,-0.87286 0,-0.097 -0.0957,-0.19395 -0.0957,-0.29094 v -0.38793 c 0,-0.38794 -0.19147,-0.38794 -0.28719,-0.87285 0,-0.19396 -0.0958,-0.5819 -0.0958,-1.26078 v -1.26077 c 0,-0.29096 0,-0.48491 0.0958,-0.5819 0,-0.097 0.0957,-0.097 0.0957,-0.19396 l 0.19146,-0.19397 c 2.68041,-3.10345 6.41386,-5.04311 9.57293,-7.07975 z m -22.11345,0.67888 c 2.87187,2.03664 6.12666,4.65518 9.38146,7.3707 0.0958,0.097 0.0958,0.19396 0.19146,0.29095 0.19145,0.29095 0.28719,0.58189 0.28719,1.06681 -0.19147,1.26078 -0.76584,2.42457 -1.24449,3.58837 0,0.097 -0.0957,0.097 -0.0957,0.097 l -0.0958,0.097 h -0.28719 c -0.57438,-0.77586 -1.14876,-1.45473 -1.72313,-2.2306 -0.19145,-0.19396 -0.38291,-0.48491 -0.38291,-0.77586 v -0.67888 -0.5819 c 0,-0.38793 -0.19146,-0.67888 -0.28719,-0.87284 -0.28719,-0.48491 -0.86156,-0.77586 -1.6274,-0.96983 -0.67011,-0.19397 -1.24448,-0.48491 -1.81885,-0.87285 -0.76584,-0.5819 -1.24448,-1.26077 -1.6274,-2.13362 -0.47864,-1.16379 -0.6701,-2.13362 -0.6701,-3.3944 z m 38.48313,28.319 c 0.76584,0 1.6274,0.097 2.39323,0.29094 0.76584,0.19396 1.6274,0.48492 2.29751,0.87284 0.19145,0.097 0.28719,0.38794 0,0.48492 -1.14876,0.29095 -2.29751,0.67888 -3.54198,1.16379 -0.57437,0.19397 -1.14876,0.48491 -1.72313,0.77586 -2.9676,1.35777 -6.03094,3.00647 -8.99855,4.5582 -0.28719,0.097 -0.57437,0.097 -0.6701,-0.097 0,-0.097 -0.0958,-0.097 -0.0958,-0.29095 -0.0958,-0.29095 -0.0958,-0.67888 0,-0.96983 0,-0.29095 0.0958,-0.67888 0.0958,-0.96983 0,-0.48491 0.28719,-0.48491 0.47865,-0.77586 0.57437,-0.19397 1.05302,-0.38793 1.43593,-0.5819 1.14875,-0.58189 1.6274,-0.96983 2.01031,-1.26077 0.28719,-0.29095 0.57438,-0.48492 0.86158,-0.77587 0.38291,-0.29094 0.86156,-0.58189 1.62738,-0.96983 0.47865,-0.19397 0.9573,-0.38792 1.34021,-0.58189 0.47865,-0.19397 0.9573,-0.38794 1.34021,-0.5819 0.47865,-0.097 0.86156,-0.19397 1.14875,-0.29094 z m -58.29908,0.67887 h 0.19146 c 0.19146,0.097 0.38291,0.19397 0.47865,0.19397 l 0.28719,0.29094 c 0.38291,0.29095 0.47864,0.67889 1.43593,1.06681 0.19146,0.097 0.47865,0.19397 0.86156,0.38794 0.28719,0.097 0.76584,0.19396 1.14875,0.38793 1.14876,0.38793 1.91458,0.58189 2.68042,0.87285 0.76584,0.29095 1.43595,0.67887 2.39323,1.26077 0.28719,0.19397 0.6701,0.48491 0.9573,0.77586 0.38291,0.29096 0.76583,0.5819 1.14875,0.96983 0.19145,0.19397 0.38291,0.29095 0.38291,0.48492 v 0.29094 c 0,0.097 -0.0957,0.19397 -0.0957,0.29095 -0.0958,0.19397 -0.28719,0.38794 -0.38293,0.48492 -0.0958,0 -0.0958,0.097 -0.19145,0.097 h -0.19146 c -0.28719,-0.097 -0.47865,-0.097 -0.76584,-0.19397 l -0.57437,-0.29095 c -0.19146,-0.097 -0.38291,-0.19397 -0.47865,-0.29095 -0.19145,-0.097 -0.28718,-0.29095 -0.38291,-0.38793 -0.28719,-0.29095 -0.57437,-0.48492 -0.86156,-0.77587 -0.19146,-0.097 -0.38292,-0.29094 -0.57438,-0.38792 -0.19146,-0.097 -0.47864,-0.29096 -0.76583,-0.38794 -0.28719,-0.097 -0.47865,-0.19397 -0.76584,-0.097 -0.0958,0 -0.19146,0 -0.19146,0.097 -0.28719,0.097 -0.57437,0 -0.86156,-0.097 -0.19145,-0.097 -0.47865,-0.097 -0.76584,-0.19397 -1.81884,-0.77586 -4.21208,-2.61853 -4.21208,-4.75215 0,0 0,-0.097 0.0957,-0.097 -0.0957,0 -0.0957,0 0,0 z m 3.9249,21.04527 c 0.47864,0 1.05302,0 1.53166,0.097 0.47865,0.097 1.05303,0.097 1.6274,0.19397 0.38292,0.097 0.86156,0.19396 1.24448,0.29095 0.0958,0 0.28719,0.097 0.38292,0.097 0.28718,0.097 0.47865,0.097 0.76583,0.19396 0.28719,0.097 0.6701,0.19397 0.9573,0.29095 0.47864,0.19397 0.95729,0.29095 1.3402,0.5819 l 1.14876,0.58189 c 0.38291,0.19397 0.76582,0.48492 1.14875,0.67888 0.28718,0.19397 0.6701,0.38794 0.95728,0.67889 0.19146,0.097 0.28719,0.19396 0.38293,0.29094 0.19145,0.19397 0.47863,0.38793 0.6701,0.5819 0.0958,0 0.0958,0.097 0.19146,0.097 l 0.0958,0.097 c 0.0958,0.097 0.19147,0.097 0.19147,0.19397 l 0.86156,0.87284 1.14875,1.16379 0.0958,0.097 c 0.28719,0.38792 0.6701,0.77586 0.95729,1.16378 0.19146,0.29095 0.38292,0.48492 0.57437,0.77587 0.19146,0.19397 0.28719,0.38793 0.47865,0.67888 0.38291,0.48492 0.6701,1.06681 0.95729,1.55173 0.0958,0.19396 0.19146,0.48491 0.19146,0.67888 0,0.097 0,0.097 -0.0957,0.19396 -0.28718,0.67888 -0.47864,1.26078 -0.67011,2.03664 0,0.097 -0.0957,0.19397 -0.19145,0.19397 h -0.0958 c -0.47864,-0.29095 -0.95729,-0.67889 -1.43594,-0.96983 -0.47865,-0.29095 -0.86156,-0.67888 -1.24447,-1.06681 -0.38293,-0.38793 -0.76584,-0.67889 -1.14876,-1.06681 -3.54198,-3.29742 -5.9352,-6.88579 -10.72167,-7.85561 -2.10605,-0.38794 -4.69073,-0.29096 -7.94552,0.58189 -1.05303,0.097 -2.2975,0.097 -3.54198,0 -1.24448,-0.097 -2.48896,-0.29094 -3.73345,-0.48491 -0.57437,-0.097 -1.14874,-0.19397 -1.72312,-0.38794 -0.57437,-0.097 -1.05302,-0.29094 -1.53166,-0.38792 -0.9573,-0.29095 -1.72313,-0.5819 -2.29751,-0.87285 2.48896,0 5.16938,0 7.56261,-0.097 2.39324,-0.097 4.30782,-0.29095 5.26511,-0.48492 0.28718,-0.19396 0.67011,-0.29095 1.14875,-0.38793 0.38292,-0.097 0.86156,-0.29094 1.24448,-0.38793 h 0.0957 c 0.38293,-0.097 0.86157,-0.19396 1.34021,-0.19396 h 0.19147 c 0.47864,-0.19397 1.05302,-0.19397 1.62739,-0.29096 z m 52.17241,4.07328 c -2.10604,0.097 -4.40354,0.96983 -6.98823,3.20044 -3.92489,3.87932 -7.17968,8.72845 -9.76438,13.38363 -0.28719,0.5819 -0.38291,1.06681 -0.28719,1.64871 2.87189,13.38363 4.11636,20.07544 4.69073,23.56683 l 1.91459,-1.55172 c -1.14875,-3.20044 -1.72312,-7.17674 -1.34021,-11.83191 1.34021,-3.58837 2.10604,-7.85561 2.68042,-11.83191 2.10604,-4.46121 2.29751,-6.30388 4.30781,-6.2069 1.81886,0.097 3.63771,0.19396 5.36084,-0.19396 0.6701,-0.097 1.14875,-0.38794 1.72313,-0.77586 2.87187,-1.7457 5.2651,-4.07329 7.27541,-6.69182 0.28719,-0.29095 0.38292,-0.87285 0.28719,-1.06681 -0.0957,-0.19397 -0.19145,-0.29096 -0.47864,-0.29096 -2.96761,0.19397 -5.93521,-1.55172 -9.38147,-1.35776 z m -0.95729,0.38794 c 0.57438,0 1.14875,0.097 1.6274,0.38793 1.05302,0.48491 1.91458,1.26077 2.2975,2.32758 0.19146,0.48492 0.38292,1.06681 0.38292,1.64872 0,0.58189 -0.0958,1.16379 -0.28719,1.6487 -0.19146,0.5819 -0.57437,1.06681 -0.95729,1.45475 -1.14875,1.16379 -2.96761,1.6487 -4.59501,0.96982 -0.28719,-0.097 -0.57437,-0.19396 -0.76582,-0.38793 -0.2872,-0.19396 -0.47865,-0.38793 -0.67011,-0.58189 -1.14875,-1.1638 -1.6274,-3.00647 -0.95729,-4.65518 l 0.28719,-0.5819 0.0958,-0.097 c 0.0957,-0.097 0.0957,-0.19397 0.19146,-0.19397 0.0958,-0.19397 0.28719,-0.29095 0.38292,-0.38792 l 0.0957,-0.097 c 0.19146,-0.19396 0.38292,-0.38793 0.57439,-0.48492 l 0.57437,-0.29095 h 0.0957 c 0.0957,0 0.0957,-0.097 0.19146,-0.097 0.19145,-0.097 0.47863,-0.19396 0.76582,-0.19396 0.0958,-0.38793 0.38292,-0.38793 0.67011,-0.38793 z m -47.76887,0 c 0.57437,0 1.05302,0.097 1.62739,0.29095 0.28719,0.097 0.57438,0.19397 0.76584,0.38792 0.28719,0.19397 0.47865,0.38794 0.67011,0.58191 0.19145,0.19396 0.38291,0.38792 0.57437,0.67887 0.28719,0.48492 0.57438,0.96983 0.6701,1.55173 0.19147,0.77586 0.0958,1.64871 -0.19146,2.52155 -0.0958,0.29095 -0.28718,0.48492 -0.38291,0.77587 -0.57437,0.96983 -1.6274,1.55172 -2.68042,1.84267 -0.57437,0.097 -1.05302,0.097 -1.6274,0 -0.28718,0 -0.57437,-0.097 -0.86156,-0.19397 -0.28719,-0.097 -0.57437,-0.29095 -0.76583,-0.38793 -0.47864,-0.29094 -0.86157,-0.67888 -1.14875,-1.16379 -0.76584,-1.16379 -0.95729,-2.61854 -0.47865,-3.9763 0.0958,-0.29094 0.28719,-0.48491 0.38292,-0.77586 0.0957,-0.19397 0.28719,-0.38794 0.47864,-0.58189 l 0.0958,-0.097 c 0.19146,-0.19396 0.38291,-0.38793 0.57437,-0.48492 l 0.57438,-0.29095 c 0.19146,-0.097 0.38291,-0.097 0.57437,-0.19395 0.19146,-0.097 0.38292,-0.097 0.57437,-0.19397 h 0.0958 c 0.0958,-0.19397 0.28719,-0.29095 0.47864,-0.29095 z m -13.59354,2.13362 h 0.38291 c 0.19146,0 0.38291,0.097 0.57437,0.19397 0.19147,0.097 0.47865,0.19396 0.76584,0.38792 0.28719,0.19397 0.47865,0.29095 0.86156,0.5819 l 0.0957,0.097 c 0.28718,0.19397 0.47865,0.38792 0.76583,0.58189 0.28719,0.19397 0.57438,0.48492 0.86156,0.67889 0.57438,0.48491 1.24449,0.96982 2.01032,1.55172 0.38292,0.29095 0.76584,0.48492 1.14875,0.77586 0.28719,0.19396 0.57438,0.38793 0.95729,0.5819 0.0958,0.097 0.28719,0.19397 0.38292,0.19397 l 1.14875,0.58189 c 0.38291,0.19397 0.76584,0.38793 1.24448,0.5819 0.0957,0.097 0.28719,0.097 0.38292,0.19396 0.38291,0.19397 0.86156,0.29095 1.34021,0.38793 0.57437,0.19397 1.05302,0.29096 1.62739,0.38794 0.57438,0.097 1.14875,0.19397 1.72313,0.19397 0.57437,0.097 1.24448,0.097 1.91458,0.097 0.0958,0 0.19146,0 0.28719,0.097 0.0958,0.097 0.0958,0.097 0.19146,0.29096 0,1.06681 -0.9573,1.45474 -1.91459,1.45474 h -1.81885 c -1.81885,-0.097 -3.54198,-0.19397 -5.36083,-0.48492 -0.19146,0 -0.38293,-0.097 -0.57438,-0.097 -0.19146,-0.097 -0.28719,-0.19397 -0.47865,-0.29094 -0.57437,-0.38794 -1.14874,-0.77587 -1.72313,-1.26078 l -1.72312,-1.45475 c -0.57438,-0.48491 -1.05302,-0.96982 -1.53166,-1.35776 -0.47865,-0.38792 -0.76584,-0.77586 -1.05302,-1.06681 -0.28719,-0.19396 -0.47865,-0.38793 -0.67011,-0.58189 -0.19146,-0.19397 -0.28719,-0.38794 -0.38292,-0.48492 -0.19146,-0.29094 -0.28718,-0.48491 -0.47865,-0.67888 -0.0958,-0.097 -0.0958,-0.19397 -0.19146,-0.29095 -0.19145,-0.29094 -0.6701,-0.48491 -1.53166,-0.96983 -0.0958,0 -0.19146,-0.097 -0.19146,-0.19396 v -0.097 c 0,0 0.0958,-0.097 0.0958,-0.19396 0.0958,-0.097 0.19146,-0.097 0.28719,-0.19396 0.0957,-0.097 0.19145,-0.097 0.28719,-0.097 0.0957,0 0.19145,-0.097 0.28719,-0.097 z"
     style="stroke-width:0.96354" />
</svg>
