<?xml version="1.0" encoding="UTF-8" standalone="no"?>
<svg
   id="Layer_1"
   viewBox="0 0 383.54603 383.6"
   width="2500"
   height="2500"
   version="1.1"
   sodipodi:docname="340.svg"
   inkscape:version="1.4 (86a8ad7, 2024-10-11)"
   xmlns:inkscape="http://www.inkscape.org/namespaces/inkscape"
   xmlns:sodipodi="http://sodipodi.sourceforge.net/DTD/sodipodi-0.dtd"
   xmlns="http://www.w3.org/2000/svg"
   xmlns:svg="http://www.w3.org/2000/svg"
   xmlns:rdf="http://www.w3.org/1999/02/22-rdf-syntax-ns#"
   xmlns:cc="http://creativecommons.org/ns#"
   xmlns:dc="http://purl.org/dc/elements/1.1/">
  <defs
     id="defs48" />
  <sodipodi:namedview
     id="namedview48"
     pagecolor="#505050"
     bordercolor="#eeeeee"
     borderopacity="1"
     inkscape:showpageshadow="0"
     inkscape:pageopacity="0"
     inkscape:pagecheckerboard="0"
     inkscape:deskcolor="#505050"
     inkscape:zoom="0.21863742"
     inkscape:cx="468.81271"
     inkscape:cy="1539.0778"
     inkscape:window-width="1920"
     inkscape:window-height="991"
     inkscape:window-x="-9"
     inkscape:window-y="-9"
     inkscape:window-maximized="1"
     inkscape:current-layer="Layer_1" />
  <style
     id="style1">.st0{fill:#211e1f}.st1{fill:none;stroke:#fff;stroke-width:2.356}.st2{fill:#fff}.st3{fill:#ed1a3b}.st4{fill:#00aeef}.st5{fill:none;stroke:#211e1f;stroke-width:1.441}.st6{fill:#ffc40d}.st7{fill:none;stroke:#ffc40d;stroke-width:.571}.st8{fill:#22b24c}.st9{fill:none;stroke:#211e1f;stroke-width:5.901}.st10{fill:#ffc20e}.st11,.st12,.st13{fill:none;stroke:#211e1f;stroke-width:4.704}.st12,.st13{stroke-width:2e-3}.st13{stroke-width:9.436}</style>
  <title
     id="title1">southampton</title>
  <path
     class="st0"
     d="m 303.33324,270.50447 c -26.86659,32.77335 -67.07254,53.59407 -112.16333,53.59407 -44.62109,0 -84.45128,-20.43515 -111.317877,-52.63015 l -31.751429,39.32803 c 35.790811,39.42442 86.799766,64.10082 143.351126,64.10082 56.92711,0 108.21788,-24.96558 143.91475,-64.77557 l -32.03324,-39.6172"
     id="path1"
     style="stroke-width:0.951578" />
  <path
     class="st1"
     d="m 303.33324,270.50447 c -26.86659,32.77335 -67.07254,53.59407 -112.16333,53.59407 -44.62109,0 -84.45128,-20.43515 -111.317877,-52.63015 l -31.751429,39.32803 c 35.790811,39.42442 86.799766,64.10082 143.351126,64.10082 56.92711,0 108.21788,-24.96558 143.91475,-64.77557 z"
     id="path2" />
  <path
     class="st0"
     d="m 278.15755,120.03622 v 174.46991 c 0,5.0124 -3.09999,9.44644 -7.51513,11.08511 l -78.90888,31.42386 -79.00281,-31.42386 c -4.3212,-1.63867 -7.51513,-6.07271 -7.51513,-11.08511 V 120.03622 h 172.94195"
     id="path3"
     style="stroke-width:0.951578" />
  <path
     class="st1"
     d="m 278.15755,120.03622 v 174.46991 c 0,5.0124 -3.09999,9.44644 -7.51513,11.08511 l -78.90888,31.42386 -79.00281,-31.42386 c -4.3212,-1.63867 -7.51513,-6.07271 -7.51513,-11.08511 V 120.03622 Z"
     id="path4" />
  <path
     class="st2"
     d="M 109.44286,254.69615 V 147.21882 H 274.02423 V 254.69615 H 109.44286"
     id="path5"
     style="stroke-width:0.951578" />
  <path
     class="st3"
     d="m 274.02423,244.67136 c -1.40909,2.4098 -4.97878,4.04847 -9.1121,4.04847 -4.13332,0 -7.79695,-1.63867 -9.20603,-4.04847 -1.40909,2.4098 -4.97878,4.04847 -9.20604,4.04847 -4.13332,0 -7.70301,-1.63867 -9.1121,-4.04847 -1.50302,2.4098 -4.97877,4.04847 -9.11209,4.04847 -4.22726,0 -7.70301,-1.63867 -9.1121,-4.04847 -1.40908,2.4098 -4.97877,4.04847 -9.11209,4.04847 -4.13333,0 -7.70301,-1.63867 -9.1121,-4.04847 -1.50303,2.4098 -5.07271,4.04847 -9.20604,4.04847 -4.13332,0 -7.703,-1.63867 -9.20603,-4.04847 -1.50303,2.4098 -4.97878,4.04847 -9.1121,4.04847 -4.13332,0 -7.70301,-1.63867 -9.20603,-4.04847 -1.40909,2.4098 -4.97878,4.04847 -9.20604,4.04847 -4.13332,0 -7.70301,-1.63867 -9.11209,-4.04847 -1.40909,2.4098 -4.97878,4.04847 -9.1121,4.04847 -4.22726,0 -7.70301,-1.63867 -9.20604,-4.04847 v 0.0964 c -1.40908,2.4098 -4.97877,3.95208 -9.11209,3.95208 -4.22726,0 -7.70301,-1.63867 -9.20604,-4.04847 v -0.19279 l 0.0939,47.52137 c 0,4.81961 3.00606,8.96447 7.13938,10.50675 l 75.24524,29.97798 75.15131,-29.97798 c 4.13333,-1.63867 7.13938,-5.68714 7.13938,-10.50675 v -47.52137 0.19279"
     id="path6"
     style="stroke-width:0.951578" />
  <path
     class="st4"
     d="m 274.02423,239.65896 c -1.40909,2.40981 -4.97878,4.04847 -9.1121,4.04847 -4.13332,0 -7.79695,-1.73506 -9.20603,-4.04847 -1.40909,2.31341 -4.97878,4.04847 -9.20604,4.04847 -4.13332,0 -7.70301,-1.73506 -9.1121,-4.04847 -1.50302,2.40981 -4.97877,4.04847 -9.11209,4.04847 -4.22726,0 -7.70301,-1.73506 -9.1121,-4.04847 -1.40908,2.31341 -4.97877,4.04847 -9.11209,4.04847 -4.13333,0 -7.70301,-1.73506 -9.1121,-4.04847 -1.50303,2.40981 -5.07271,4.04847 -9.20604,4.04847 -4.13332,0 -7.703,-1.73506 -9.20603,-4.04847 -1.50303,2.31341 -4.97878,4.04847 -9.1121,4.04847 -4.13332,0 -7.70301,-1.73506 -9.20603,-4.04847 -1.40909,2.40981 -4.97878,4.04847 -9.20604,4.04847 -4.13332,0 -7.70301,-1.73506 -9.11209,-4.04847 -1.40909,2.31341 -4.97878,4.04847 -9.1121,4.04847 -4.22726,0 -7.70301,-1.73506 -9.20604,-4.04847 v 0.0964 c -1.40908,2.40981 -4.97877,3.95208 -9.11209,3.95208 -4.22726,0 -7.70301,-1.73506 -9.20604,-4.04847 v -5.87993 c 1.40909,2.40981 4.97878,4.04848 9.20604,4.04848 4.13332,0 7.60907,-1.63867 9.11209,-4.04848 1.50303,2.40981 4.97878,4.04848 9.20604,4.04848 4.13332,0 7.70301,-1.73506 9.1121,-4.04848 1.40908,2.40981 4.97877,4.04848 9.11209,4.04848 4.13332,0 7.70301,-1.63867 9.20604,-4.04848 1.40908,2.40981 4.97877,4.04848 9.20603,4.04848 4.13332,0 7.70301,-1.73506 9.1121,-4.04848 1.40909,2.40981 4.97877,4.04848 9.20603,4.04848 4.13333,0 7.70301,-1.63867 9.20604,-4.04848 1.40909,2.40981 4.97877,4.04848 9.1121,4.04848 4.13332,0 7.70301,-1.73506 9.11209,-4.04848 1.40909,2.40981 4.97878,4.04848 9.1121,4.04848 4.13332,0 7.70301,-1.63867 9.11209,-4.04848 1.50303,2.40981 4.97878,4.04848 9.1121,4.04848 4.13332,0 7.70301,-1.73506 9.20604,-4.04848 1.40908,2.40981 4.97877,4.04848 9.20603,4.04848 4.13332,0 7.70301,-1.63867 9.1121,-4.04848 v 5.87993 m 0,-10.60314 c -1.40909,2.4098 -4.97878,4.04847 -9.1121,4.04847 -4.13332,0 -7.79695,-1.63867 -9.20603,-4.04847 -1.40909,2.31341 -4.97878,4.04847 -9.20604,4.04847 -4.13332,0 -7.70301,-1.63867 -9.1121,-4.04847 -1.50302,2.4098 -4.97877,4.04847 -9.11209,4.04847 -4.22726,0 -7.70301,-1.63867 -9.1121,-4.04847 -1.40908,2.31341 -4.97877,4.04847 -9.11209,4.04847 -4.13333,0 -7.70301,-1.63867 -9.1121,-4.04847 -1.50303,2.4098 -5.07271,4.04847 -9.20604,4.04847 -4.13332,0 -7.703,-1.63867 -9.20603,-4.04847 -1.50303,2.31341 -4.97878,4.04847 -9.1121,4.04847 -4.13332,0 -7.70301,-1.63867 -9.20603,-4.04847 -1.40909,2.4098 -4.97878,4.04847 -9.20604,4.04847 -4.13332,0 -7.70301,-1.63867 -9.11209,-4.04847 -1.40909,2.31341 -4.97878,4.04847 -9.1121,4.04847 -4.22726,0 -7.70301,-1.63867 -9.20604,-4.04847 v 0.0964 c -1.40908,2.4098 -4.97877,3.95208 -9.11209,3.95208 -4.22726,0 -7.70301,-1.63867 -9.20604,-4.04847 v -5.87993 c 1.40909,2.40981 4.97878,4.04847 9.20604,4.04847 4.13332,0 7.60907,-1.63866 9.11209,-4.04847 1.50303,2.40981 4.97878,4.04847 9.20604,4.04847 4.13332,0 7.70301,-1.73506 9.1121,-4.04847 1.40908,2.40981 4.97877,4.04847 9.11209,4.04847 4.13332,0 7.70301,-1.63866 9.20604,-4.04847 1.40908,2.40981 4.97877,4.04847 9.20603,4.04847 4.13332,0 7.70301,-1.73506 9.1121,-4.04847 1.40909,2.40981 4.97877,4.04847 9.1121,4.04847 4.13332,0 7.703,-1.63866 9.20603,-4.04847 1.40909,2.40981 4.97877,4.04847 9.1121,4.04847 4.13332,0 7.70301,-1.73506 9.11209,-4.04847 1.40909,2.40981 4.97878,4.04847 9.1121,4.04847 4.13332,0 7.70301,-1.63866 9.1121,-4.04847 1.50302,2.40981 4.97877,4.04847 9.11209,4.04847 4.13332,0 7.70301,-1.73506 9.20604,-4.04847 1.40908,2.40981 4.97877,4.04847 9.20603,4.04847 4.13332,0 7.70301,-1.63866 9.1121,-4.04847 v 5.87993"
     id="path7"
     style="stroke-width:0.951578" />
  <path
     class="st0"
     d="m 203.85169,298.74739 c 0,0 8.07877,12.91656 3.85151,9.25365 -3.09999,-2.69898 -7.32726,-9.06087 -10.42725,-14.26604 l -16.53328,6.65106 c 0,0 -9.48786,11.85624 -7.4212,6.65106 1.50303,-3.7593 6.19999,-9.9284 10.05149,-14.55522 l -11.36663,-14.07327 c 0,0 -13.99694,-5.59075 -8.45453,-5.10879 3.66363,0.28918 11.17876,3.08456 16.62723,5.30158 l 9.48785,-15.42276 c 0,0 0.84546,-15.32636 2.25454,-9.832 0.93939,3.75929 0.65758,11.95263 0.18788,18.02534 l 17.2848,4.33765 c 0,0 14.46663,-3.85569 9.76967,-0.86753 -3.28787,2.12063 -10.52118,4.33765 -16.34541,5.78353 l 1.03333,18.12174"
     id="path8"
     style="stroke-width:0.951578" />
  <path
     class="st5"
     d="m 203.85169,298.74739 c 0,0 8.07877,12.91656 3.85151,9.25365 -3.09999,-2.69898 -7.32726,-9.06087 -10.42725,-14.26604 l -16.53328,6.65106 c 0,0 -9.48786,11.85624 -7.4212,6.65106 1.50303,-3.7593 6.19999,-9.9284 10.05149,-14.55522 l -11.36663,-14.07327 c 0,0 -13.99694,-5.59075 -8.45453,-5.10879 3.66363,0.28918 11.17876,3.08456 16.62723,5.30158 l 9.48785,-15.42276 c 0,0 0.84546,-15.32636 2.25454,-9.832 0.93939,3.75929 0.65758,11.95263 0.18788,18.02534 l 17.2848,4.33765 c 0,0 14.46663,-3.85569 9.76967,-0.86753 -3.28787,2.12063 -10.52118,4.33765 -16.34541,5.78353 z"
     id="path9" />
  <path
     class="st2"
     d="m 190.60627,295.37366 c 0.0939,0.28918 0.28182,0.38557 0.4697,0.38557 0.18788,0 0.37576,-0.19278 0.4697,-0.38557 0.18787,-0.48196 0.37575,-1.44588 0.28181,-3.6629 0,0 0.0939,-7.22942 5.35453,0.57835 14.74845,21.88104 -6.29392,21.97743 -6.29392,21.97743 h 0.18788 c 0,0 -21.04237,-0.0964 -6.29392,-21.97743 5.26059,-7.80777 5.35453,-0.57835 5.35453,-0.57835 0.0939,2.12063 0.28182,3.18094 0.46969,3.6629"
     id="path10"
     style="stroke-width:0.951578" />
  <path
     class="st5"
     d="m 190.60627,295.37366 0.4697,0.38557 0.4697,-0.38557 c 0.18787,-0.48196 0.28181,-1.44588 0.28181,-3.6629 0,0 0.0939,-7.22942 5.35453,0.57835 14.74845,21.88104 -6.29392,21.97743 -6.29392,21.97743 h 0.18788 c 0,0 -21.04237,-0.0964 -6.29392,-21.97743 5.26059,-7.80777 5.35453,-0.57835 5.35453,-0.57835 0.18788,2.12063 0.28182,3.18094 0.46969,3.6629 z"
     id="path11" />
  <path
     class="st2"
     d="m 179.80327,286.60197 c -0.18787,0.19279 -0.28181,0.38557 -0.18787,0.57835 0.0939,0.19279 0.18787,0.38557 0.46969,0.38557 0.4697,0 1.50303,-0.0964 3.47575,-0.77113 0,0 6.76362,-2.12063 1.22121,5.39796 -15.68784,21.20629 -22.26358,0.77114 -22.26358,0.77114 v 0.0964 c 0,0 -6.38786,-20.62794 18.50601,-12.91656 8.83028,2.69898 2.1606,5.10879 2.1606,5.10879 -2.1606,0.48196 -3.00605,0.96392 -3.38181,1.34949"
     id="path12"
     style="stroke-width:0.951578" />
  <path
     class="st5"
     d="m 179.80327,286.60197 c -0.18787,0.19279 -0.18787,0.57835 -0.18787,0.57835 l 0.46969,0.38557 c 0,0 1.50303,-0.0964 3.47575,-0.77113 0,0 6.76362,-2.12063 1.22121,5.39796 -15.68784,21.20629 -22.26358,0.77114 -22.26358,0.77114 v 0.0964 c 0,0 -6.38786,-20.62794 18.50601,-12.91656 8.83028,2.69898 2.1606,5.10879 2.1606,5.10879 -2.1606,0.48196 -3.00605,0.96392 -3.38181,1.34949 z"
     id="path13" />
  <path
     class="st2"
     d="m 184.50023,273.20345 c -0.18788,-0.0964 -0.46969,-0.0964 -0.56363,0 -0.18788,0.0964 -0.18788,0.28918 -0.18788,0.57836 0.0939,0.48196 0.46969,1.44588 1.87878,3.18094 0,0 4.03938,5.87992 -4.69696,2.79537 -24.51811,-8.77169 -7.51513,-21.49546 -7.51513,-21.49546 l -0.0939,0.0964 c 0,0 17.09693,-12.53099 17.66056,14.07326 0.18788,9.44644 -4.03938,3.66291 -4.03938,3.66291 -1.22121,-1.92785 -1.97272,-2.60259 -2.44242,-2.89177"
     id="path14"
     style="stroke-width:0.951578" />
  <path
     class="st5"
     d="m 184.50023,273.20345 h -0.56363 l -0.18788,0.57836 c 0,0 0.46969,1.44588 1.87878,3.18094 0,0 4.03938,5.87992 -4.69696,2.79537 -24.51811,-8.77169 -7.51513,-21.49546 -7.51513,-21.49546 l -0.0939,0.0964 c 0,0 17.09693,-12.53099 17.66056,14.07326 0.18788,9.44644 -4.03938,3.66291 -4.03938,3.66291 -1.22121,-1.92785 -1.97272,-2.60259 -2.44242,-2.89177 z"
     id="path15" />
  <path
     class="st2"
     d="m 198.40322,273.78181 c 0,-0.19279 0,-0.48197 -0.18788,-0.57836 -0.18787,-0.0964 -0.37575,-0.0964 -0.65757,0.0964 -0.37576,0.19279 -1.12727,0.86753 -2.34848,2.69899 0,0 -4.22726,5.78353 -4.03938,-3.66291 0.56363,-26.60425 17.66056,-14.07326 17.66056,-14.07326 l -0.0939,-0.0964 c 0,0 16.90904,12.82016 -7.60907,21.59185 -8.6424,3.08455 -4.60302,-2.79537 -4.60302,-2.79537 1.31515,-1.73506 1.78484,-2.69898 1.87878,-3.18094"
     id="path16"
     style="stroke-width:0.951578" />
  <path
     class="st5"
     d="m 198.40322,273.78181 -0.18788,-0.57836 -0.65757,0.0964 c -0.37576,0.19279 -1.12727,0.86753 -2.34848,2.69899 0,0 -4.22726,5.78353 -4.03938,-3.66291 0.56363,-26.60425 17.66056,-14.07326 17.66056,-14.07326 l -0.0939,-0.0964 c 0,0 16.90904,12.82016 -7.60907,21.59185 -8.6424,3.08455 -4.60302,-2.79537 -4.60302,-2.79537 1.31515,-1.73506 1.87878,-3.18094 1.87878,-3.18094 z"
     id="path17" />
  <path
     class="st2"
     d="m 202.16079,287.4695 c 0.28182,0 0.46969,-0.19278 0.46969,-0.38557 0.0939,-0.19278 0,-0.38557 -0.18787,-0.57835 -0.37576,-0.38557 -1.22121,-0.86753 -3.28787,-1.44588 0,0 -6.66968,-2.40981 2.1606,-5.10879 24.89387,-7.71138 18.50601,12.91656 18.50601,12.91656 v -0.0964 c 0,0 -6.57574,20.43515 -22.26358,-0.77113 -5.63635,-7.5186 1.12727,-5.39797 1.12727,-5.39797 2.06666,0.86753 3.00605,0.96392 3.47575,0.86753"
     id="path18"
     style="stroke-width:0.951578" />
  <path
     class="st5"
     d="m 202.16079,287.4695 0.46969,-0.38557 c 0,0 0,-0.38557 -0.18787,-0.57835 -0.37576,-0.38557 -1.22121,-0.86753 -3.28787,-1.44588 0,0 -6.66968,-2.40981 2.1606,-5.10879 24.89387,-7.71138 18.50601,12.91656 18.50601,12.91656 v -0.0964 c 0,0 -6.57574,20.43515 -22.26358,-0.77113 -5.63635,-7.5186 1.12727,-5.39797 1.12727,-5.39797 2.06666,0.86753 3.47575,0.86753 3.47575,0.86753 z"
     id="path19" />
  <path
     class="st0"
     d="m 176.70328,262.98588 c 0,0 -1.59696,1.1567 -2.91211,1.54227 -1.40909,0.38557 -1.97272,1.44589 -2.1606,1.73506 0,0 -0.75151,1.83145 -1.31515,1.06032 -0.56363,-0.77114 0.56364,-2.12063 0.56364,-2.12063 0.18787,-0.28918 0.75151,-1.34949 2.1606,-1.83145 1.40908,-0.38557 2.91211,-1.54228 2.91211,-1.54228 0,0 1.50303,-1.2531 2.34848,-2.40981 0.84545,-1.1567 1.97272,-1.44588 2.25454,-1.54227 0,0 1.59696,-0.57835 2.1606,0.0964 0.56363,0.77114 -1.40909,0.86753 -1.40909,0.86753 -0.28182,0.0964 -1.50303,0.38557 -2.34848,1.54228 -0.75151,1.34949 -2.25454,2.60259 -2.25454,2.60259 m 28.74538,0 c 0,0 -1.50303,-1.15671 -2.34848,-2.40981 -0.84545,-1.15671 -1.97272,-1.44588 -2.25454,-1.54227 0,0 -1.97272,-0.0964 -1.40909,-0.86753 0.56364,-0.77114 2.1606,-0.0964 2.1606,-0.0964 0.28182,0 1.50303,0.28918 2.25454,1.54228 0.84546,1.15671 2.34848,2.4098 2.34848,2.4098 0,0 1.59697,1.06032 3.00605,1.54228 1.31515,0.48196 1.97273,1.44588 2.06666,1.73506 0,0 1.03334,1.44588 0.56364,2.21702 -0.56364,0.77114 -1.22121,-1.06031 -1.22121,-1.06031 -0.18788,-0.28918 -0.75151,-1.34949 -2.1606,-1.73506 -1.40909,-0.67475 -3.00605,-1.73506 -3.00605,-1.73506 m 8.92422,28.05013 c 0,0 0.65757,-1.83145 1.50302,-2.98816 0.93939,-1.1567 0.75152,-2.4098 0.75152,-2.69898 0,0 -0.4697,-1.92784 0.37575,-1.63867 0.84545,0.28918 0.84545,2.02424 0.84545,2.02424 0,0.28918 0.0939,1.54228 -0.65757,2.69898 -0.84545,1.15671 -1.50303,2.98816 -1.50303,2.98816 0,0 -0.46969,1.92785 -0.46969,3.37373 0,1.44588 -0.84545,2.40981 -0.93939,2.60259 0,0 -1.03333,1.44588 -1.78485,1.15671 -0.84545,-0.28918 0.65758,-1.63867 0.65758,-1.63867 0.18788,-0.28918 0.93939,-1.15671 0.93939,-2.60259 -0.18788,-1.34949 0.28182,-3.27734 0.28182,-3.27734 m -23.29691,17.3506 c 0,0 1.97272,0.0964 3.28787,0.57836 1.31515,0.48196 2.44242,0 2.72424,-0.0964 0,0 1.6909,-1.06031 1.59696,-0.0964 0,0.86753 -1.59696,1.44588 -1.59696,1.44588 -0.28182,0.0964 -1.40909,0.57836 -2.72424,0.0964 -1.31515,-0.48196 -3.28787,-0.57836 -3.28787,-0.57836 0,0 -1.97272,0.0964 -3.28787,0.57836 -1.31515,0.48196 -2.44242,0 -2.72423,-0.0964 0,0 -1.69091,-0.57835 -1.69091,-1.44588 0,-0.96392 1.69091,0.0964 1.69091,0.0964 0.37575,0.0964 1.40908,0.57836 2.72423,0.0964 1.31515,-0.48197 3.28787,-0.57836 3.28787,-0.57836 M 167.873,291.03602 c 0,0 0.56364,1.92785 0.56364,3.37373 0,1.44588 0.75151,2.31341 0.93939,2.60259 0,0 1.50303,1.34949 0.65757,1.63867 -0.84545,0.28917 -1.87878,-1.15671 -1.87878,-1.15671 -0.18788,-0.28917 -0.93939,-1.1567 -0.93939,-2.60259 0,-1.44588 -0.4697,-3.37373 -0.4697,-3.37373 0,0 -0.65757,-1.83145 -1.50302,-2.98815 -0.84545,-1.15671 -0.75152,-2.40981 -0.75152,-2.69899 0,0 0,-1.73506 0.84546,-2.02423 0.84545,-0.28918 0.37575,1.63866 0.37575,1.63866 0,0.28918 -0.0939,1.54228 0.75152,2.69899 0.75151,1.06031 1.40908,2.89176 1.40908,2.89176"
     id="path20"
     style="stroke-width:0.951578" />
  <path
     class="st6"
     d="m 190.98203,278.40863 c -2.63029,0 -4.69696,2.21702 -4.69696,4.91601 0,2.69898 2.1606,4.916 4.69696,4.916 2.6303,0 4.7909,-2.12063 4.7909,-4.916 0,-2.79538 -2.1606,-4.91601 -4.7909,-4.91601"
     id="path21"
     style="stroke-width:0.951578" />
  <path
     class="st7"
     d="m 190.98203,278.40863 c -2.63029,0 -4.69696,2.21702 -4.69696,4.91601 0,2.69898 2.1606,4.916 4.69696,4.916 2.6303,0 4.7909,-2.12063 4.7909,-4.916 0,-2.79538 -2.1606,-4.91601 -4.7909,-4.91601 z"
     id="path22" />
  <path
     class="st0"
     d="m 200.00019,190.11336 0.65757,13.10934 10.803,-7.22942 3.38181,5.68715 -12.77572,7.61498 v 2.69898 c 0,0 14.84238,8.57891 -3.28787,8.19334 v 0.0964 c -6.29392,5.39797 -12.30603,0.0964 -12.30603,0.0964 -18.13025,0.28917 -3.28787,-8.19334 -3.28787,-8.19334 v -2.79538 l -11.27269,-8.96447 2.72423,-5.97632 10.14543,8.86808 0.56363,-13.10934 14.65451,-0.0964"
     id="path23"
     style="stroke-width:0.951578" />
  <path
     class="st8"
     d="m 213.43348,201.39125 c 10.52119,12.3382 18.2242,-0.67475 18.2242,-0.67475 13.24542,-3.27733 5.35453,-12.91655 5.35453,-12.91655 13.80905,-9.25366 -2.44242,-16.57947 -2.44242,-16.57947 -0.0939,-12.3382 -10.3333,-11.47067 -10.3333,-11.47067 -10.70907,-9.63922 -20.94843,1.06031 -20.94843,1.06031 -16.06359,-13.68769 -28.27568,2.12063 -28.27568,2.12063 0,0 -10.23937,-7.32581 -14.84239,4.14487 0,0 -16.34541,-0.48196 -10.23936,16.48307 0,0 -12.58785,12.91656 3.8515,19.37483 0,0 8.73634,16.67586 20.76055,0.77114 0,0 7.42119,0.48196 6.19999,-10.21757 0,0 9.39391,4.04847 18.22419,-0.48196 0,0 2.81817,6.55467 8.92422,2.89176 0,0 -0.9394,4.24126 4.97877,5.10879 l 0.56363,0.38557"
     id="path24"
     style="stroke-width:0.951578" />
  <path
     class="st9"
     d="m 213.43348,201.39125 c 10.52119,12.3382 18.2242,-0.67475 18.2242,-0.67475 13.24542,-3.27733 5.35453,-12.91655 5.35453,-12.91655 13.80905,-9.25366 -2.44242,-16.57947 -2.44242,-16.57947 0,-12.3382 -10.3333,-11.47067 -10.3333,-11.47067 -10.70907,-9.63922 -20.94843,1.06031 -20.94843,1.06031 -16.06359,-13.68769 -28.27568,2.12063 -28.27568,2.12063 0,0 -10.23937,-7.32581 -14.84239,4.14487 0,0 -16.34541,-0.48196 -10.23936,16.48307 0,0 -12.58785,12.91656 3.8515,19.37483 0,0 8.73634,16.67586 20.76055,0.77114 0,0 7.42119,0.48196 6.19999,-10.21757 0,0 9.39391,4.04847 18.22419,-0.48196 0,0 2.81817,6.55467 8.92422,2.89176 0,0 -0.9394,4.24126 4.97877,5.10879 z"
     id="path25" />
  <path
     class="st10"
     d="m 72.994476,307.51908 0.751513,0.67475 c -2.724235,5.01239 -3.099992,8.57891 -1.221209,10.21757 1.315148,1.2531 3.099991,0.67475 4.790896,-1.1567 0.657574,-0.77114 1.127269,-1.73506 1.127269,-2.5062 0,-1.06032 -0.751513,-2.21702 -1.596965,-3.95208 -1.596965,-3.37373 -1.503026,-6.07271 1.315148,-9.54283 2.912113,-3.37373 6.669679,-4.53044 9.018157,-2.40981 1.033331,0.96392 1.596965,2.31342 1.690905,4.04848 l 1.878782,-0.57836 0.657574,0.57836 -5.730287,7.13302 -0.657574,-0.67475 c 2.254539,-4.81961 2.724235,-7.61498 1.033331,-9.15726 -1.315148,-1.1567 -3.006053,-0.77113 -4.509079,0.96393 -1.878783,2.21702 -0.751513,3.47012 0.657574,6.26549 0.751513,1.54228 1.315148,2.69898 1.03333,4.53043 -0.281817,1.63867 -1.221208,3.47012 -2.724235,5.30158 -3.099991,3.6629 -6.669678,4.72322 -9.206035,2.50619 -1.221209,-1.1567 -1.784844,-2.50619 -1.784844,-4.62682 l -2.254539,0.77114 -0.657574,-0.57836 6.387862,-7.80777 m 21.512062,2.40981 c 2.630296,-1.2531 4.790896,-1.2531 6.763622,0.0964 1.97272,1.44588 2.81817,3.47012 2.53635,6.55467 -0.18788,2.69898 -1.50302,5.78353 -3.56968,8.86809 -2.066666,3.08455 -4.133327,5.01239 -6.669684,6.26549 -2.724234,1.34949 -5.166652,1.34949 -6.951496,0 -1.878782,-1.34949 -2.724235,-3.47012 -2.442417,-6.65106 0.281817,-2.98816 1.315148,-5.68714 3.475748,-8.7717 2.066661,-2.89176 4.415139,-5.20518 6.857557,-6.36188 z m -6.951496,20.33876 c 2.066661,1.44588 5.072713,-0.96393 9.299974,-7.13303 4.227264,-6.26549 5.354534,-9.9284 3.287874,-11.47067 -1.972726,-1.44589 -4.978778,0.96392 -9.299978,7.13302 -4.133323,6.2655 -5.260592,10.02479 -3.28787,11.47068 z m 28.181738,-8.19334 -0.93939,-0.48196 c -0.75151,-0.38557 -1.12727,-0.0964 -1.78484,1.1567 l -5.82423,11.1815 c -2.06666,4.04847 -2.1606,6.45828 0.0939,7.61499 1.03333,0.48196 2.06666,0.48196 3.00605,0 1.50303,-0.86753 2.53636,-2.60259 3.94545,-5.39797 l 4.22726,-8.09694 c 1.22121,-2.40981 1.50303,-3.66291 -0.0939,-4.53044 l -0.0939,-0.0964 0.84545,-1.63867 4.97878,2.69898 -0.84546,1.54228 c -1.59696,-0.57835 -2.34847,0.28918 -3.56968,2.60259 l -4.3212,8.38612 c -1.22121,2.40981 -2.25454,4.24126 -3.66363,5.49436 -2.1606,1.92784 -4.3212,2.12063 -6.57574,0.77114 -3.56969,-1.92785 -4.03938,-5.39797 -1.50303,-10.41036 l 6.29393,-12.14542 c 0.65757,-1.2531 0.65757,-1.73506 -0.0939,-2.12063 l -0.93939,-0.48196 0.84545,-1.63867 6.85755,3.7593 -0.84545,1.83145 m 19.06965,8.77169 c -0.65758,-0.28918 -1.03333,0 -1.50303,1.2531 l -6.4818,16.86864 c -0.56363,1.2531 -0.56363,1.73506 0.28182,2.12063 l 0.93939,0.38556 -0.65757,1.73506 -7.23332,-2.98815 0.65757,-1.73506 0.9394,0.38556 c 0.84545,0.28918 1.12727,0 1.59696,-1.34949 l 6.57574,-16.86863 c 0.4697,-1.2531 0.4697,-1.73506 -0.18788,-2.02424 -1.50302,-0.67475 -3.75756,1.44588 -5.91816,6.07271 l -1.03333,-0.38557 3.75756,-8.77169 12.49391,5.10879 -3.09999,8.96447 -0.93939,-0.38557 c 1.50302,-4.62682 1.31514,-7.80777 -0.18788,-8.38612 m 10.803,26.31508 c 0.84545,0.28917 1.12727,-0.0964 1.40909,-1.44589 l 2.06666,-8.00055 -5.2606,-1.44589 -1.97272,7.90417 c -0.37575,1.34949 -0.28181,1.83145 0.4697,2.02423 l 1.03333,0.28918 -0.4697,1.73506 -7.51513,-2.02424 0.4697,-1.83145 1.03333,0.19279 c 0.84545,0.28917 1.12727,-0.0964 1.40909,-1.44589 l 4.50907,-17.2542 c 0.37576,-1.3495 0.37576,-1.83146 -0.46969,-2.12063 l -1.03333,-0.28918 0.46969,-1.73506 7.51513,2.12063 -0.46969,1.73506 -1.03333,-0.28918 c -0.84545,-0.28917 -1.12727,0.19279 -1.50303,1.54228 l -1.87878,7.22941 5.26059,1.44589 1.87878,-7.22942 c 0.37576,-1.34949 0.37576,-1.83145 -0.46969,-2.12063 l -0.93939,-0.28917 0.46969,-1.73506 7.51513,2.12062 -0.46969,1.73506 -1.03333,-0.28917 c -0.84546,-0.19279 -1.03333,0.19278 -1.40909,1.54227 l -4.50908,17.25421 c -0.37575,1.34949 -0.28182,1.83145 0.56364,2.02424 l 0.93939,0.28917 -0.4697,1.73506 -7.60907,-2.02423 0.4697,-1.83146 1.03333,0.48197 m 19.9151,4.04847 1.03333,0.0964 c 0.46969,0 0.56363,-0.19278 0.65757,-0.67474 v -0.96393 l -0.37576,-4.04847 -5.16665,-0.77114 -0.75151,1.73506 c -0.18788,0.57836 -0.37576,1.2531 -0.4697,1.73506 -0.28182,1.54228 0.28182,2.12063 1.78485,2.5062 l -0.28182,1.83145 -5.73029,-0.86753 0.28182,-1.83145 c 1.31515,-0.19278 2.1606,-1.54228 3.28787,-4.24126 l 7.51513,-18.21813 1.50302,0.19279 2.44242,22.94135 c 0.0939,1.06031 0.37576,1.54227 1.12727,1.63866 l -0.28182,1.83146 -6.76361,-1.06032 z m -3.00606,-8.48252 4.13332,0.67475 -0.84545,-8.77169 z m 18.13026,5.68714 c -0.0939,3.27734 0.28181,4.43405 2.25454,4.53044 v 1.83145 l -5.91817,-0.19278 v -1.83146 c 1.87878,-0.0964 2.1606,-1.25309 2.25454,-4.43404 l 0.37576,-15.13358 c 0,-1.34949 -0.0939,-1.83145 -0.9394,-1.92784 h -1.03333 l 0.0939,-1.83145 6.57574,0.19278 2.81818,15.13358 3.38181,-15.03719 6.4818,0.19279 -0.0939,1.83145 -1.03333,-0.0964 c -0.84546,0 -1.03333,0.48196 -1.03333,1.83145 l -0.37576,17.92895 c 0,1.44589 0.0939,1.83146 0.93939,1.83146 h 1.03333 l -0.0939,1.83145 -7.60907,-0.19279 0.0939,-1.83145 h 0.84545 c 0.84546,0 1.03333,-0.38557 1.12727,-1.83145 l 0.4697,-18.89288 -4.97878,22.45939 h -1.03333 l -4.22726,-22.55578 -0.37575,16.19389 m 27.71204,3.85569 1.31515,-0.0964 0.18788,1.83145 -8.07877,0.86753 -0.18788,-1.83145 1.12727,-0.0964 c 0.84546,-0.0964 0.93939,-0.48196 0.84546,-1.92785 l -1.69091,-17.83256 c -0.0939,-1.34949 -0.28182,-1.83145 -1.22121,-1.73506 l -1.12727,0.0964 -0.18788,-1.83146 8.92422,-0.86753 c 3.75757,-0.38557 5.82423,1.92785 6.29392,6.55467 0.4697,5.0124 -1.50302,7.42221 -6.10604,7.90417 -0.56363,0.0964 -1.31515,0.0964 -2.06666,0.19278 l 0.65757,7.13303 c 0.28182,1.34949 0.4697,1.63866 1.31515,1.63866 z m -1.97272,-10.79593 c 0.18788,0.0964 0.56363,0.0964 1.03333,0 2.72424,-0.28917 3.75757,-1.54227 3.38181,-5.68714 -0.37576,-4.04847 -1.40909,-5.30157 -3.85151,-5.01239 -1.31514,0.0964 -1.50302,0.38557 -1.40908,2.31341 z m 20.19691,-14.07326 c -0.75151,0.0964 -0.84545,0.57835 -0.56363,1.92784 l 3.56969,17.83257 c 0.28181,1.34949 0.56363,1.73506 1.40908,1.54227 l 1.03333,-0.19278 0.37576,1.83145 -7.60907,1.63867 -0.37576,-1.83146 1.03333,-0.19278 c 0.84546,-0.19278 0.9394,-0.67475 0.65758,-2.02424 l -3.56969,-17.73617 c -0.28182,-1.34949 -0.46969,-1.73506 -1.22121,-1.54227 -1.59696,0.38557 -2.34848,3.37373 -1.6909,8.38612 l -1.03333,0.19279 -1.59697,-9.35005 13.15148,-2.79537 2.25454,9.25365 -1.03333,0.19278 c -1.40909,-5.01239 -3.19393,-7.51859 -4.7909,-7.13302 m 9.5818,-0.96392 c 0.65757,-2.89177 1.97272,-4.62683 4.22726,-5.39797 2.25454,-0.77113 4.3212,-0.19278 6.57574,1.83146 1.97272,1.83145 3.56968,4.72322 4.79089,8.28973 1.12727,3.56651 1.40909,6.45828 0.84545,9.35004 -0.65757,3.08455 -2.06666,5.0124 -4.22726,5.68714 -2.1606,0.77114 -4.22726,0.0964 -6.57574,-2.02423 -2.1606,-2.02424 -3.56968,-4.43405 -4.69695,-8.09695 -1.22121,-3.47012 -1.50303,-6.84385 -0.93939,-9.63922 z m 11.64845,18.02534 c 2.34848,-0.77113 2.34848,-4.72322 0,-11.85624 -2.25454,-7.22942 -4.50908,-10.41036 -6.85756,-9.63922 -2.34848,0.77114 -2.34848,4.72322 0,11.85624 2.25454,7.22942 4.50908,10.41036 6.85756,9.63922 z m 12.30603,-5.01239 c 1.59696,-1.06032 1.40908,-2.21702 0.0939,-5.0124 l -6.19998,-13.78408 -0.65757,-0.48197 c -0.65758,-0.48196 -1.12727,-0.86753 -1.87878,-0.48196 l -0.18788,0.0964 -0.75152,-1.63867 4.69696,-2.21702 13.52724,10.89232 -3.85151,-8.57891 c -1.40909,-3.08455 -2.1606,-3.85569 -4.03938,-2.98816 l -0.75151,-1.73506 5.44847,-2.60259 0.75151,1.63867 c -1.50303,0.86753 -1.40909,2.02424 -0.0939,5.01239 l 7.98483,17.54339 -1.22121,0.57835 -16.72117,-13.49491 5.26059,11.66346 c 1.31515,2.89177 2.25454,3.7593 4.03939,2.98816 l 0.75151,1.63867 -5.35453,2.50619 -0.84545,-1.54227 m 30.90597,-34.31563 -0.84545,0.57835 c -3.56969,-3.95208 -5.82423,-4.72322 -8.36058,-2.89177 -1.03333,0.67475 -1.12727,0.96393 -0.18788,2.40981 l 4.13332,6.1691 c 0.0939,0 0.18788,-0.0964 0.28182,-0.19278 1.50302,-1.06032 1.31515,-2.60259 -0.28182,-5.68714 l 0.84545,-0.57836 6.38786,9.54283 -0.84545,0.57836 c -2.1606,-2.69899 -3.56969,-3.37373 -5.07271,-2.31342 l -0.18788,0.19279 4.60302,6.94024 c 0.75151,1.1567 1.12727,1.44588 1.87878,0.86753 l 1.22121,-0.86753 1.03333,1.54227 -6.76362,4.72322 -1.03333,-1.54227 0.84545,-0.57836 c 0.75152,-0.48196 0.65758,-0.96392 -0.0939,-2.12063 l -9.86361,-14.74801 c -0.75151,-1.1567 -1.12726,-1.44588 -1.87878,-0.96392 l -0.84545,0.57836 -1.03333,-1.44589 10.99088,-7.71138 5.07271,7.5186 m 19.82116,5.20518 c -1.31515,1.1567 -3.00605,1.54227 -5.07271,1.1567 -3.00606,-0.67474 -6.19999,-2.79537 -9.1121,-6.26549 -2.25454,-2.69898 -3.66363,-5.49436 -4.3212,-8.28973 -0.65757,-3.08455 -0.0939,-5.30157 1.78484,-6.84385 1.12727,-0.96392 2.44242,-1.34949 4.13333,-1.06031 l -0.28182,-2.12063 0.65757,-0.57835 6.66968,7.51859 -0.75151,0.86753 c -4.3212,-3.7593 -7.42119,-4.91601 -9.1121,-3.47012 -2.06666,1.83145 -0.65757,5.30157 4.22726,11.0851 4.88484,5.87993 7.89089,7.80777 10.14543,5.78354 1.6909,-1.54228 1.31515,-4.53044 -1.22121,-8.86809 l 1.22121,-0.28917 c 3.38181,5.01239 3.66363,9.06086 1.03333,11.37428"
     id="path26"
     style="stroke-width:0.951578" />
  <path
     class="st2"
     d="m 48.100604,107.7944 3.851505,8.28973 -10.990879,3.08456 3.381809,7.03663 10.990879,-3.08455 3.381809,7.03663 -10.803001,2.98816 3.381809,6.94024 10.990879,-3.08455 3.475748,7.03663 -11.084818,2.98816 3.475748,6.94024 11.084818,-2.98816 4.884835,9.73561 c 2.066661,-0.57835 4.133322,-1.34949 6.106044,-2.12063 L 54.488466,105.96295 c -1.878783,0.86753 -4.039383,1.44588 -6.387862,1.83145 m 30.154463,2.98816 c -0.751513,-3.75929 7.515131,-8.19334 14.090871,-13.68769 l -8.73634,-18.025348 c -3.475748,1.927844 -7.327253,5.012396 -11.178757,9.446438 -1.033331,1.060314 -1.972722,2.217021 -2.818174,3.373727 l 8.6424,18.892873"
     id="path27"
     style="stroke-width:0.951578" />
  <path
     class="st3"
     d="m 97.888347,78.683953 c -2.1606,-2.988159 -7.60907,-3.373727 -14.372688,0.385569 l 8.73634,18.025348 c 6.199983,-5.10879 10.896941,-11.1815 5.636348,-18.410917 M 54.488466,105.96295 80.13385,158.49671 c 7.233313,-3.08455 13.151479,-7.4222 15.124201,-10.60314 l -11.084818,-24.09806 -5.44847,-11.95263 c -0.281818,-0.38557 -0.469696,-0.77114 -0.469696,-1.15671 l -8.6424,-18.892875 C 65.291466,97.38404 61.533901,102.8784 54.488466,105.96295 m -6.387862,1.83145 c -3.475748,0.57836 -7.515131,0.77114 -12.399966,0.38557 l 5.354531,10.98872 10.990879,-3.08456 -3.945444,-8.28973 m 7.327253,15.32637 -10.990879,3.08455 3.381809,6.94024 10.990879,-3.08455 -3.381809,-6.94024 m 6.857557,13.97687 -10.990879,3.08455 3.381809,6.94024 11.084818,-3.08455 -3.475748,-6.94024 m -4.227261,16.96503 4.039383,8.28973 c 3.851504,0.19278 7.984826,-0.48196 11.93027,-1.63867 l -4.884835,-9.73561 -11.084818,3.08455"
     id="path28"
     style="stroke-width:0.951578" />
  <path
     class="st2"
     d="m 92.158059,97.19126 4.884836,10.02479 c 3.475745,-2.98816 7.233315,-6.55467 11.178755,-9.9284 L 99.109556,80.515405 c 3.193934,6.554671 -1.221209,12.049025 -6.951497,16.675855"
     id="path29"
     style="stroke-width:0.951578" />
  <path
     class="st3"
     d="m 78.724763,111.84288 c 0.281817,0.38557 0.657574,0.67474 1.12727,1.06031 4.884835,3.56651 10.709061,-0.0964 17.190862,-5.68714 L 92.158059,97.19126 c -7.233313,6.07271 -16.439348,10.69954 -13.433296,14.65162"
     id="path30"
     style="stroke-width:0.951578" />
  <path
     class="st11"
     d="M 78.724763,111.84288 C 73.182354,104.61346 109.34892,94.68506 97.888347,78.683953 94.694416,74.153519 83.703537,75.50301 72.430841,88.51596 63.600562,98.44436 59.749057,110.3006 35.700638,108.17997 l 26.396898,54.17243 c 13.339357,0.67475 29.590828,-8.6753 33.160515,-14.36244 z M 108.22165,97.28765 c -11.272695,9.73562 -20.854487,21.1099 -28.369617,15.61554 -0.469696,-0.38557 -0.845453,-0.67474 -1.12727,-1.06031 -5.260592,-6.94024 27.899927,-16.38668 20.290853,-31.327475 z"
     id="path31" />
  <path
     class="st2"
     d="m 331.98468,107.7944 -3.94545,8.28973 10.89694,3.08456 -3.38181,7.03663 -10.99088,-3.08455 -3.38181,7.03663 10.99088,3.08455 -3.38181,6.94024 -10.99087,-3.08455 -3.47575,7.03663 10.99088,2.98816 -3.38181,6.94024 -11.08482,-2.98816 -4.88484,9.73561 c -2.06666,-0.57835 -4.13332,-1.34949 -6.10604,-2.12062 l 25.64538,-52.53376 c 1.97273,0.67474 4.03939,1.25309 6.48181,1.63866 m -30.15447,2.98816 c 0.75152,-3.75929 -7.51513,-8.19334 -14.09087,-13.68769 l 8.83028,-18.025348 c 3.47575,1.927844 7.32725,5.012396 11.17876,9.446438 0.93939,1.060314 1.87878,2.217021 2.81817,3.373727 l -8.73634,18.892873"
     id="path32"
     style="stroke-width:0.951578" />
  <path
     class="st3"
     d="m 282.10299,78.683953 c 2.1606,-2.988159 7.60907,-3.373727 14.37269,0.385569 L 287.6454,97.09487 c -6.0121,-5.10879 -10.70906,-11.1815 -5.54241,-18.410917 m 43.49382,27.278997 -25.64538,52.53376 c -7.13937,-3.08455 -13.15148,-7.4222 -15.1242,-10.60314 l 16.53329,-36.14709 c 0.28181,-0.38556 0.46969,-0.77113 0.46969,-1.1567 l 8.6424,-18.892877 c 4.3212,5.687137 8.07877,11.181497 15.1242,14.266047 m 6.38787,1.83145 c 3.47574,0.57836 7.51513,0.77114 12.39996,0.38557 l -5.35453,10.98872 -10.89694,-3.08456 3.85151,-8.28973 m -7.32726,15.32637 10.99088,3.08455 -3.38181,6.94024 -10.99088,-3.08455 3.38181,-6.94024 m -6.85755,13.97687 10.99087,3.08455 -3.3818,6.94024 -10.99088,-2.98816 3.38181,-7.03663 m 4.13332,16.96503 -4.03939,8.28973 c -3.8515,0.19278 -7.98482,-0.48196 -11.93027,-1.63867 l 4.88484,-9.73561 11.08482,3.08455"
     id="path33"
     style="stroke-width:0.951578" />
  <path
     class="st2"
     d="m 287.83328,97.19126 -4.88483,10.02479 c -3.47575,-2.98816 -7.13938,-6.55467 -11.08482,-9.9284 l 9.11209,-16.772245 c -3.28787,6.554671 1.22121,12.049025 6.85756,16.675855"
     id="path34"
     style="stroke-width:0.951578" />
  <path
     class="st3"
     d="m 301.36052,111.84288 c -0.28182,0.38557 -0.65758,0.67474 -1.12727,1.06031 -4.97878,3.56651 -10.70906,-0.0964 -17.2848,-5.68714 l 4.88483,-10.02479 c 7.23331,6.07271 16.43935,10.69954 13.52724,14.65162"
     id="path35"
     style="stroke-width:0.951578" />
  <path
     class="st11"
     d="m 301.36052,111.84288 c 5.44847,-7.22942 -30.62416,-17.15782 -19.16359,-33.158927 3.28787,-4.530434 14.18481,-3.180943 25.55145,9.832007 8.73634,9.9284 12.58784,21.78464 36.63626,19.66401 L 317.8938,162.3524 c -13.33935,0.67475 -29.59082,-8.6753 -33.16051,-14.36244 z M 271.86363,97.28765 c 11.27269,9.73562 20.76055,21.1099 28.27568,15.61554 0.46969,-0.38557 0.84545,-0.67474 1.12727,-1.06031 5.26059,-6.94024 -27.89993,-16.38668 -20.29086,-31.327475 z"
     id="path36" />
  <path
     class="st2"
     d="m 223.01528,95.4562 c -2.34848,1.92784 -6.4818,4.81961 -11.08482,7.61498 v 37.49658 c 5.16665,-3.18095 10.42724,-6.65106 15.40602,-9.44644 V 92.37165 c -1.69091,1.15671 -3.19393,2.21702 -4.3212,3.08455 m 24.61205,-10.121184 -0.65757,0.09639 -5.2606,40.484734 0.65758,-0.0964 c 4.22726,0 8.26664,1.44588 11.93027,3.6629 l 11.64845,-36.72543 c -5.54241,-4.337656 -11.74239,-7.422207 -18.31813,-7.422207 m 52.60592,27.568177 c -4.88484,3.47012 -10.61513,0 -17.09693,-5.59075 L 267.91818,139.893 c 6.19999,5.49436 11.64846,10.02479 16.81511,8.00056 l 16.53329,-36.05069 c -0.18788,0.38557 -0.56364,0.77113 -1.03333,1.06031 m -220.381217,0 c -0.469696,-0.38557 -0.845453,-0.67474 -1.12727,-1.06031 l 16.533288,36.05069 c 5.166649,2.02423 10.709059,-2.5062 16.815109,-8.00056 L 96.855016,107.31243 c -6.4818,5.59075 -12.118148,9.15726 -17.002983,5.59075 m 110.190607,-0.0964 c -1.50303,0 -3.56969,-0.57835 -5.82423,-1.34949 v 37.68936 c 2.1606,0.77113 4.03939,1.25309 5.82423,1.25309 1.78484,0 3.75757,-0.48196 5.82423,-1.25309 v -37.68936 c -2.25454,0.86753 -4.3212,1.34949 -5.82423,1.34949 M 132.36401,85.335016 c -6.57574,0 -12.68178,3.084551 -18.41207,7.325814 l 11.64845,36.72543 c 3.66363,-2.12063 7.70301,-3.6629 11.93027,-3.6629 l 0.65758,0.0964 -5.16666,-40.484734 h -0.65757 m 24.61205,10.121184 c -1.12727,-0.86753 -2.53635,-2.02424 -4.3212,-3.180944 v 38.846064 c 4.97878,2.69898 10.23937,6.1691 15.31208,9.44644 v -37.49658 c -4.50908,-2.79537 -8.6424,-5.68714 -10.99088,-7.61498"
     id="path37"
     style="stroke-width:0.951578" />
  <path
     class="st3"
     d="m 168.06088,103.07118 v 37.49658 c 5.73029,3.56651 11.36664,6.94024 16.15753,8.57891 v -37.68936 c -4.79089,-1.73506 -10.803,-5.0124 -16.15753,-8.38613 m -35.0393,-17.736164 5.16666,40.484734 c 4.03938,0.19278 9.11209,2.31341 14.46662,5.30157 V 92.37165 c -4.88483,-3.277337 -12.02421,-6.843849 -19.63328,-7.036634 m -36.166564,21.977424 15.218144,32.58057 c 4.13332,-3.6629 8.54846,-7.71137 13.52723,-10.50675 L 113.95194,92.66083 c -6.19998,4.53043 -11.83633,10.21757 -17.096924,14.65161 m 99.011854,4.14487 v 37.68936 c 4.79089,-1.63867 10.42724,-5.0124 16.15753,-8.57891 v -37.49658 c -5.35453,3.37373 -11.36664,6.65107 -16.15753,8.38613 m 31.46961,-19.08566 v 38.84606 c 5.35453,-2.98816 10.3333,-5.10878 14.46662,-5.30157 l 5.2606,-40.484731 c -7.60907,0.09639 -14.74845,3.662904 -19.72722,6.940241 m 38.79686,0.28918 -11.64845,36.72543 c 4.88483,2.79538 9.39391,6.84385 13.52723,10.50675 l 15.21814,-32.58057 C 277.96967,102.8784 272.33332,97.19126 266.13334,92.66083"
     id="path38"
     style="stroke-width:0.951578" />
  <path
     class="st11"
     d="m 190.04264,150.30337 c 13.24542,0 38.51505,-24.58001 52.41804,-24.58001 18.50601,0 31.09385,26.50786 42.36655,22.17021 l 16.53329,-36.05069 c -0.28182,0.38557 -0.65758,0.67474 -1.12727,1.06031 -12.39997,8.96448 -30.06053,-27.664566 -52.60592,-27.664566 -10.52118,0 -20.29085,6.747456 -24.61205,10.121186 -6.4818,5.30157 -25.55145,17.3506 -32.97264,17.3506 -7.42119,0 -26.49084,-12.04903 -33.06658,-17.3506 -4.3212,-3.470123 -14.09087,-10.121186 -24.61205,-10.121186 -22.45145,0 -40.112011,36.629046 -52.511977,27.664566 -0.469696,-0.38557 -0.845453,-0.67474 -1.12727,-1.06031 l 16.533288,36.05069 c 11.272699,4.33765 23.860539,-22.17021 42.366549,-22.17021 13.90299,0 39.26656,24.58001 52.41804,24.58001 z"
     id="path39" />
  <path
     class="st0"
     d="m 190.60627,75.984971 c 34.09991,0 61.81196,-15.422755 61.81196,-34.31563 0,-18.989267 -27.61811,-34.31563 -61.81196,-34.31563 -34.0999,0 -61.81195,15.422755 -61.81195,34.31563 0,18.989267 27.71205,34.31563 61.81195,34.31563"
     id="path40"
     style="stroke-width:0.951578" />
  <path
     class="st1"
     d="m 190.60627,75.984971 c 34.09991,0 61.81196,-15.422755 61.81196,-34.31563 0,-18.989267 -27.61811,-34.31563 -61.81196,-34.31563 -34.0999,0 -61.81195,15.422755 -61.81195,34.31563 0,18.989267 27.71205,34.31563 61.81195,34.31563 z"
     id="path41" />
  <path
     class="st10"
     d="m 190.70021,70.394222 c 30.34234,0 54.9544,-12.916557 54.9544,-28.724881 -0.0939,-15.904716 -24.70599,-28.724882 -54.9544,-28.724882 -30.34234,0 -54.95439,12.820166 -54.95439,28.724882 0,15.904716 24.51811,28.724881 54.95439,28.724881"
     id="path42"
     style="stroke-width:0.951578" />
  <path
     class="st12"
     d="m 190.70021,70.394222 c 30.34234,0 54.9544,-12.916557 54.9544,-28.724881 -0.0939,-15.904716 -24.70599,-28.724882 -54.9544,-28.724882 -30.34234,0 -54.95439,12.820166 -54.95439,28.724882 0,15.904716 24.51811,28.724881 54.95439,28.724881 z"
     id="path43" />
  <path
     class="st2"
     d="m 190.70021,63.550375 c 24.706,0 44.71503,-8.193339 44.71503,-18.410914 0,-10.121183 -20.10297,-18.314522 -44.71503,-18.314522 -24.70599,0 -44.71503,8.193339 -44.71503,18.314522 0,10.217575 20.00904,18.410914 44.71503,18.410914"
     id="path44"
     style="stroke-width:0.951578" />
  <path
     class="st13"
     d="m 190.70021,63.550375 c 24.706,0 44.71503,-8.193339 44.71503,-18.410914 0,-10.121183 -20.10297,-18.314522 -44.71503,-18.314522 -24.70599,0 -44.71503,8.193339 -44.71503,18.314522 0,10.217575 20.00904,18.410914 44.71503,18.410914 z"
     id="path45" />
  <path
     class="st2"
     d="m 190.60627,32.126511 c -23.7666,0 -43.02412,19.760405 -43.02412,44.147637 0,24.387232 19.25752,44.147632 43.02412,44.147632 h -0.56363 c 23.7666,0 43.02412,-19.7604 43.02412,-44.147632 0,-24.387232 -19.25752,-44.147637 -43.02412,-44.147637 h 0.56363"
     id="path46"
     style="stroke-width:0.951578" />
  <path
     class="st11"
     d="m 190.60627,32.126511 c -23.7666,0 -43.02412,19.760405 -43.02412,44.147637 0,24.387232 19.25752,44.147632 43.02412,44.147632 h -0.56363 c 23.7666,0 43.02412,-19.7604 43.02412,-44.147632 0,-24.387232 -19.25752,-44.147637 -43.02412,-44.147637 z"
     id="path47" />
  <path
     class="st0"
     d="m 183.37296,112.8068 -8.83028,-15.42276 -16.25147,-2.69898 -4.03938,5.30157 c 0.18788,0.28918 0.28182,0.57836 0.46969,0.77114 l 0.65758,1.06032 c 5.44847,7.90416 13.24542,13.88048 22.45145,16.77224 l 1.69091,0.28918 3.8515,-6.07271 m -11.08482,-42.605362 6.9515,22.073818 h 21.98176 l 6.95149,-22.073818 -17.94237,-13.398519 -17.94238,13.398519 m 17.94238,-22.266603 13.43329,-8.964476 v -4.434042 c -4.22726,-1.445884 -8.6424,-2.313414 -13.33935,-2.313414 -4.60302,0 -9.1121,0.86753 -13.33936,2.313414 v 4.434042 l 13.24542,8.964476 m -24.79993,15.229971 0.46969,-17.543384 -3.47575,-2.795374 c -1.87878,1.638667 -3.56968,3.373727 -5.07271,5.205179 l -0.18788,0.192785 c -4.88483,6.169102 -8.1727,13.687695 -9.29997,21.881034 l 3.8515,1.73506 13.71512,-8.6753 m 40.67564,34.219234 -8.83028,15.42276 3.85151,6.07271 1.59696,-0.28918 c 9.29998,-2.89176 17.37874,-9.06087 22.73327,-17.15781 l 0.37576,-0.57836 c 0.18788,-0.28917 0.37576,-0.67474 0.56364,-0.96392 l -4.13333,-5.30157 -16.15753,2.79537 m 9.01816,-34.219234 13.62117,8.771692 3.85151,-1.73506 c -1.12727,-8.289731 -4.41514,-15.808324 -9.39391,-21.977426 -1.50303,-1.927845 -3.28787,-3.662905 -5.07272,-5.301572 l -3.47575,2.795374 0.4697,17.446992"
     id="path48"
     style="stroke-width:0.951578" />
  <metadata
     id="metadata48">
    <rdf:RDF>
      <cc:Work
         rdf:about="">
        <dc:title>southampton</dc:title>
      </cc:Work>
    </rdf:RDF>
  </metadata>
</svg>
