<?xml version="1.0" encoding="UTF-8" standalone="no"?>
<svg
   id="svg2"
   viewBox="0 0 432.94849 433"
   width="2500"
   height="2500"
   version="1.1"
   sodipodi:docname="563.svg"
   inkscape:version="1.4 (86a8ad7, 2024-10-11)"
   xmlns:inkscape="http://www.inkscape.org/namespaces/inkscape"
   xmlns:sodipodi="http://sodipodi.sourceforge.net/DTD/sodipodi-0.dtd"
   xmlns:xlink="http://www.w3.org/1999/xlink"
   xmlns="http://www.w3.org/2000/svg"
   xmlns:svg="http://www.w3.org/2000/svg">
  <defs
     id="defs3" />
  <sodipodi:namedview
     id="namedview2"
     pagecolor="#505050"
     bordercolor="#eeeeee"
     borderopacity="1"
     inkscape:showpageshadow="0"
     inkscape:pageopacity="0"
     inkscape:pagecheckerboard="0"
     inkscape:deskcolor="#505050"
     inkscape:zoom="0.3092"
     inkscape:cx="1125.4851"
     inkscape:cy="1114.1656"
     inkscape:window-width="1920"
     inkscape:window-height="991"
     inkscape:window-x="-9"
     inkscape:window-y="-9"
     inkscape:window-maximized="1"
     inkscape:current-layer="g10" />
  <style
     id="style1">.st0{clip-path:url(#SVGID_2_)}.st1{fill:#2dafe5}.st2{fill:#7c2c3b}.st3{fill:#d6a93a}.st4{fill:#f8d742}.st5{fill:#cda938}.st6{fill:#fff}.st7{clip-path:url(#SVGID_4_)}</style>
  <g
     id="g10"
     transform="matrix(1.1918021,0,0,-1.2107712,-307.75053,717.93404)">
    <g
       id="g496"
       transform="translate(19.140566,-0.92528669)">
      <defs
         id="defs1">
        <path
           id="SVGID_1_"
           d="M -105.2,-105.2 H 947.2 V 947.2 H -105.2 Z" />
      </defs>
      <clipPath
         id="SVGID_2_">
        <use
           xlink:href="#SVGID_1_"
           overflow="visible"
           id="use1" />
      </clipPath>
      <g
         id="g498"
         class="st0"
         clip-path="url(#SVGID_2_)">
        <g
           id="g504"
           transform="translate(575.827,574.332)">
          <path
             id="path506"
             class="st1"
             d="m 0,0 c -46.8,7.1 -99,11.1 -154,11.1 -55,0 -107.2,-4 -154,-11.1 v -128.6 c 0,-108.6 63,-169.7 151.5,-202.2 l 2.5,-0.8 2.5,0.8 C -63,-298.2 0,-237.1 0,-128.5 Z m -154,-154.2 0.2,-0.2 z" />
        </g>
        <g
           id="g508"
           transform="translate(565.191,563.698)">
          <path
             id="path510"
             class="st2"
             d="m 0,0 c -43.6,6.6 -92.1,10.3 -143.4,10.3 -51.2,0 -99.8,-3.7 -143.4,-10.3 v -121.7 c 0,-101.1 58.7,-158 141,-188.2 l 2.3,-0.8 2.3,0.8 c 82.6,30.2 141.2,87 141.2,188.1 z" />
        </g>
        <g
           id="g512"
           transform="translate(492.596,308.753)">
          <path
             id="path514"
             class="st3"
             d="m 0,0 c 2.3,-2.3 5.9,0.1 9.6,3.9 3.7,3.7 6.1,7.4 3.9,9.6 l -142.2,138.6 c -2.3,2.3 -6.3,1.9 -9.1,-0.8 -2.7,-2.7 -3.1,-6.8 -0.8,-9.1 z" />
        </g>
        <g
           id="g516"
           transform="translate(368.324,462.946)">
          <path
             id="path518"
             class="st4"
             d="m 0,0 11.6,13.7 c 0,0 1.1,1.5 -0.6,3.5 -4.5,5.5 -13.5,13.4 -13.5,13.4 -1.3,1 -2.2,0.7 -3.6,-0.6 -7.1,-6.8 -25.2,-24.3 -26.3,-25.5 -1.4,-1.4 -2,-2.4 -1.6,-4.8 0.4,-2.4 1.7,-6.5 -0.5,-10.4 L -46.7,-30 c -1.5,-2.4 -2,-4.4 -0.8,-5.6 0.6,-0.6 2.2,-1.3 5.3,0.9 1.5,1 18.2,12.3 23.5,16.6 3.1,2.6 5.5,4.9 5.5,4.9 l 10,9.9 c 0,0 2.1,2.1 3.2,3.3" />
        </g>
        <g
           id="g520"
           transform="translate(326.204,429.56)">
          <path
             id="path522"
             class="st3"
             d="m 0,0 c -3.5,-2.4 -3.5,-2.7 -3,-2.6 0.8,0.2 1.7,0.6 2.9,1.4 1.5,1 18.2,12.3 23.5,16.6 2.2,1.8 4,3.5 4.9,4.3 C 25.6,19.1 22.1,17.8 20,16 17.1,13.7 5,3.4 0,0" />
        </g>
        <g
           id="g524"
           transform="translate(368.323,462.946)">
          <path
             id="path526"
             class="st3"
             d="m 0,0 11.6,13.7 c 0,0 0.7,0.9 0.1,2.3 0,0 -1,1.1 -4.3,-2.8 C 4.6,9.9 3.3,8.6 0.9,5.7 -0.9,3.5 -2.3,-0.1 -2.8,-2.9 c 0.7,0.7 2,2 2.8,2.9" />
        </g>
        <g
           id="g528"
           transform="translate(351.393,308.753)">
          <path
             id="path530"
             class="st3"
             d="m 0,0 c -2.3,-2.3 -5.9,0.1 -9.6,3.9 -3.7,3.7 -6.1,7.4 -3.9,9.6 l 142.2,138.6 c 2.3,2.3 6.3,1.9 9.1,-0.8 2.7,-2.7 3.1,-6.8 0.8,-9.1 z" />
        </g>
        <g
           id="g532"
           transform="translate(350.01,310.12)">
          <path
             id="path534"
             class="st4"
             d="m 0,0 132.7,136.3 c 2.3,2.3 1.9,6.3 -0.8,9.1 -1.4,1.4 -3.2,2.2 -4.9,2.3 L -12,12.2 C -14.3,10 -12.2,6.5 -8.7,3 -5.3,-0.2 -2.1,-2.1 0,0" />
        </g>
        <g
           id="g536"
           transform="translate(475.72,463)">
          <path
             id="path538"
             class="st4"
             d="m 0,0 -11.6,13.7 c 0,0 -1.1,1.5 0.6,3.5 4.5,5.5 13.5,13.4 13.5,13.4 1.3,1 2.2,0.7 3.6,-0.6 7.1,-6.8 25.2,-24.3 26.3,-25.5 1.4,-1.4 2,-2.4 1.6,-4.8 -0.4,-2.4 -1.7,-6.5 0.5,-10.4 L 46.7,-30 c 1.5,-2.4 2,-4.4 0.8,-5.6 -0.6,-0.6 -2.2,-1.3 -5.3,0.9 -1.5,1.1 -18.2,12.3 -23.5,16.7 -3.1,2.6 -5.5,4.9 -5.5,4.9 l -10,9.9 C 3.2,-3.3 1.1,-1.2 0,0" />
        </g>
        <g
           id="g540"
           transform="translate(517.84,429.615)">
          <path
             id="path542"
             class="st3"
             d="m 0,0 c 3.5,-2.4 3.5,-2.7 3,-2.6 -0.8,0.1 -1.7,0.5 -2.9,1.4 -1.5,1 -18.2,12.3 -23.5,16.6 -2.2,1.8 -4,3.5 -4.9,4.3 2.7,-0.6 6.2,-1.9 8.3,-3.7 C -17.1,13.7 -5,3.4 0,0" />
        </g>
        <g
           id="g544"
           transform="translate(475.72,463)">
          <path
             id="path546"
             class="st3"
             d="m 0,0 -11.6,13.7 c 0,0 -0.7,0.9 -0.1,2.3 0,0 1,1.1 4.3,-2.8 C -4.6,9.9 -3.2,8.6 -0.9,5.8 0.9,3.6 2.3,0 2.8,-2.8 2.1,-2.2 0.8,-0.9 0,0" />
        </g>
        <g
           id="g548"
           transform="translate(498.117,459.036)">
          <path
             id="path550"
             class="st3"
             d="m 0,0 c -1.1,-1.1 -2.9,-1.1 -4,0 l -6,6 c -1.1,1.1 -1.1,2.9 0,4 1.1,1.1 2.9,1.1 4,0 L 0,4 C 1.1,2.9 1.1,1.1 0,0" />
        </g>
        <g
           id="g552"
           transform="translate(488.993,464.995)">
          <path
             id="path554"
             class="st5"
             d="M 0,0 C -1.1,1.1 -1.1,2.9 0,4 0.4,4.4 1,4.7 1.6,4.8 0.7,4.9 -0.1,4.6 -0.8,4 -1.9,2.9 -1.9,1.1 -0.8,0 l 6,-6 C 5.9,-6.7 6.7,-6.9 7.6,-6.8 7,-6.7 6.4,-6.4 6,-6 Z" />
        </g>
        <g
           id="g556"
           transform="translate(491.613,462.808)">
          <path
             id="path558"
             class="st3"
             d="m 0,0 c -0.1,-0.1 -0.3,-0.1 -0.4,0 -0.1,0.1 -0.1,0.3 0,0.4 L 2.3,3.1 C 2.4,3.2 2.6,3.2 2.7,3.1 2.8,3 2.8,2.8 2.7,2.7 Z" />
        </g>
        <g
           id="g560"
           transform="translate(492.515,461.901)">
          <path
             id="path562"
             class="st3"
             d="m 0,0 c -0.1,-0.1 -0.3,-0.1 -0.4,0 -0.1,0.1 -0.1,0.3 0,0.4 0.1,0.1 0.3,0.1 0.4,0 C 0.1,0.3 0.1,0.1 0,0" />
        </g>
        <g
           id="g564"
           transform="translate(490.64,463.775)">
          <path
             id="path566"
             class="st3"
             d="m 0,0 c -0.1,-0.1 -0.3,-0.1 -0.4,0 -0.1,0.1 -0.1,0.3 0,0.4 0.1,0.1 0.3,0.1 0.4,0 C 0.1,0.3 0.1,0.1 0,0" />
        </g>
        <g
           id="g568"
           transform="translate(492.842,467.473)">
          <path
             id="path570"
             class="st3"
             d="M 0,0 -0.9,0.9 C -1,1 -1.2,1 -1.3,0.9 -1.4,0.8 -1.4,0.6 -1.3,0.5 l 0.1,-0.1 c 0.1,-0.1 0.1,-0.1 0,-0.2 l -2.4,-2.4 c -0.1,-0.1 -0.1,-0.3 0,-0.4 0.1,-0.1 0.3,-0.1 0.4,0 l 2.4,2.4 h 0.2 l 0.2,-0.2 c 0.1,-0.1 0.3,-0.1 0.4,0 0.1,0.1 0.1,0.3 0,0.4" />
        </g>
        <g
           id="g572"
           transform="translate(497.842,462.433)">
          <path
             id="path574"
             class="st3"
             d="M 0,0 C -0.1,0.1 -0.3,0.2 -0.4,0.1 L -2,-1.1 c -0.1,-0.1 -0.2,0 -0.2,0 -0.1,0.1 -0.1,0.1 0,0.2 l 0.3,0.6 c 0.1,0.1 0,0.2 0,0.3 C -2,0.1 -2.1,0.1 -2.2,0 L -3,-0.1 h -0.2 v 0.2 l 1.1,1.6 C -2,1.8 -2,2 -2.1,2.1 -2.2,2.2 -2.4,2.2 -2.5,2 l -2.3,-3.1 c -0.1,-0.1 -0.1,-0.3 0,-0.4 0.1,-0.1 0.2,-0.1 0.3,0 l 1.2,0.5 h 0.2 c 0.1,-0.1 0.1,-0.1 0,-0.2 l -0.5,-1.1 c -0.1,-0.1 0,-0.2 0,-0.3 0.1,-0.1 0.3,-0.1 0.4,0 l 3.1,2.3 c 0.2,0 0.2,0.2 0.1,0.3" />
        </g>
        <g
           id="g576"
           transform="translate(367.917,456.926)">
          <path
             id="path578"
             class="st4"
             d="M 0,0 C -1.7,0 -3.6,-0.7 -5.1,-2.2 -7.6,-4.7 -8,-8.5 -5.9,-10.6 l 56.9,-58.2 9.7,9.7 z" />
        </g>
        <g
           id="g580"
           transform="translate(506.08,322.239)">
          <path
             id="path582"
             class="st4"
             d="m 0,0 -71.7,69.8 c -1.1,-0.5 -2.2,-1.2 -3.1,-2.1 -3.7,-3.7 -4,-9.6 -0.9,-13.7 l 64.1,-65.7 c 2.1,-2.1 5.5,0.1 8.9,3.6 0.7,0.6 1.2,1.2 1.7,1.8 1.9,2.4 2.6,4.7 1,6.3" />
        </g>
        <g
           id="g584"
           transform="translate(491.482,462.94)">
          <path
             id="path586"
             class="st4"
             d="m 0,0 c -0.1,-0.1 -0.3,-0.1 -0.4,0 -0.1,0.1 -0.1,0.3 0,0.4 L 2.3,3.1 C 2.4,3.2 2.6,3.2 2.7,3.1 2.8,3 2.8,2.8 2.7,2.7 Z" />
        </g>
        <g
           id="g588"
           transform="translate(492.384,462.032)">
          <path
             id="path590"
             class="st4"
             d="m 0,0 c -0.1,-0.1 -0.3,-0.1 -0.4,0 -0.1,0.1 -0.1,0.3 0,0.4 0.1,0.1 0.3,0.1 0.4,0 C 0.1,0.3 0.1,0.1 0,0" />
        </g>
        <g
           id="g592"
           transform="translate(490.508,463.907)">
          <path
             id="path594"
             class="st4"
             d="m 0,0 c -0.1,-0.1 -0.3,-0.1 -0.4,0 -0.1,0.1 -0.1,0.3 0,0.4 0.1,0.1 0.3,0.1 0.4,0 C 0.1,0.3 0.1,0.1 0,0" />
        </g>
        <g
           id="g596"
           transform="translate(492.71,467.605)">
          <path
             id="path598"
             class="st4"
             d="M 0,0 -0.9,0.9 C -1,1 -1.2,1 -1.3,0.9 -1.4,0.8 -1.4,0.6 -1.3,0.5 l 0.1,-0.1 c 0.1,-0.1 0.1,-0.1 0,-0.2 l -2.4,-2.4 c -0.1,-0.1 -0.1,-0.3 0,-0.4 0.1,-0.1 0.3,-0.1 0.4,0 l 2.4,2.4 h 0.2 l 0.2,-0.2 c 0.1,-0.1 0.3,-0.1 0.4,0 0.1,0.1 0.1,0.3 0,0.4" />
        </g>
        <g
           id="g600"
           transform="translate(497.71,462.565)">
          <path
             id="path602"
             class="st4"
             d="M 0,0 C -0.1,0.1 -0.3,0.2 -0.4,0.1 L -2,-1.1 c -0.1,-0.1 -0.2,0 -0.2,0 -0.1,0 -0.1,0.1 0,0.2 l 0.3,0.6 c 0.1,0.1 0,0.2 0,0.3 C -2,0.1 -2.1,0.1 -2.2,0 L -3,-0.1 h -0.2 v 0.2 l 1.1,1.6 C -2,1.8 -2,2 -2.1,2.1 -2.2,2.2 -2.4,2.2 -2.5,2 l -2.3,-3.1 c -0.1,-0.1 -0.1,-0.3 0,-0.4 0.1,-0.1 0.2,-0.1 0.3,0 l 1.2,0.5 h 0.2 c 0.1,-0.1 0.1,-0.1 0,-0.2 l -0.5,-1.1 c -0.1,-0.1 0,-0.2 0,-0.3 0.1,-0.1 0.3,-0.1 0.4,0 l 3.1,2.3 c 0.2,0 0.2,0.2 0.1,0.3" />
        </g>
        <g
           id="g604"
           transform="translate(355.85,468.907)">
          <path
             id="path606"
             class="st3"
             d="m 0,0 c 1.1,-1.1 1.1,-2.9 0,-4 l -6,-6 c -1.1,-1.1 -2.9,-1.1 -4,0 -1.1,1.1 -1.1,2.9 0,4 l 6,6 c 1.1,1.1 2.9,1.1 4,0" />
        </g>
        <g
           id="g608"
           transform="translate(346.425,462.451)">
          <path
             id="path610"
             class="st5"
             d="M 0,0 6,6 C 7,7 8.6,7 9.7,6.2 L 9.4,6.5 c -1.1,1.1 -2.9,1.1 -4,0 l -6,-6 c -1.1,-1.1 -1.1,-2.9 0,-4 0.1,-0.1 0.2,-0.2 0.3,-0.2 C -1.1,-2.6 -1,-1 0,0" />
        </g>
        <g
           id="g612"
           transform="translate(351.947,461.972)">
          <path
             id="path614"
             class="st3"
             d="m 0,0 c 0.1,-0.1 0.1,-0.3 0,-0.4 -0.1,-0.1 -0.3,-0.1 -0.4,0 l -2.7,2.7 c -0.1,0.1 -0.1,0.3 0,0.4 0.1,0.1 0.3,0.1 0.4,0 z" />
        </g>
        <g
           id="g616"
           transform="translate(352.855,462.874)">
          <path
             id="path618"
             class="st3"
             d="m 0,0 c 0.1,-0.1 0.1,-0.3 0,-0.4 -0.1,-0.1 -0.3,-0.1 -0.4,0 -0.1,0.1 -0.1,0.3 0,0.4 0.1,0.1 0.3,0.1 0.4,0" />
        </g>
        <g
           id="g620"
           transform="translate(350.98,460.998)">
          <path
             id="path622"
             class="st3"
             d="m 0,0 c 0.1,-0.1 0.1,-0.3 0,-0.4 -0.1,-0.1 -0.3,-0.1 -0.4,0 -0.1,0.1 -0.1,0.3 0,0.4 0.1,0.1 0.3,0.1 0.4,0" />
        </g>
        <g
           id="g624"
           transform="translate(347.282,463.2)">
          <path
             id="path626"
             class="st3"
             d="M 0,0 -0.9,-0.9 C -1,-1 -1,-1.2 -0.9,-1.3 c 0.1,-0.1 0.3,-0.1 0.4,0 l 0.2,0.1 c 0.1,0.1 0.1,0.1 0.2,0 l 2.4,-2.4 c 0.1,-0.1 0.3,-0.1 0.4,0 0.1,0.1 0.1,0.3 0,0.4 l -2.4,2.4 v 0.2 l 0.2,0.1 c 0.1,0.1 0.1,0.3 0,0.4 C 0.3,0.1 0.1,0.1 0,0" />
        </g>
        <g
           id="g628"
           transform="translate(352.323,468.2)">
          <path
             id="path630"
             class="st3"
             d="M 0,0 C -0.1,-0.1 -0.2,-0.3 -0.1,-0.4 L 1.1,-2 V -2.2 C 1,-2.3 0.9,-2.3 0.9,-2.3 l -0.7,0.4 c -0.1,0 -0.2,0 -0.3,-0.1 -0.1,-0.1 -0.1,-0.2 0,-0.3 L 0.1,-3 v -0.2 h -0.2 l -1.6,1.1 C -1.8,-2 -2,-2 -2.1,-2.1 -2.2,-2.2 -2.2,-2.4 -2,-2.5 l 3.1,-2.3 c 0.1,-0.1 0.3,-0.1 0.4,0 0.1,0.1 0.1,0.2 0,0.3 L 1,-3.3 v 0.2 c 0.1,0.1 0.1,0.1 0.2,0 l 1.1,-0.5 c 0.1,-0.1 0.2,0 0.3,0 0.1,0.1 0.1,0.3 0,0.4 L 0.4,-0.1 C 0.3,0.1 0.1,0.1 0,0" />
        </g>
        <g
           id="g632"
           transform="translate(351.947,462.272)">
          <path
             id="path634"
             class="st4"
             d="m 0,0 c 0.1,-0.1 0.1,-0.3 0,-0.4 -0.1,-0.1 -0.3,-0.1 -0.4,0 l -2.7,2.7 c -0.1,0.1 -0.1,0.3 0,0.4 0.1,0.1 0.3,0.1 0.4,0 z" />
        </g>
        <g
           id="g636"
           transform="translate(352.855,463.174)">
          <path
             id="path638"
             class="st4"
             d="m 0,0 c 0.1,-0.1 0.1,-0.3 0,-0.4 -0.1,-0.1 -0.3,-0.1 -0.4,0 -0.1,0.1 -0.1,0.3 0,0.4 0.1,0.1 0.3,0.1 0.4,0" />
        </g>
        <g
           id="g640"
           transform="translate(350.98,461.3)">
          <path
             id="path642"
             class="st4"
             d="m 0,0 c 0.1,-0.1 0.1,-0.3 0,-0.4 -0.1,-0.1 -0.3,-0.1 -0.4,0 -0.1,0.1 -0.1,0.3 0,0.4 0.1,0.1 0.3,0.1 0.4,0" />
        </g>
        <g
           id="g644"
           transform="translate(347.282,463.501)">
          <path
             id="path646"
             class="st4"
             d="M 0,0 -0.9,-0.9 C -1,-1 -1,-1.2 -0.9,-1.3 c 0.1,-0.1 0.3,-0.1 0.4,0 l 0.2,0.1 c 0.1,0.1 0.1,0.1 0.2,0 l 2.4,-2.4 c 0.1,-0.1 0.3,-0.1 0.4,0 0.1,0.1 0.1,0.3 0,0.4 l -2.4,2.4 v 0.2 l 0.2,0.1 c 0.1,0.1 0.1,0.3 0,0.4 C 0.3,0.1 0.1,0.1 0,0" />
        </g>
        <g
           id="g648"
           transform="translate(352.323,468.501)">
          <path
             id="path650"
             class="st4"
             d="M 0,0 C -0.1,-0.1 -0.2,-0.3 -0.1,-0.4 L 1.1,-2 V -2.2 C 1,-2.3 0.9,-2.3 0.9,-2.3 l -0.7,0.4 c -0.1,0 -0.2,0 -0.3,-0.1 -0.1,-0.1 -0.1,-0.2 0,-0.3 L 0.1,-3 V -3.2 H -0.1 L -1.7,-2 C -1.8,-2 -2,-2 -2.1,-2.1 -2.2,-2.2 -2.2,-2.4 -2,-2.5 l 3.1,-2.3 c 0.1,-0.1 0.3,-0.1 0.4,0 0.1,0.1 0.1,0.2 0,0.3 L 1,-3.3 v 0.2 c 0.1,0.1 0.1,0.1 0.2,0 l 1.1,-0.5 c 0.1,-0.1 0.2,0 0.3,0 0.1,0.1 0.1,0.3 0,0.4 L 0.4,-0.1 C 0.3,0.1 0.1,0.1 0,0" />
        </g>
        <g
           id="g652"
           transform="translate(365.935,503.01)">
          <path
             id="path654"
             class="st6"
             d="m 0,0 c -5.4,-0.5 -10.5,3.1 -10.6,8.7 -0.2,5.2 -0.3,10.4 -0.5,15.6 2.4,0.2 3.7,0.3 6.1,0.5 0.1,-5.2 0.3,-10.4 0.4,-15.6 0.1,-2.6 1.8,-3.8 4.4,-3.7 0.4,0 0.5,0 0.9,0.1 C 3.3,5.7 5,7.2 4.9,9.8 4.8,15 4.7,20.2 4.5,25.4 c 2.4,0.1 3.7,0.2 6.1,0.3 L 10.9,10.1 C 11.1,4.5 6.4,0.3 0.9,0.1 0.5,0 0.4,0 0,0" />
        </g>
        <g
           id="g656"
           transform="translate(381.247,528.952)">
          <path
             id="path658"
             class="st6"
             d="m 0,0 c 2.8,0.1 4.3,0.2 7.1,0.3 3.2,-5.1 6.4,-10.3 9.5,-15.4 h 0.1 c -0.1,5.2 -0.1,10.5 -0.2,15.7 2.4,0.1 3.7,0.1 6.1,0.1 0.1,-8.2 0.1,-16.5 0.2,-24.7 -2.8,-0.1 -4.2,-0.1 -7,-0.2 -3.1,5.1 -6.3,10.3 -9.5,15.4 H 6.2 C 6.3,-14 6.4,-19.3 6.4,-24.5 4,-24.6 2.8,-24.7 0.4,-24.8 0.3,-16.5 0.2,-8.2 0,0" />
        </g>
        <g
           id="g660"
           transform="translate(408.366,529.791)">
          <path
             id="path662"
             class="st6"
             d="m 0,0 c 2.4,0 3.7,0.1 6.1,0.1 0,-8.2 0.1,-16.5 0.1,-24.7 -2.4,0 -3.6,0 -6,-0.1 C 0.1,-16.5 0.1,-8.2 0,0" />
        </g>
        <g
           id="g664"
           transform="translate(426.795,524.705)">
          <path
             id="path666"
             class="st6"
             d="M 0,0 H -7.9 V 5.2 C -0.6,5.2 6.7,5.1 14,5 v -5.2 c -3.1,0.1 -4.7,0.1 -7.9,0.1 0,-6.5 -0.1,-13 -0.1,-19.5 -2.4,0 -3.6,0 -6,0.1 V 0" />
        </g>
        <g
           id="g668"
           transform="translate(445.247,529.598)">
          <path
             id="path670"
             class="st6"
             d="m 0,0 c 5.5,-0.2 11,-0.4 16.6,-0.6 0,-2.1 -0.1,-3.1 -0.1,-5.2 -4.2,0.2 -6.3,0.3 -10.5,0.4 v -4.5 c 3.4,-0.1 5.1,-0.2 8.5,-0.3 0,-2.1 -0.1,-3.1 -0.1,-5.2 -3.4,0.2 -5.1,0.3 -8.5,0.4 0,-1.9 0,-2.8 -0.1,-4.7 4.3,-0.1 6.5,-0.2 10.8,-0.4 0,-2.1 -0.1,-3.1 -0.1,-5.2 -5.5,0.2 -11.1,0.4 -16.8,0.6 L 0,0" />
        </g>
        <g
           id="g672"
           transform="translate(466.456,528.812)">
          <path
             id="path674"
             class="st6"
             d="m 0,0 c 3.9,-0.2 5.9,-0.3 9.8,-0.6 7.1,-0.3 12.7,-6.1 12.5,-13.2 -0.2,-7 -6.2,-12.2 -13.1,-11.5 -3.9,0.2 -5.8,0.4 -9.7,0.6 0.2,8.2 0.3,16.5 0.5,24.7 m 9,-20 c 4.2,-0.3 6.8,2 6.9,6.8 0.1,4.7 -2.5,7.3 -6.6,7.6 C 8,-5.6 7.4,-5.6 6,-5.5 5.9,-10.3 5.8,-15.1 5.7,-19.8 7,-19.9 7.7,-20 9,-20" />
        </g>
        <g
           id="g676"
           transform="translate(303.636,557.69)">
          <path
             id="path678"
             class="st6"
             d="m 0,0 8,1 c 1.4,-7 2.9,-14 4.3,-21 h 0.1 c 1.6,7.3 3.2,14.7 4.8,22 2.7,0.3 4.1,0.4 6.9,0.7 1.6,-7 3.2,-14 4.8,-21.1 H 29 c 1.5,7.4 3,14.7 4.6,22 3.1,0.3 4.7,0.4 7.8,0.7 -2.6,-10.6 -5.2,-21.1 -7.8,-31.7 -3.7,-0.3 -5.5,-0.5 -9.2,-0.9 -1.3,5.9 -2.5,11.9 -3.8,17.8 H 20.5 C 19.2,-16.7 18,-22.9 16.7,-29.1 13,-29.5 11.1,-29.7 7.4,-30.1 5,-20.1 2.5,-10 0,0" />
        </g>
        <g
           id="g680"
           transform="translate(503.44,561.526)">
          <path
             id="path682"
             class="st6"
             d="m 0,0 c 3.4,-0.3 5.1,-0.4 8.5,-0.8 2.3,-6.7 4.5,-13.3 6.8,-20 h 0.1 c 2.2,6.2 4.5,12.4 6.8,18.6 3.4,-0.4 5.1,-0.6 8.4,-1 1.9,-10.6 3.7,-21.1 5.6,-31.7 -3.1,0.4 -4.7,0.6 -7.8,1 -0.9,6.9 -1.8,13.8 -2.8,20.7 h -0.1 c -2.2,-6.6 -4.4,-13.1 -6.7,-19.7 -2.7,0.3 -4.1,0.4 -6.9,0.7 -2.3,7 -4.5,14 -6.8,21 H 5 c -0.8,-6.7 -1.6,-13.4 -2.4,-20.2 -3.2,0.3 -4.8,0.4 -8,0.7 1.9,10.3 3.6,20.5 5.4,30.7" />
        </g>
        <g
           id="g684"
           transform="translate(348.102,562.142)">
          <path
             id="path686"
             class="st6"
             d="m 0,0 c 7,0.5 14,1 21,1.4 -0.2,-2.6 -0.2,-3.9 -0.4,-6.5 -4.3,-0.2 -8.7,-0.5 -13,-0.8 v -5.6 c 4.2,0.3 6.4,0.4 10.6,0.7 v -6.5 C 14,-17.5 11.8,-17.7 7.6,-18 v -5.9 c 4.5,0.3 9.1,0.6 13.6,0.8 v -6.5 C 14.1,-30 7.1,-30.5 0,-31 V 0" />
        </g>
        <g
           id="g688"
           transform="translate(404.768,558.24)">
          <path
             id="path690"
             class="st6"
             d="M 0,0 C -3.9,-0.1 -5.9,-0.1 -9.8,-0.2 V 6.3 C -0.7,6.5 8.3,6.6 17.4,6.6 V 0.1 H 7.6 v -24.5 c -3,0 -4.6,0 -7.6,-0.1 V 0" />
        </g>
        <g
           id="g692"
           transform="translate(434.82,564.812)">
          <path
             id="path694"
             class="st6"
             d="m 0,0 c 3,0 4.6,-0.1 7.6,-0.1 v -12.4 c 4.4,-0.1 8.8,-0.2 13.2,-0.4 v 12.4 c 3,-0.1 4.6,-0.2 7.6,-0.3 v -31 c -3,0.1 -4.6,0.2 -7.6,0.3 v 12.1 c -4.4,0.2 -8.8,0.3 -13.2,0.4 v -12.1 c -3,0 -4.6,0 -7.6,0.1 V 0" />
        </g>
        <g
           id="g696"
           transform="translate(485.974,538.267)">
          <path
             id="path698"
             class="st6"
             d="m 0,0 c -4.2,0.3 -6.3,0.4 -10.4,0.6 -0.7,-2.6 -1.1,-3.8 -1.9,-6.4 -3.1,0.2 -4.7,0.2 -7.8,0.4 3.1,10.2 6.3,20.4 9.4,30.6 4.1,-0.2 6.1,-0.4 10.2,-0.6 L 9.7,-7.2 C 6.6,-7 5,-6.9 1.9,-6.6 1.1,-4 0.8,-2.7 0,0 M -5.2,17.8 C -6.3,14.1 -7.5,10.4 -8.6,6.6 -5.8,6.4 -4.5,6.4 -1.7,6.2 -2.9,10.1 -4,13.9 -5.2,17.8" />
        </g>
        <g
           id="g700"
           transform="translate(383.433,564.702)">
          <path
             id="path702"
             class="st6"
             d="m 0,0 c -5.7,-0.2 -12.1,-3.7 -12.1,-10.1 -0.1,-9.7 14.5,-7.1 15.4,-12.4 0.2,-1.5 -1.4,-2.7 -3.5,-2.7 -3.9,0 -7,0.8 -10.2,2.4 -0.2,-2.7 -0.3,-4.1 -0.4,-6.5 3.3,-2.2 6.7,-2.7 10.4,-2.8 5.5,-0.1 12,3.6 12.1,10 0.1,9.6 -14.4,7.5 -15.4,12.5 -0.3,1.3 1.3,2.6 3.6,2.7 3.6,0.2 6.2,-0.7 8.1,-1.5 0.2,3.1 0.2,3.5 0.4,6.5 C 6.7,-0.9 4,0.1 0,0" />
        </g>
      </g>
    </g>
    <g
       id="g704"
       transform="translate(396.0686,307.49171)">
      <path
         id="path706"
         class="st6"
         d="m 0,0 3.7,-1.6 -5.2,-11.9 6.2,-2.7 -1.4,-3.2 -9.9,4.3 z" />
    </g>
    <g
       id="g708"
       transform="translate(19.140566,-0.92528669)">
      <defs
         id="defs2">
        <path
           id="SVGID_3_"
           d="M -105.2,-105.2 H 947.2 V 947.2 H -105.2 Z" />
      </defs>
      <clipPath
         id="SVGID_4_">
        <use
           xlink:href="#SVGID_3_"
           overflow="visible"
           id="use2" />
      </clipPath>
      <g
         id="g710"
         class="st7"
         clip-path="url(#SVGID_4_)">
        <g
           id="g716"
           transform="translate(395.172,301.907)">
          <path
             id="path718"
             class="st6"
             d="m 0,0 c 4.8,-1.3 7.3,-5.8 6.1,-10.4 -1.3,-4.7 -5.8,-7.3 -10.6,-6 -4.8,1.3 -7.3,5.9 -6,10.6 1.2,4.5 5.7,7.1 10.5,5.8 m -3.5,-12.9 c 2.4,-0.7 4.8,0.9 5.6,3.6 0.7,2.6 -0.7,5.1 -3,5.7 -2.4,0.7 -4.8,-0.8 -5.5,-3.4 -0.9,-2.6 0.5,-5.2 2.9,-5.9" />
        </g>
        <g
           id="g720"
           transform="translate(405.114,299.187)">
          <path
             id="path722"
             class="st6"
             d="m 0,0 4.1,-0.4 3.8,-8.1 c 0.5,-1.1 1.1,-2.9 1.1,-2.9 0,0 0,1.8 0.1,2.8 l 0.7,7.6 4,-0.4 -1.7,-16.4 -4,0.4 -3.7,8.1 c -0.6,1.2 -1.1,2.9 -1.1,2.9 0,0 0,-1.8 -0.1,-2.8 l -0.8,-7.6 -4,0.4 z" />
        </g>
        <g
           id="g724"
           transform="translate(421.804,297.733)">
          <path
             id="path726"
             class="st6"
             d="m 0,0 5.8,0.3 c 5.2,0.3 8.7,-2.6 8.9,-7.7 0.3,-5.2 -2.9,-8.4 -8,-8.7 l -5.8,-0.3 z m 6.4,-12.7 c 2.8,0.1 4.4,1.9 4.2,5.1 -0.2,3.1 -2,4.6 -4.7,4.5 l -1.7,-0.1 0.5,-9.5 c 0,-0.1 1.7,0 1.7,0 z" />
        </g>
        <g
           id="g728"
           transform="translate(445.19,300.64)">
          <path
             id="path730"
             class="st6"
             d="m 0,0 c 4.9,1.1 9.2,-1.8 10.2,-6.4 1,-4.7 -1.7,-9.2 -6.6,-10.3 -4.9,-1.1 -9.2,1.8 -10.3,6.6 -0.9,4.6 1.8,9 6.7,10.1 m 2.9,-13 c 2.4,0.5 3.9,3 3.3,5.8 -0.6,2.6 -3,4.2 -5.4,3.7 -2.4,-0.5 -3.9,-2.9 -3.3,-5.6 0.6,-2.8 3,-4.5 5.4,-3.9" />
        </g>
        <g
           id="g732"
           transform="translate(455.242,302.853)">
          <path
             id="path734"
             class="st6"
             d="m 0,0 3.8,1.5 7.1,-5.4 c 1,-0.8 2.3,-2.1 2.3,-2.1 0,0 -0.8,1.6 -1.2,2.5 l -2.8,7.2 3.7,1.5 6.2,-15.3 -3.8,-1.5 -7.1,5.4 c -1,0.8 -2.3,2.1 -2.3,2.1 0,0 0.8,-1.6 1.2,-2.5 l 2.9,-7.1 -3.7,-1.5 z" />
        </g>
      </g>
    </g>
  </g>
</svg>
