<?xml version="1.0" encoding="UTF-8" standalone="no"?>
<svg
   height="2500"
   viewBox="-31.526 0.396 453.93529 379"
   width="2500"
   version="1.1"
   id="svg40"
   sodipodi:docname="57.svg"
   inkscape:version="1.4 (86a8ad7, 2024-10-11)"
   xmlns:inkscape="http://www.inkscape.org/namespaces/inkscape"
   xmlns:sodipodi="http://sodipodi.sourceforge.net/DTD/sodipodi-0.dtd"
   xmlns="http://www.w3.org/2000/svg"
   xmlns:svg="http://www.w3.org/2000/svg">
  <sodipodi:namedview
     id="namedview1"
     pagecolor="#505050"
     bordercolor="#eeeeee"
     borderopacity="1"
     inkscape:showpageshadow="0"
     inkscape:pageopacity="0"
     inkscape:pagecheckerboard="0"
     inkscape:deskcolor="#505050"
     inkscape:zoom="0.3092"
     inkscape:cx="1330.8538"
     inkscape:cy="1136.8047"
     inkscape:window-width="1920"
     inkscape:window-height="991"
     inkscape:window-x="-9"
     inkscape:window-y="-9"
     inkscape:window-maximized="1"
     inkscape:current-layer="svg40" />
  <defs
     id="defs40" />
  <g
     stroke-miterlimit="282"
     stroke-width="0.793"
     id="g5"
     transform="matrix(1.1837821,0,0,1.1545774,2.5358407,-27.231515)">
    <path
       d="M 161.396,0.396 C 122.96,0.396 52.087,10.34 15.994,31.328 -31.526,199.803 33.101,314.37 161.396,379.396 289.692,314.37 354.319,199.236 306.798,31.329 270.669,10.34 199.831,0.396 161.396,0.396 Z"
       fill="#9c824a"
       stroke="#9c824a"
       id="path1" />
    <path
       d="m 161.396,11.228 c -37.761,0 -80.278,4.83 -135.962,27.558 C -16.018,185.847 32.071,303.717 161.396,367.96 290.721,303.717 338.774,185.846 297.322,38.786 241.638,16.058 199.157,11.228 161.396,11.228 Z"
       fill="#023474"
       stroke="#023474"
       id="path2" />
    <path
       d="m 161.219,11.086 c -37.584,0 -77.936,5.575 -114.349,19.355 -37.761,150.577 -9.901,260.526 114.562,337.413 z m 0.213,356.768 C 285.894,290.967 313.719,181.018 275.957,30.441 239.545,16.661 199.228,11.086 161.645,11.086 Z"
       fill="#ffffff"
       stroke="#ffffff"
       id="path3" />
    <path
       d="m 161.432,11.051 c -37.797,0 -76.055,5.717 -107.144,16.548 -39.11,157.822 -7.702,264.397 107.179,337.235 z"
       fill="#ef0107"
       stroke="#ef0107"
       id="path4" />
    <path
       d="m 161.503,11.051 c 37.796,0 76.055,5.717 107.179,16.548 39.11,157.822 7.701,264.397 -107.214,337.235 z"
       fill="#db0007"
       stroke="#db0007"
       id="path5" />
  </g>
  <path
     d="m 135.82734,260.49247 c -19.74548,13.2049 -35.45785,17.96061 -53.691629,22.67589 L 71.128907,266.48011 c 16.763537,-8.28179 34.114223,-19.80446 51.591603,-36.49157 1.47026,16.1941 9.19917,27.67406 13.10683,30.50393 z"
     fill="#ffffff"
     id="path6"
     style="stroke-width:1.16908" />
  <path
     d="m 133.1378,259.79626 c -18.73691,12.54563 -44.827481,21.28001 -74.697854,25.54387 l -6.091742,-9.01956 c 25.585082,-9.35093 50.288226,-23.29013 69.446596,-42.88907 2.89908,12.54563 7.30984,20.87013 11.343,26.36476 z"
     fill="#9c824a"
     id="path7"
     style="stroke-width:1.16908" />
  <path
     d="m 83.228343,183.16119 c 0,7.01174 -5.79698,12.67033 -12.981354,12.67033 -7.184374,0 -13.02397,-5.65859 -13.02397,-12.67033 0,-7.01175 5.839596,-12.66917 13.02397,-12.66917 7.184374,0 12.981354,5.65742 12.981354,12.66917 z"
     fill="#ffffff"
     id="path8"
     style="stroke-width:1.16908" />
  <path
     d="m 81.84095,158.19001 v 47.80987 h 38.60908 c 2.52025,-16.03245 11.84729,-33.04861 32.97898,-47.80987 z"
     fill="#ffffff"
     id="path9"
     style="stroke-width:1.16908" />
  <path
     d="m 83.39644,205.99988 c -8.613198,0.1224 -15.712339,-10.41543 -15.839004,-23.61803 -0.08406,-13.20375 6.806747,-24.0279 15.461376,-24.19184 h 0.294763"
     fill="#ffffff"
     id="path10"
     style="stroke-width:1.16908" />
  <path
     d="m 77.766371,183.16119 c 0,5.41265 -4.033143,9.75965 -8.990822,9.75965 -4.957681,0 -8.990826,-4.34583 -8.990826,-9.75965 0,-5.41266 4.033145,-9.75849 8.990826,-9.75849 4.957679,-0.001 8.990822,4.34583 8.990822,9.75849 z m 5.125778,-22.46922 v 42.96989 h 38.315491 c 3.02456,-14.26826 10.46108,-29.43941 29.02989,-42.96989 z"
     fill="#9c824a"
     id="path11"
     style="stroke-width:1.16908" />
  <path
     d="m 84.319791,203.66186 c -8.108908,0.1651 -14.746374,-9.34745 -14.871855,-21.19803 -0.08406,-11.84942 6.427937,-21.60907 14.535659,-21.77186 h 0.252147"
     fill="#9c824a"
     id="path12"
     style="stroke-width:1.16908" />
  <path
     d="m 266.90399,217.19351 c 0,39.89758 -33.10447,72.20612 -73.98283,72.20612 -40.83575,0 -73.98283,-32.30854 -73.98283,-72.20612 0,-39.89527 33.14708,-72.20611 73.98283,-72.20611 40.87836,0 73.98283,32.31084 73.98283,72.20611 z"
     fill="#ffffff"
     id="path13"
     style="stroke-width:1.16908" />
  <path
     d="m 263.04129,217.19351 c 0,37.80548 -31.38441,68.43296 -70.11896,68.43296 -38.69309,0 -70.07634,-30.62748 -70.07634,-68.43296 0,-37.76275 31.38325,-68.43295 70.07634,-68.43295 38.73455,-0.001 70.11896,30.62863 70.11896,68.43295 z"
     fill="#9c824a"
     id="path14"
     style="stroke-width:1.16908" />
  <path
     d="m 251.40236,217.19351 c 0,31.53151 -26.17461,57.07769 -58.4812,57.07769 -32.26518,0 -58.43859,-25.54618 -58.43859,-57.07769 0,-31.5315 26.17341,-57.07652 58.43859,-57.07652 32.30659,0 58.4812,25.54502 58.4812,57.07652 z"
     fill="#ffffff"
     id="path15"
     style="stroke-width:1.16908" />
  <path
     d="m 247.5385,217.19351 c 0,29.43942 -24.45221,53.26297 -54.61734,53.26297 -30.12253,0 -54.57353,-23.82355 -54.57353,-53.26297 0,-29.43941 24.451,-53.26181 54.57353,-53.26181 30.16513,-0.001 54.61734,23.8224 54.61734,53.26181 z"
     fill="#9c824a"
     id="path16"
     style="stroke-width:1.16908" />
  <path
     d="m 215.69119,217.19351 c 0.0426,12.26046 -10.1663,22.22446 -22.7286,22.26488 -12.60255,0 -22.81265,-9.96285 -22.81265,-22.22331 v -0.0414 c 0,-12.26046 10.16749,-22.2233 22.77002,-22.2233 12.56113,-0.0404 22.77006,9.92358 22.77006,22.1829 z"
     fill="#ffffff"
     id="path17"
     style="stroke-width:1.16908" />
  <path
     d="m 213.00402,217.19351 c 0,10.82647 -8.95059,19.60011 -20.04025,19.60011 -11.09085,0 -20.08168,-8.73207 -20.1243,-19.55738 v -0.0414 c 0,-10.82416 8.99083,-19.6001 20.08169,-19.6001 11.09085,0 20.08286,8.73439 20.08286,19.55856 z"
     fill="#9c824a"
     id="path18"
     style="stroke-width:1.16908" />
  <path
     d="m 203.25676,217.19351 c 0,5.53505 -4.62148,10.04483 -10.33443,10.08523 -5.6715,0 -10.29298,-4.50862 -10.29298,-10.08523 0,-5.57545 4.62148,-10.04482 10.29298,-10.08523 a 10.330865,10.075996 0 0 1 10.33443,10.08523 z"
     fill="#ffffff"
     id="path19"
     style="stroke-width:1.16908" />
  <path
     d="m 200.4003,217.19351 a 7.4696648,7.2853829 0 0 1 -7.47797,7.29809 7.4696648,7.2853829 0 0 1 -7.47794,-7.29809 c 0,-4.01678 3.36075,-7.29693 7.47794,-7.29693 a 7.4684811,7.2842284 0 0 1 7.47797,7.29693 z"
     fill="#9c824a"
     id="path20"
     style="stroke-width:1.16908" />
  <path
     d="m 185.06558,162.70092 h 15.54425 v 35.38434 h -15.54425 z"
     fill="#ffffff"
     id="path21"
     style="stroke-width:1.16908" />
  <path
     d="m 187.50181,157.61617 h 10.71203 v 44.98002 h -10.71203 z"
     fill="#9c824a"
     id="path22"
     style="stroke-width:1.16908" />
  <path
     d="m 236.23575,182.66819 8.48652,12.71074 -30.41609,19.27335 -8.44391,-12.71189 z"
     fill="#ffffff"
     id="path23"
     style="stroke-width:1.16908" />
  <path
     d="m 241.90843,181.89 5.8396,8.77478 -38.65167,24.51977 -5.8396,-8.81521 z"
     fill="#9c824a"
     id="path24"
     style="stroke-width:1.16908" />
  <path
     d="m 171.11707,220.06379 8.31845,12.79272 -30.62681,18.9443 -8.31844,-12.83428 z"
     fill="#ffffff"
     id="path25"
     style="stroke-width:1.16908" />
  <path
     d="m 176.32689,219.32602 5.75556,8.85676 -38.90263,24.06832 -5.75674,-8.85676 z"
     fill="#9c824a"
     id="path26"
     style="stroke-width:1.16908" />
  <path
     d="m 185.06558,237.49098 h 15.54425 v 35.38318 h -15.54425 z"
     fill="#ffffff"
     id="path27"
     style="stroke-width:1.16908" />
  <path
     d="m 187.50181,232.44779 h 10.71203 v 44.93846 h -10.71203 z"
     fill="#9c824a"
     id="path28"
     style="stroke-width:1.16908" />
  <path
     d="m 177.75572,233.71783 c 2.10122,1.72147 4.41079,3.28014 7.30986,4.46937 l -0.084,31.5719 c -14.66232,-1.845 -25.75317,-8.89717 -34.15565,-18.94198 l 26.97247,-17.09929"
     fill="#ef0107"
     stroke="#ef0107"
     stroke-miterlimit="282"
     stroke-width="0.363588"
     id="path29" />
  <path
     d="m 208.04515,233.84137 c -2.14264,1.68107 -4.41195,3.28015 -7.30985,4.42779 l 0.0415,31.57307 c 14.66233,-1.84501 25.75436,-8.89716 34.15685,-18.94315 l -26.92986,-17.05656"
     fill="#db0007"
     stroke="#db0007"
     stroke-miterlimit="282"
     stroke-width="0.363588"
     id="path30" />
  <path
     d="m 215.39763,220.59721 32.09706,-3.77316 c 0.25215,7.83034 -1.68096,14.71971 -4.41195,21.32157 L 215.3124,220.59721"
     fill="#db0007"
     id="path31"
     style="stroke-width:1.16908" />
  <path
     d="m 215.44025,220.47367 c 0.12548,-0.49185 0.084,-0.94214 0.29476,-2.37728 l 31.678,-4.01793 c 0.12549,1.43514 0.0415,1.9674 0,2.6232 z"
     fill="#ffffff"
     stroke="#ffffff"
     stroke-miterlimit="282"
     stroke-width="0.363588"
     id="path32" />
  <path
     d="m 262.3263,194.43796 h 41.55075 c -1.30334,4.79611 -2.56408,9.67534 -8.53034,11.84942 -9.53654,3.48682 -29.32346,6.8478 -29.32346,6.8478 -0.37881,-5.29027 -1.59691,-12.46713 -3.69695,-18.69722 z"
     fill="#ffffff"
     id="path33"
     style="stroke-width:1.16908" />
  <path
     d="m 233.38045,157.49378 108.55875,0.12239 -3.82243,38.70606 -74.15211,3.77315 c -3.99171,-17.30365 -17.47855,-33.82681 -30.58421,-42.6016 z"
     fill="#ffffff"
     id="path34"
     style="stroke-width:1.16908" />
  <path
     d="m 237.24432,160.24052 138.59839,0.1224 -5.29388,31.53266 -107.55132,5.16671 c -4.24386,-15.66414 -13.94733,-27.10369 -25.75319,-36.82177 z"
     fill="#9c824a"
     id="path35"
     style="stroke-width:1.16908" />
  <path
     d="m 262.3263,194.43796 h 38.27168 c -1.25955,4.26268 -2.14265,8.15823 -7.77153,10.08522 -8.94821,3.11621 -26.97129,5.57661 -26.97129,5.57661 -0.75645,-5.12401 -1.84907,-10.33232 -3.52886,-15.66183 z m -42.01242,-93.15938 c 0,1.72262 -0.37764,6.43791 -0.58716,7.74951 h 21.5105 c -1.30453,-5.57777 -1.89286,-13.326079 -2.05977,-19.312534 0,0.409864 -0.37764,-12.014461 -0.37764,-12.014461 0,-0.861311 0.37764,-2.172912 0.92335,-2.582786 0.75762,-0.861315 1.51406,-0.861315 2.4386,-0.861315 0.92335,-0.409875 2.60432,-0.409875 2.81385,2.993809 l 0.5469,12.874617 c 0.20953,6.026862 0.20953,14.18738 -0.5469,18.90267 h 20.71263 c -0.16929,-1.72263 -0.75645,-6.02804 -0.92453,-7.29923 2.60431,5.5766 8.23439,8.56926 15.71234,8.56926 4.45338,0 7.85558,-1.68221 10.46108,-3.40369 0,0.40987 1.09263,2.13366 1.09263,2.13366 h 38.48356 c -1.68097,-5.57777 -2.77359,-13.326079 -3.36074,-19.312534 l -5.42055,-42.069261 -19.7881,-3.444104 c 1.68216,5.576609 2.81622,13.736006 3.52886,19.312616 l 3.02456,27.062058 c 0.5469,4.715272 0.92571,9.881965 0.92571,15.457415 v 0.40987 l -0.75761,-1.72264 c -1.51169,-3.44408 -2.22669,-7.707919 -2.81503,-14.1458 l -0.71383,-8.610783 c -1.13405,-13.735983 -8.7801,-19.723621 -25.6277,-19.723621 -2.77242,0 -9.87274,0.409876 -14.19945,1.722631 l 1.13405,15.417048 4.496,-2.542357 c 3.73957,-2.172913 6.51199,-3.034229 9.87156,-3.034229 2.64813,0 4.32791,0.862469 5.08436,2.583938 -3.19149,0.450291 -6.72271,1.311603 -10.67063,2.992648 -5.96625,2.582776 -9.70583,6.477155 -11.38561,10.742134 v -0.409874 l -0.58834,-14.18737 c -0.33502,-9.020713 -6.3427,-15.007198 -15.5028,-15.007198 -4.07458,0 -7.81534,1.271191 -11.17492,3.444106 -0.20952,-0.451441 -0.37761,-0.862469 -0.58833,-1.312756 l -0.75643,-1.72263 -17.18379,-0.861314 c 0.75643,3.034231 1.89168,11.604657 2.05979,14.598476 -0.92571,-4.265008 -3.36194,-8.980301 -7.85796,-12.424406 -3.52766,-2.172915 -8.02366,-3.444104 -12.68658,-3.444104 -6.34507,0 -12.89849,2.582789 -17.18378,6.888209 -4.49482,4.263853 -6.72271,10.291903 -6.93223,17.139658 -1.67979,-1.722619 -3.90649,-3.403668 -6.51199,-4.263824 l -7.85676,-3.895533 h -0.37761 c -1.8479,-0.862469 -2.05862,-1.272344 -2.05862,-1.682218 0.21072,-0.861315 2.05862,-1.72263 4.49602,-1.72263 3.36075,0 8.02486,1.72263 11.76324,3.855133 l 0.37762,-13.736006 c -2.81504,-1.312755 -6.72151,-2.132504 -12.35157,-2.132504 -2.98314,0 -8.5706,0.409874 -13.44423,2.992665 a 50.999698,49.7415 0 0 0 -3.52885,2.583943 l 0.1681,-3.896699 c -4.49482,-0.819749 -9.32702,-0.819749 -15.29328,4.756859 -0.20953,-0.451439 -0.58834,-2.583943 -0.96597,-3.444103 l -18.48475,0.861315 c 1.30216,5.126322 1.51168,12.424406 1.13406,18.862292 l -0.37763,6.888172 v 0.861311 c -0.21071,3.444087 -0.37763,7.298045 -0.75643,10.742131 -1.51288,-4.756832 -3.15125,-11.193568 -4.49603,-16.318711 l -9.157735,-40.346657 -26.131988,3.85398 c 0.168097,0.409875 0.545725,1.722629 0.756437,2.992664 0.169281,1.72263 0.169281,5.166734 -2.268126,12.464818 -4.285291,11.564245 -10.251552,29.194551 -16.048533,41.617736 -0.756437,1.72263 -2.268127,4.30541 -2.268127,4.30541 h 20.375258 c 0.378809,-2.99381 1.68097,-8.15937 2.98313,-12.014482 2.815033,0 10.083456,0 13.44303,-0.451437 0.756436,3.034213 1.512872,6.888169 1.723586,9.470959 l 0.336194,2.99382 h 40.751714 c -0.92453,-6.43792 -0.54691,-15.008292 -0.20953,-19.763969 0.37762,-5.576591 1.51169,-9.43054 3.94909,-11.563035 1.84789,-2.172905 3.90649,-2.582781 5.41936,-2.582781 -0.20953,7.707914 4.8322,11.153156 9.32702,13.284505 l 8.02367,3.894358 c 2.81504,1.72263 2.81504,2.132494 2.81504,2.993815 -0.1681,1.271182 -2.4374,1.72261 -4.49482,1.72261 -4.28529,0 -10.08347,-2.583931 -16.42734,-9.430531 l -0.37764,17.999768 c 5.04174,2.58279 11.38562,3.85398 17.01569,3.85398 9.32701,0 19.24119,-4.26501 21.8467,-12.424373 4.66292,8.569233 13.82184,12.424373 22.81267,12.424373 8.02249,0.006 13.98757,-2.53661 19.24001,-8.15246 z M 79.993067,83.687539 c 1.134064,-2.99265 2.057413,-5.576581 3.738383,-10.29186 1.134063,4.715279 1.679788,7.709085 2.226695,9.881986 -2.226695,0.409874 -3.360757,0.409874 -5.965078,0.409874 z M 194.34998,78.972267 c 0,-5.986463 2.22669,-8.569251 4.45457,-8.569251 0.75643,0 2.43623,-0.451441 3.19148,2.582788 0.37763,1.27119 0.54573,2.132505 0.54573,2.542379 0,1.72262 -0.92336,2.172912 -2.05741,2.172912 v 0.409863 c 0,0 -3.15123,0.861309 -6.13437,2.172913 z m 21.29979,12.464754 c -3.95028,3.403669 -6.76413,5.57657 -11.42704,5.57657 -3.73838,-0.451427 -5.96627,-2.583921 -7.26842,-5.57657 3.90766,-1.311601 19.03167,-6.888171 23.35838,-8.610793 0,3.444087 0.16927,7.298046 0.16927,7.298046 v 7.299191 z m 69.6561,5.987599 c -3.52766,0 -4.28529,-2.58393 -4.45338,-4.264977 0.16809,-1.722622 0.71382,-4.305398 6.3427,-6.026862 a 110.18643,107.46806 0 0 0 0.37763,3.853958 v 1.721466 c 0.16927,1.311591 0.16927,2.582776 0.3362,3.853959 -0.71266,0.451427 -1.636,0.451427 -2.60315,0.862456"
     fill="#9c824a"
     id="path36"
     style="stroke-width:1.16908" />
  <path
     d="m 172.08304,63.514807 c -1.84789,-0.409876 -4.66292,-1.271191 -9.15774,-1.271191 -3.52885,0 -8.19296,0.861315 -11.76442,2.583945 -4.1172,2.58279 -7.10033,5.986482 -7.26843,9.882027 -0.37762,5.986458 2.81505,8.569233 7.47796,10.701726 3.15123,1.722612 6.17579,3.444087 8.02486,4.305388 2.43622,1.271182 4.66291,2.582785 4.49481,5.576591 -0.20952,2.993794 -3.02456,5.166697 -7.68748,5.166697 -3.90766,0 -9.4951,-2.582777 -13.44421,-6.028019 l -0.16809,9.020679 c 3.36075,1.72261 8.78011,2.58277 13.82184,2.58277 8.57058,0 19.24118,-3.85396 19.40929,-13.326058 0.20953,-7.298048 -5.04055,-9.881978 -8.19178,-11.563025 -3.19266,-1.311603 -6.38651,-3.033067 -7.85558,-3.444097 -1.51286,-0.861311 -4.496,-1.721466 -4.28529,-5.166722 0.3362,-2.992663 3.90767,-4.305419 7.64606,-4.305419 3.15123,0 6.34389,0.861315 8.7801,2.172917 M 95.326595,47.646295 75.497062,50.229084 c 0.378811,2.583945 -0.377626,7.709113 -2.436223,13.736008 -4.074578,11.563091 -10.797276,30.874452 -16.049717,42.068018 h 12.352766 c 0.71382,-3.89438 1.638354,-7.298043 3.528854,-12.013314 l 18.317844,-0.451437 c 0.71382,3.444086 2.058597,9.020671 2.226694,12.464751 h 16.63688 c -2.0586,-4.75568 -4.66294,-14.597245 -6.34273,-21.485405 z M 75.497062,86.681333 84.487888,61.382301 89.908426,86.27147 m 52.851154,-22.756663 -0.37764,8.610837 c -2.98313,-0.450286 -6.72152,0.409874 -9.70464,3.403693 -2.6055,2.582777 -4.28529,6.437891 -4.66291,13.326064 -0.37882,5.57657 -0.54691,12.014469 -0.21072,17.180019 h -13.99112 c 0.92453,-5.16555 1.30335,-11.153157 1.47026,-16.768989 l 0.37761,-6.847765 c 0.37765,-5.576581 0.37765,-11.153183 -0.5457,-16.318761 L 127.4663,65.69003 c 0.54691,1.722628 0.92453,4.715293 0.715,7.707958 5.41935,-8.161707 10.67061,-9.883181 14.57828,-9.883181 M 318.95843,50.229084 306.22804,48.056169 c 1.30335,5.618175 1.68097,9.472154 2.43741,15.047608 l 2.9843,27.021643 c 0.58716,5.576591 1.13408,10.74329 0.9648,15.90886 h 13.82302 c -1.34478,-5.16557 -1.89051,-10.332269 -2.43742,-15.90886 m -62.05148,15.90886 c -0.715,-5.16557 -1.09381,-10.332269 -1.30452,-15.90886 l -0.54573,-14.145801 c -0.37763,-7.74952 -4.87244,-12.013373 -12.35158,-12.013373 -4.07458,0 -8.94939,1.271189 -13.0654,6.43677 -0.1681,-1.311602 -0.75644,-4.715296 -1.51169,-6.43677 l -11.1749,-0.451439 c 0.92334,5.166732 1.30216,10.291901 1.46907,15.86849 l 0.2107,10.742123 c 0.16811,5.576591 0,10.74329 -0.37761,15.90886 h 13.98993 c -0.715,-5.16557 -1.09263,-10.332269 -1.30334,-15.90886 l -0.37763,-12.013306 c -0.1681,-4.305406 3.19266,-7.299224 6.55459,-7.299224 3.9065,0 5.79699,2.582789 5.96627,6.437913 l 0.58716,12.874617 c 0.16928,5.576591 0.16928,10.74329 -0.20953,15.90886 m 57.17786,0 c -1.67978,-4.30542 -2.60433,-9.470961 -2.98313,-15.047541 l -0.75763,-8.570385 c -0.75643,-10.291865 -5.20746,-17.180073 -22.43385,-17.180073 -2.98314,0 -7.26842,0.451439 -10.79609,1.27119 l 0.54572,7.749523 c 3.52768,-2.132505 7.10033,-3.853978 11.59515,-3.853978 4.66291,0 8.57058,2.132502 8.94939,8.569251 -4.49601,0.451438 -8.6132,1.271186 -13.27612,3.444087 -5.20863,2.132496 -10.62917,6.437891 -10.08344,13.284501 0.54572,7.749465 6.5534,11.193575 14.03254,11.193575 5.79699,0 9.70464,-2.58279 11.93134,-5.16557 0.37762,1.72146 0.96597,2.99265 1.51169,4.30542 z m -20.37645,-5.5766 c -4.11838,0 -7.47676,-2.172904 -7.64603,-6.888176 0,-4.715259 2.98312,-8.569208 12.51966,-9.881965 l 0.54691,7.2992 c 0.20954,2.582765 0.20954,4.305398 0.58715,6.437881 -1.3424,1.721477 -3.57028,2.58279 -6.00769,3.03306 M 210.39852,64.826406 c -3.19148,-2.172915 -6.93106,-3.034229 -10.83754,-3.034229 -9.15891,0 -21.30096,6.437922 -20.92334,22.756673 0.16809,16.72973 13.27612,21.8953 22.43504,21.8953 8.02368,0 12.89849,-2.99383 16.80379,-6.847784 l -2.81503,-3.895511 c -2.05742,1.72261 -5.41936,4.305385 -10.83871,4.305385 -5.79817,-0.409874 -9.49512,-4.305385 -11.55372,-10.291839 l 25.37555,-9.020657 c -0.75642,-8.158226 -3.73838,-12.87352 -7.64604,-15.867338 z m -8.78012,15.868483 -10.08345,3.853961 c -0.20953,-1.721466 -0.37763,-3.444086 -0.37763,-5.576583 0,-9.882007 5.58745,-11.60348 7.47676,-11.60348 2.98432,-0.409877 5.58865,1.311598 6.55343,4.755702 1.09382,3.85513 0.71618,7.299216 -3.56911,8.5704 m -59.78336,111.774501 8.52797,-12.67033 30.33322,19.35302 -8.52913,12.71075 z"
     fill="#ffffff"
     id="path37"
     style="stroke-width:1.16908" />
  <path
     d="m 139.02001,188.12241 5.88222,-8.77479 38.52499,24.64214 -5.88221,8.77595 z"
     fill="#9c824a"
     id="path38"
     style="stroke-width:1.16908" />
  <path
     d="m 206.57608,232.81611 8.52796,-12.71191 30.33206,19.3946 -8.52797,12.71189 z"
     fill="#ffffff"
     id="path39"
     style="stroke-width:1.16908" />
  <path
     d="m 203.75987,228.46912 5.88221,-8.77364 38.52618,24.64215 -5.88221,8.73437 z"
     fill="#9c824a"
     id="path40"
     style="stroke-width:1.16908" />
</svg>
