<?xml version="1.0" encoding="UTF-8" standalone="no"?>
<svg
   width="2500"
   height="2500"
   viewBox="0 0 662.83292 662.832"
   version="1.1"
   id="svg3"
   sodipodi:docname="73.svg"
   inkscape:version="1.4 (86a8ad7, 2024-10-11)"
   xmlns:inkscape="http://www.inkscape.org/namespaces/inkscape"
   xmlns:sodipodi="http://sodipodi.sourceforge.net/DTD/sodipodi-0.dtd"
   xmlns="http://www.w3.org/2000/svg"
   xmlns:svg="http://www.w3.org/2000/svg">
  <defs
     id="defs3" />
  <sodipodi:namedview
     id="namedview3"
     pagecolor="#505050"
     bordercolor="#eeeeee"
     borderopacity="1"
     inkscape:showpageshadow="0"
     inkscape:pageopacity="0"
     inkscape:pagecheckerboard="0"
     inkscape:deskcolor="#505050"
     inkscape:zoom="0.21863742"
     inkscape:cx="1653.4224"
     inkscape:cy="971.92879"
     inkscape:window-width="1920"
     inkscape:window-height="991"
     inkscape:window-x="-9"
     inkscape:window-y="-9"
     inkscape:window-maximized="1"
     inkscape:current-layer="svg3" />
  <path
     fill="#002156"
     d="m 270.18274,436.63894 c -1.73051,-0.42643 -3.2252,-1.48368 -4.37887,-3.06912 -5.85102,8.88638 -8.31808,16.83204 -6.16669,23.96279 9.00107,29.92527 35.81544,52.02327 67.92936,54.96659 -30.6925,-9.17961 -53.40702,-40.66718 -57.3838,-75.86026 m -6.28506,-17.68488 c -1.93343,-1.35696 -3.58971,-2.62697 -4.76781,-3.73418 a 78.481494,77.271791 0 0 0 -2.6634,23.43368 c 0.0658,1.64001 0.18508,3.2643 0.35042,4.87285 1.18749,-4.79514 3.52677,-9.80489 6.87881,-14.9136 -0.64824,-2.9905 -0.54489,-6.39077 0.20198,-9.65875 z m 1.51349,-4.56668 c 0.81077,-1.8139 1.82633,-3.48721 3.03543,-4.89782 0.97235,-1.12941 2.00859,-2.0248 3.10871,-2.69172 2.92081,-13.40125 9.0208,-25.34009 17.93731,-34.36336 -13.31324,9.31926 -23.51683,22.60767 -28.88121,38.02725 0.71213,0.96107 2.60515,2.40959 4.79976,3.92565 z m 115.1697,68.79982 c -6.64582,-0.72613 -15.53697,-2.45493 -19.41886,-3.77951 -4.33283,-1.47629 -8.18748,-5.03842 -10.30693,-9.54219 a 19.587023,19.285111 0 0 1 -1.79815,-7.33703 c -0.0714,-1.7954 0.10238,-3.77396 0.63696,-5.9153 -24.36611,-7.31668 -50.17524,-17.47861 -68.14262,-26.92553 a 19.180231,18.88459 0 0 1 -2.16641,3.14311 c -1.35096,1.57526 -2.86914,2.71762 -4.43149,3.36974 1.68729,14.71844 6.87881,29.14272 15.14521,41.70964 10.9655,16.66923 25.90027,28.09286 42.03286,31.69014 5.71948,1.26817 13.19486,2.85268 19.88389,1.39304 24.79826,-5.40564 45.01285,-22.2941 54.89327,-44.50958 -1.15744,0.20257 -2.45861,0.32005 -3.8556,0.3663 -5.65655,16.29924 -17.55588,16.87181 -22.47213,16.33717 z m 32.81383,-50.82264 c -0.35231,-8.58298 -2.111,-16.78024 -5.05248,-24.3855 -3.6179,-9.3276 -15.70513,-15.94128 -31.62822,-19.49324 -29.4383,-6.55262 -68.10692,4.27253 -92.71258,24.65282 0.9451,3.71847 0.66514,8.15102 -0.60409,12.19692 17.72969,9.38495 43.5144,19.54596 67.84199,26.83581 5.72514,-12.94431 16.68688,-15.41219 25.23606,-13.30969 a 265.51787,261.42522 0 0 0 12.93558,2.86377 l 3.16225,0.65768 c 4.06321,0.93608 7.6285,3.59358 9.76673,7.29724 1.51538,2.61772 2.90766,6.75704 1.95787,12.45684 2.98939,-0.1739 4.43618,-0.66693 4.77063,-1.05727 3.19138,-8.9613 4.74526,-18.65612 4.32626,-28.71538 z m -13.95114,29.76987 c 0.97987,-4.7748 -0.0789,-8.09921 -1.25889,-10.13141 -1.47591,-2.565 -3.92511,-4.40481 -6.69373,-5.04212 l -3.02979,-0.62714 a 275.31373,271.07008 0 0 1 -13.1432,-2.91187 c -8.34532,-2.0507 -15.50502,1.71123 -19.45737,10.10089 a 358.54801,353.0214 0 0 0 11.96885,3.21249 c 0.62851,-2.98772 0.76286,-5.06248 0.76286,-5.09855 a 2.3937711,2.3568738 0 0 1 2.52529,-2.20795 2.381558,2.3448489 0 0 1 2.24158,2.48452 c -0.007,0.16835 -0.16159,2.54558 -0.88593,5.93659 0.77225,0.17852 1.54638,0.35982 2.30641,0.52539 0.78163,0.17668 1.55201,0.34502 2.30828,0.50227 0.68017,-3.30592 1.11797,-6.11511 1.13018,-6.17339 a 2.3900132,2.3531738 0 0 1 4.72554,0.7067 c -0.0347,0.22569 -0.4782,3.04044 -1.1781,6.41388 1.60086,0.30709 3.11904,0.57627 4.55831,0.81861 0.52986,-2.85266 0.66045,-5.11981 0.66045,-5.16144 a 2.3871948,2.3503989 0 0 1 2.50275,-2.23292 2.3824974,2.3457739 0 0 1 2.26788,2.45862 c -0.008,0.19332 -0.13716,2.57425 -0.70461,5.63874 3.30976,0.44122 6.08871,0.68356 8.39324,0.78809 z m -44.25376,5.74881 c 1.86485,3.96728 5.11541,6.26033 7.53549,7.07987 3.14535,1.07299 11.46624,2.79439 18.37792,3.54086 7.58153,0.82601 13.50865,-3.32811 16.88793,-11.71962 -2.53751,-0.14245 -5.25352,-0.43566 -8.06441,-0.82046 -0.52705,1.68902 -1.19689,3.37251 -2.06309,4.86914 a 2.3875797,2.3507778 0 1 1 -4.14588,-2.33283 c 0.57214,-0.99159 1.04564,-2.11729 1.43833,-3.27723 -1.48154,-0.24975 -2.97436,-0.52539 -4.45027,-0.80567 -0.50637,1.94896 -1.08697,3.80263 -1.69668,5.18827 a 2.3928316,2.3559488 0 0 1 -3.14723,1.21359 2.3843764,2.3476238 0 0 1 -1.23258,-3.09317 c 0.49321,-1.11461 0.96483,-2.62512 1.39792,-4.26143 -0.77412,-0.16835 -1.54167,-0.33576 -2.30076,-0.50412 -0.80231,-0.17667 -1.62434,-0.36814 -2.44357,-0.56331 a 45.625389,44.922125 0 0 1 -1.55294,4.21702 c -0.50825,1.19416 -1.91745,1.75378 -3.13031,1.25059 -1.21286,-0.50319 -1.78594,-1.8842 -1.27204,-3.07837 a 38.645122,38.049452 0 0 0 1.30586,-3.49923 358.93789,353.40526 0 0 1 -12.35216,-3.32627 c -1.01275,4.33081 -0.13528,7.71442 0.90847,9.92237 z m -78.67785,-58.5944 c -1.05878,-0.18962 -3.15943,-0.17482 -5.25821,2.07198 -3.32479,3.54641 -4.88525,8.35358 -4.64474,14.27814 0.0667,1.51051 0.2809,2.35595 0.71493,3.57323 0.77507,2.15153 2.6371,3.57509 3.99745,3.81744 1.61683,0.29229 3.44222,-0.63732 5.14642,-2.62513 3.72312,-4.34837 5.32867,-12.32271 3.50235,-17.412 -0.75816,-2.12285 -1.98416,-3.43818 -3.4582,-3.70366 z"
     id="path1"
     style="stroke-width:0.932202" />
  <path
     fill="#ffffff"
     d="m 300.90531,22.85775 c -30.76579,0 -38.0589,15.531502 -38.0589,15.531502 0,0 35.49884,-2.526147 35.49884,31.993544 0,15.535203 -8.58676,26.065285 -17.6752,37.208624 -10.55871,12.94153 -22.52005,27.61095 -22.52005,52.21937 0,40.73562 26.5795,59.84591 50.02963,76.70478 20.42973,14.69068 39.72457,28.56368 39.72457,54.68631 0,26.26786 -11.7011,46.63151 -17.04199,51.8873 -8.95786,8.81978 -17.02979,10.42463 -23.50932,11.71407 -6.65615,1.32273 -12.9459,2.59459 -14.26586,12.00822 -24.63291,14.56488 -39.55546,40.50807 -39.55546,68.6555 0,1.09704 0.0235,2.20056 0.0676,3.30222 0.88498,21.39223 10.17822,41.16389 26.16519,55.67143 15.98603,14.50939 36.75584,22.01753 58.47829,21.14434 21.72525,-0.87042 41.80268,-10.02319 56.5411,-25.75912 14.73747,-15.73962 22.36315,-36.19022 21.47254,-57.57506 -1.34533,-32.65491 -22.39135,-60.95497 -53.61277,-72.09832 l 0.11931,0.0435 a 51.398436,50.606187 0 0 0 -0.42558,-0.16834 88.082883,86.725185 0 0 0 -0.7356,-0.25437 c -3.9486,-1.34216 -8.42799,-2.86747 -8.42799,-12.86476 0,-9.68926 4.46624,-10.49308 13.35833,-12.10071 5.28546,-0.95552 11.75183,-2.12285 18.09326,-5.93752 11.28774,-6.78295 13.4053,-14.96633 11.34974,-16.98651 -2.7968,-2.75646 -5.87921,3.03397 -17.24116,6.40371 -4.09421,1.21729 -8.21662,1.9249 -11.00214,1.9249 -2.3158,0 -4.04442,-0.19147 -5.31176,-0.4181 5.96657,-11.00552 12.6509,-20.01585 12.72512,-20.10927 l 1.45618,-1.95172 -1.74084,-1.71401 c -2.30828,-2.27178 -3.63669,-6.99848 -3.63669,-13.3365 0,-7.81987 2.01987,-18.08911 6.70782,-29.238 5.54663,-13.17463 27.55843,-56.17185 78.04652,-56.17185 h 2.86633 v -2.82122 c 0,-17.77183 -1.64971,-34.1164 -4.8984,-48.57954 l -0.6332,-2.81011 c 0,0 -4.90216,1.3699 -8.98417,2.26715 -0.48664,0.10545 -4.30559,1.02951 -4.47845,0.23586 -0.15408,-0.70113 2.79492,-2.15984 3.81425,-2.66304 3.83398,-1.87772 8.61306,-3.85351 8.61306,-3.85351 l -0.65856,-2.26159 c -3.60194,-12.37452 -7.22547,-18.2889 -7.38049,-18.53587 l -1.16964,-1.88513 -2.13354,0.66506 c -42.04318,13.04051 -51.03297,40.50993 -56.40486,56.91924 -2.61455,7.97435 -4.23138,12.48551 -7.15502,12.48551 -8.67788,0 -15.85638,-7.06599 -18.21633,-9.38864 -26.21217,-25.81091 -24.2064,-44.41893 -21.16063,-72.58949 1.07756,-9.940857 2.29606,-21.205382 2.29606,-34.071063 -0.004,-32.42644 -12.51844,-47.528747 -39.38918,-47.528747"
     id="path2"
     style="stroke-width:0.932202" />
  <path
     fill="#002156"
     d="m 350.77052,291.20096 c 0,26.16055 -11.33283,47.43439 -17.88094,53.88064 -20.29068,19.97979 -37.02735,5.43062 -37.20866,25.47515 -9.20776,8.21113 -15.83197,20.69294 -19.08254,34.94888 0.20199,0.0195 0.40304,0.049 0.60127,0.0851 1.90524,0.34133 3.5418,1.41431 4.79129,3.10704 25.77157,-20.67999 65.45104,-31.55417 95.77904,-24.80082 9.64272,2.14598 17.82081,5.65076 24.01474,11.01292 -9.31392,-14.83036 -23.55065,-26.2771 -40.38032,-32.21738 -3.99558,-1.41061 -11.09609,-3.02564 -11.09609,-15.78588 0,-23.81848 26.46488,-5.30019 43.9024,-31.24246 0.85304,-1.2811 -0.37485,-2.39942 -1.39888,-1.3921 -5.27324,5.18919 -18.2276,8.76058 -25.07916,8.76058 -6.85908,0 -9.43887,-1.53733 -9.43887,-1.53733 6.47578,-12.68717 14.54019,-23.48457 14.54019,-23.48457 -16.18708,-15.93757 11.05757,-103.5637 83.14502,-103.5637 0,-20.32664 -2.18144,-36.18097 -4.83168,-47.97089 -1.71548,0.41162 -15.29365,3.56398 -15.91464,0.75294 -0.54959,-2.491 10.0016,-7.89108 13.63454,-9.66799 -3.54275,-12.14974 -7.07139,-17.84398 -7.07139,-17.84398 -61.78804,19.16671 -49.37013,69.53426 -64.42139,69.53426 -9.79679,0 -17.49294,-7.50814 -20.24089,-10.21467 -36.90522,-36.33081 -19.70539,-60.37592 -19.70539,-108.655754 0,-32.523563 -12.82848,-44.703828 -36.52004,-44.703828 -23.6897,0 -32.15432,10.099963 -32.15432,10.099963 0,0 32.45965,1.035064 32.45965,34.603865 0,35.144054 -40.19619,44.844414 -40.19619,89.427074 -0.002,74.21655 89.75325,72.82259 89.75325,131.39294 M 307.9814,70.382796 c 0,-4.308602 -0.47067,-8.199109 -1.32466,-11.71037 0,0 7.06483,-0.363521 7.06483,-8.829026 0,-6.978122 -4.72836,-11.73627 -5.99571,-11.73627 -1.02308,0 -1.27673,1.069289 -3.49106,1.069289 -5.39539,0 -5.79091,-6.7885 -5.79091,-6.7885 0.79856,-0.02682 1.61965,-0.03885 2.46142,-0.03885 15.44866,0 29.7474,4.605523 29.7474,38.034651 0,12.362488 -1.18938,23.362465 -2.23782,33.06745 -1.03905,9.58474 -1.9992,18.50071 -1.72299,27.20672 0,0 -26.90174,-3.12184 -26.90174,-23.04888 0,-12.939685 8.19124,-16.08835 8.19124,-37.226216 z M 270.18274,436.63894 c -1.73051,-0.42643 -3.2252,-1.48368 -4.37887,-3.06912 -5.85102,8.88638 -8.31808,16.83204 -6.16669,23.96279 9.00107,29.92527 35.81544,52.02327 67.92936,54.96659 -30.6925,-9.17961 -53.40702,-40.66718 -57.3838,-75.86026 z m -6.28506,-17.68488 c -1.93343,-1.35696 -3.58971,-2.62697 -4.76781,-3.73418 a 78.481494,77.271791 0 0 0 -2.6634,23.43368 c 0.0658,1.64001 0.18508,3.2643 0.35042,4.87285 1.18749,-4.79514 3.52677,-9.80489 6.87881,-14.9136 -0.64824,-2.9905 -0.54489,-6.39077 0.20198,-9.65875 z m 1.51349,-4.56668 c 0.81077,-1.8139 1.82633,-3.48721 3.03543,-4.89782 0.97235,-1.12941 2.00859,-2.0248 3.10871,-2.69172 2.92081,-13.40125 9.0208,-25.34009 17.93731,-34.36336 -13.31324,9.31926 -23.51683,22.60767 -28.88121,38.02725 0.71213,0.96107 2.60515,2.40959 4.79976,3.92565 z m 115.1697,68.79982 c -6.64582,-0.72613 -15.53697,-2.45493 -19.41886,-3.77951 -4.33283,-1.47629 -8.18748,-5.03842 -10.30693,-9.54219 a 19.587023,19.285111 0 0 1 -1.79815,-7.33703 c -0.0714,-1.7954 0.10238,-3.77396 0.63696,-5.9153 -24.36611,-7.31668 -50.17524,-17.47861 -68.14262,-26.92553 a 19.180231,18.88459 0 0 1 -2.16641,3.14311 c -1.35096,1.57526 -2.86914,2.71762 -4.43149,3.36974 1.68729,14.71844 6.87881,29.14272 15.14521,41.70964 10.9655,16.66923 25.90027,28.09286 42.03286,31.69014 5.71948,1.26817 13.19486,2.85268 19.88389,1.39304 24.79826,-5.40564 45.01285,-22.2941 54.89327,-44.50958 -1.15744,0.20257 -2.45861,0.32005 -3.8556,0.3663 -5.65655,16.29924 -17.55588,16.87181 -22.47213,16.33717 z m 27.76135,-75.20814 c -3.6179,-9.3276 -15.70513,-15.94128 -31.62822,-19.49324 -29.4383,-6.55262 -68.10692,4.27253 -92.71258,24.65282 0.9451,3.71847 0.66514,8.15102 -0.60409,12.19692 17.72969,9.38495 43.5144,19.54596 67.84199,26.83581 5.72514,-12.94431 16.68688,-15.41219 25.23606,-13.30969 a 265.51787,261.42522 0 0 0 12.93558,2.86377 l 3.16225,0.65768 c 4.06321,0.93608 7.6285,3.59358 9.76673,7.29724 1.51538,2.61772 2.90766,6.75704 1.95787,12.45684 2.98939,-0.1739 4.43618,-0.66693 4.77063,-1.05727 3.19043,-8.9613 4.74526,-18.65334 4.32531,-28.7126 a 78.349968,77.142292 0 0 0 -5.05153,-24.38828 z m -53.15242,59.90418 c 1.86485,3.96728 5.11541,6.26033 7.53549,7.07987 3.14535,1.07299 11.46624,2.79439 18.37792,3.54086 7.58153,0.82601 13.50865,-3.32811 16.88793,-11.71962 -2.53751,-0.14245 -5.25352,-0.43566 -8.06441,-0.82046 -0.52705,1.68902 -1.19689,3.37251 -2.06309,4.86914 a 2.3875797,2.3507778 0 1 1 -4.14588,-2.33283 c 0.57214,-0.99159 1.04564,-2.11729 1.43833,-3.27723 -1.48154,-0.24975 -2.97436,-0.52539 -4.45027,-0.80567 -0.50637,1.94896 -1.08697,3.80263 -1.69668,5.18827 a 2.3928316,2.3559488 0 0 1 -3.14723,1.21359 2.3843764,2.3476238 0 0 1 -1.23258,-3.09317 c 0.49321,-1.11461 0.96483,-2.62512 1.39792,-4.26143 -0.77412,-0.16835 -1.54167,-0.33576 -2.30076,-0.50412 -0.80231,-0.17667 -1.62434,-0.36814 -2.44357,-0.56331 a 45.625389,44.922125 0 0 1 -1.55294,4.21702 c -0.50825,1.19416 -1.91745,1.75378 -3.13031,1.25059 -1.21286,-0.50319 -1.78594,-1.8842 -1.27204,-3.07837 a 38.645122,38.049452 0 0 0 1.30586,-3.49923 358.93789,353.40526 0 0 1 -12.35216,-3.32627 c -1.01275,4.33081 -0.13528,7.71442 0.90847,9.92237 z m 44.25376,-5.74881 c 0.97987,-4.7748 -0.0789,-8.09921 -1.25889,-10.13141 -1.47591,-2.565 -3.92511,-4.40481 -6.69373,-5.04212 l -3.02979,-0.62714 a 275.31373,271.07008 0 0 1 -13.1432,-2.91187 c -8.34532,-2.0507 -15.50502,1.71123 -19.45737,10.10089 a 358.54801,353.0214 0 0 0 11.96885,3.21249 c 0.62851,-2.98772 0.76286,-5.06248 0.76286,-5.09855 a 2.3937711,2.3568738 0 0 1 2.52529,-2.20795 2.381558,2.3448489 0 0 1 2.24158,2.48452 c -0.007,0.16835 -0.16159,2.54558 -0.88593,5.93659 0.77225,0.17852 1.54638,0.35982 2.30641,0.52539 0.78163,0.17668 1.55201,0.34502 2.30828,0.50227 0.68017,-3.30592 1.11797,-6.11511 1.13018,-6.17339 a 2.3900132,2.3531738 0 0 1 4.72554,0.7067 c -0.0347,0.22569 -0.4782,3.04044 -1.1781,6.41388 1.60086,0.30709 3.11904,0.57627 4.55831,0.81861 0.52986,-2.85266 0.66045,-5.11981 0.66045,-5.16144 a 2.3871948,2.3503989 0 0 1 2.50275,-2.23292 2.3824974,2.3457739 0 0 1 2.26788,2.45862 c -0.008,0.19332 -0.13716,2.57425 -0.70461,5.63874 3.30976,0.44122 6.08871,0.68356 8.39324,0.78809 z M 276.51195,409.28884 c -1.05878,-0.18962 -3.15943,-0.17482 -5.25821,2.07198 -3.32479,3.54641 -4.88525,8.35358 -4.64474,14.27814 0.0667,1.51051 0.2809,2.35595 0.71493,3.57323 0.77507,2.15153 2.6371,3.57509 3.99745,3.81744 1.61683,0.29229 3.44222,-0.63732 5.14642,-2.62513 3.72312,-4.34837 5.32867,-12.32271 3.50235,-17.412 -0.75816,-2.12285 -1.98416,-3.43818 -3.4582,-3.70366 z m -61.77018,93.87166 c 6.02388,3.91178 12.40382,7.43044 12.40382,7.43044 l -2.23312,5.69794 c -0.83425,-3.45207 -4.31217,-5.3261 -8.80002,-8.06129 l -14.69332,20.91865 c -1.79439,2.52429 -5.29298,8.04648 -5.57481,10.198 0,0 -2.41163,-1.5068 -4.61187,-3.12183 -2.30076,-1.68811 -4.48691,-3.25042 -4.48691,-3.25042 2.18991,-0.5254 5.97221,-6.01798 8.25325,-9.06212 l 14.29499,-20.08246 c -5.35405,-4.0755 -7.44438,-4.87469 -11.22762,-5.06801 l 5.08817,-3.75731 c 0,0 4.88995,3.81188 11.58744,8.15841 m 232.83932,70.86531 0.44437,0.47915 c -0.41524,-0.0213 -0.76003,0.18961 -1.20628,0.43751 l 1.2899,2.44105 c 0.25177,0.4514 0.60784,1.13681 0.84176,1.18676 0,0 -0.27621,0.1554 -0.60595,0.32005 -0.28842,0.13874 -0.56181,0.24975 -0.56181,0.24975 0.004,-0.3034 -0.0958,-0.54575 -0.43874,-1.23949 l -1.35002,-2.56037 c -0.45282,0.22385 -0.94792,0.44584 -1.08132,0.80751 l -0.11462,-0.70854 c 0,0 0.66703,-0.31819 1.38666,-0.68264 a 75.749514,74.58192 0 0 0 1.39605,-0.73074 M 224.25202,555.05057 c -10.2064,-4.79514 -11.563,-15.86728 -6.53778,-26.23179 5.04778,-10.40798 14.6689,-16.26501 24.82927,-11.48466 10.15569,4.77479 11.58649,15.82102 6.53496,26.22992 -5.02522,10.36637 -14.62004,16.28722 -24.82645,11.48653 m 16.83156,-34.71209 c -6.52651,-3.06726 -11.6579,4.19113 -15.52757,12.17101 -3.86968,7.97804 -6.40062,16.5231 0.12682,19.59313 6.52651,3.06265 11.68515,-4.24384 15.55577,-12.22188 3.86967,-7.97988 6.37242,-16.47685 -0.15502,-19.54226 z m 28.84269,7.69777 a 307.99604,303.24863 0 0 0 12.51938,3.20324 l -0.59751,6.08273 c -1.84981,-2.63068 -2.69909,-3.27354 -8.59051,-4.75167 l -7.1428,23.64644 c -0.57308,2.16446 -3.42342,10.3534 -2.51026,11.89258 0,0 -1.98416,-0.41532 -5.18682,-1.29035 -3.60099,-0.98234 -5.29297,-1.64741 -5.29297,-1.64741 1.84699,-1.19601 4.17031,-8.19633 4.93034,-11.04253 l 7.17849,-23.80368 c -6.10374,-2.00538 -7.52234,-2.14413 -10.4394,-0.80937 l 3.53805,-5.18827 c -9.4e-4,0.003 3.98429,1.58544 11.59401,3.70829 m 28.47346,6.2816 a 253.87971,249.96645 0 0 0 13.21178,1.58451 l 0.25742,6.10308 c -2.54221,-2.22553 -3.49953,-2.94702 -10.2158,-3.77951 l -3.88941,24.28468 c -0.27339,2.22553 -1.71923,10.6716 -0.60126,12.07204 0,0 -2.3562,-0.25622 -5.60958,-0.70484 -3.25339,-0.4551 -5.25258,-0.90649 -5.25258,-0.90649 1.58864,-1.22098 2.90954,-9.21937 3.18574,-11.44675 l 3.98524,-24.58622 c -5.82002,-1.14329 -7.01596,-0.70485 -9.81089,0.89261 l 2.53375,-5.77564 c -9.4e-4,-9.2e-4 5.43389,1.25429 12.20559,2.26253 m 25.22386,23.08867 -0.51201,16.31959 c 8.69104,0.11378 14.6407,-0.42827 17.29095,-4.14118 l -1.33029,7.41472 c 0,0 -4.81384,0.0962 -11.86176,0 -7.74687,-0.10822 -13.82713,-0.6068 -13.82713,-0.6068 1.2899,-1.2552 1.60932,-9.21011 1.62435,-11.44489 l 0.70836,-16.01712 c 0.031,-4.26513 0.42652,-11.15722 -1.02778,-12.60668 6.29634,0.42827 5.49497,0.42086 11.27741,0.64101 7.57119,0.296 11.85987,0.074 11.85987,0.074 l 0.95263,6.1225 c -2.95558,-2.42809 -7.38706,-2.71391 -14.62192,-2.75554 l -0.39834,13.69818 11.11112,0.061 c 1.00053,0.011 1.06348,0.55962 1.06066,1.65666 -0.0122,1.08224 -0.0273,1.65851 -1.08321,1.64741 l -11.22291,-0.0629 m 48.53117,4.91262 c 0.64165,5.93843 1.27674,10.20541 2.65306,10.98425 -0.34478,0.6142 -1.43457,1.41986 -2.88041,1.57156 -1.74272,0.18222 -3.0608,-0.66137 -4.2699,-2.0396 l -19.70352,-22.25248 0.74313,14.15697 c 0.23862,2.22552 0.49792,10.65866 1.9043,11.78622 l -6.56502,0.2923 c 1.14334,-1.38934 0.83895,-9.42473 0.59657,-11.65672 l -0.9282,-15.97551 c -0.2405,-2.22552 -0.66327,-11.06195 -2.07529,-12.17841 l 6.02013,-0.2146 20.19297,23.61222 -1.68071,-13.58626 c -0.2405,-2.23291 -1.46839,-10.32843 -2.8278,-11.45414 0,0 0.72433,-0.0703 3.17635,-0.39775 2.44638,-0.32744 3.33606,-0.50226 3.33606,-0.50226 -1.13394,1.39303 0.18132,9.69759 0.42558,11.92588 l 1.8827,15.92833 m 37.01796,-8.41925 c 0.6999,2.76202 2.08844,9.85668 4.14776,11.24602 0,0 -3.11623,0.88892 -5.02147,1.46519 -1.69574,0.51336 -5.43108,1.46703 -5.43108,1.46703 0.88122,-1.53179 -1.08227,-10.04817 -1.62529,-12.17472 l -1.87143,-7.41102 -12.51938,3.02472 1.42425,7.53497 c 0.41148,2.43549 1.71453,10.63367 3.40276,11.63451 0,0 -1.75118,0.35613 -5.39914,1.09335 -3.0561,0.61974 -5.18494,0.94996 -5.18494,0.94996 0.93759,-1.53363 -0.32036,-9.13612 -0.70742,-11.56053 l -3.03449,-15.93109 c -0.55335,-2.97015 -1.94471,-10.48198 -3.62072,-11.36165 0,0 1.62435,-0.3034 5.19809,-0.98789 3.57751,-0.68449 5.32868,-1.15069 5.32868,-1.15069 -0.88122,1.78338 0.67266,8.99183 1.09542,11.5152 l 0.96202,5.05692 12.31927,-2.9572 -1.3284,-5.16514 c -0.72433,-2.73704 -2.2538,-9.30262 -3.96645,-10.5199 0,0 1.69198,-0.48192 5.11918,-1.44206 3.42718,-0.95181 4.90591,-1.49756 4.90591,-1.49756 -0.68017,1.82131 1.22694,8.21668 2.0161,11.5115 l 3.79077,15.66008 m 22.87235,-9.44323 -12.215,4.71006 0.42277,6.60534 c 0.27244,2.25513 0.28183,4.32525 0.78257,5.49352 a 2.3721632,2.3355991 0 0 0 1.07194,1.17103 c 0,0 -1.27298,0.4551 -3.37271,1.12571 -2.09877,0.66877 -3.25338,0.99714 -3.25338,0.99714 0.73185,-1.24503 0.91034,-2.95534 0.84553,-5.09299 l -1.07663,-31.31275 c -0.10053,-1.13681 -0.24052,-2.20425 -0.62382,-3.09872 -0.33821,-0.79826 -0.91223,-1.24688 -1.31149,-1.5808 1.38947,-0.88706 3.13125,-1.86108 4.90121,-2.5909 2.8062,-1.16549 3.98994,-1.11832 6.03798,1.23209 l 17.92134,21.88525 c 3.25903,4.17725 6.13944,6.9883 8.01368,7.54607 0,0 -1.83103,0.83249 -5.277,2.343 -3.44411,1.50681 -5.7242,2.36335 -5.7242,2.36335 0.2048,-0.70854 0.22829,-1.45963 -0.21984,-2.58905 -0.48007,-1.21728 -2.24345,-3.28093 -3.38115,-4.84324 l -3.5418,-4.36411 m -2.21715,-2.59274 -10.85558,-14.80909 0.76472,18.60062 z m 53.40139,-8.75965 c -2.45672,1.63168 -4.29714,2.87948 -4.29714,2.87948 -0.17944,-2.38092 -4.84955,-8.26755 -6.22024,-10.05185 l -10.52864,-13.52243 8.46932,26.65636 c -0.32975,0.52909 -0.92914,1.27 -1.48718,1.68532 -1.67132,1.2506 -3.29754,1.00454 -4.7819,-0.14614 l -20.04831,-16.364 7.0169,12.72416 c 1.71736,3.22266 5.02524,9.92884 7.25178,10.59021 0,0 -1.38384,0.72796 -3.13595,1.56415 a 249.02923,245.19073 0 0 1 -2.80244,1.31719 c 0.388,-1.8731 -2.86914,-7.43784 -4.76593,-11.0009 l -7.80795,-14.46037 c -2.3684,-4.35023 -4.98107,-8.78 -7.22546,-9.66336 1.73708,-0.82787 2.26036,-1.08224 4.74338,-2.28935 2.07153,-1.00454 3.89505,-1.98873 3.89505,-1.98873 l 22.57078,18.90494 -8.878,-26.7655 c 0,0 1.18937,-0.79457 3.44598,-2.27825 2.25097,-1.48368 4.28211,-2.95719 4.28211,-2.95719 0.17098,2.39387 4.87209,8.49695 6.58381,10.68085 l 9.7207,12.31347 c 2.06119,2.53447 5.91679,8.17505 8.66098,8.81978 -0.005,0 -2.20213,1.71307 -4.66165,3.35216 m -30.6305,39.72368 1.10857,1.39674 c 0.32505,0.39034 0.65294,0.87225 0.9996,1.01563 0,0 -0.28936,0.20442 -0.56838,0.39034 -0.27997,0.18223 -0.48852,0.32746 -0.48852,0.32746 -0.0771,-0.37555 -0.54678,-0.96107 -0.70085,-1.16364 l -1.1781,-1.53364 0.96295,3.02472 a 0.72339235,0.71224208 0 0 1 -0.17098,0.18963 c -0.25366,0.19147 -0.43873,0.0833 -0.60783,-0.0491 l -2.32143,-1.82686 0.90658,1.44668 c 0.21514,0.37371 0.60502,1.06374 0.91317,1.20527 l -0.37954,0.22015 a 8.7389553,8.6042543 0 0 1 -0.35983,0.19517 c 0.0423,-0.3663 -0.42557,-1.08594 -0.56649,-1.33476 l -0.99585,-1.64186 c -0.22922,-0.3737 -0.58904,-0.91944 -0.91034,-1.01194 0,0 0.31096,-0.1591 0.61723,-0.32745 0.1926,-0.10451 0.38519,-0.22754 0.50168,-0.28859 l 2.56851,2.10435 -0.98926,-3.00066 c 0.0958,-0.0435 0.24426,-0.13413 0.47538,-0.27288 0.29498,-0.17852 0.54113,-0.34131 0.54113,-0.34131 9.3e-4,0.36444 0.43122,0.99435 0.6426,1.27648 m -200.36372,8.94649 c 2.0922,0.75479 4.7913,1.67794 4.7913,1.67794 -2.27257,1.62243 -4.36008,8.07516 -5.71573,11.57902 l -5.24225,14.31885 c -1.40263,3.88772 -3.79452,9.52091 -2.99315,11.53184 0,0 -2.88417,-0.98141 -5.21783,-1.79541 -1.99637,-0.70114 -3.13031,-1.07483 -5.24505,-1.9656 2.56945,-0.67062 4.99141,-9.08525 5.77962,-11.20255 l 2.3994,-6.68306 -12.56354,-5.15589 -3.63293,7.64412 c -1.18279,2.6538 -4.01248,8.66623 -3.33981,10.55044 0,0 -2.21904,-0.89078 -5.46773,-2.36335 -3.82646,-1.73437 -4.65976,-2.19316 -4.65976,-2.19316 2.69627,-1.30424 4.29243,-5.58971 6.34517,-9.91866 l 6.56972,-14.32624 c 2.21997,-4.90337 4.2248,-9.1537 4.07449,-11.94902 0,0 1.1734,0.68819 4.40424,2.11731 2.57414,1.13958 3.8894,1.70937 5.33337,2.28009 -2.04429,0.80197 -4.88995,8.02892 -6.39216,11.27193 l -1.92497,4.04868 12.27324,4.97922 1.8827,-4.58888 c 0.88122,-2.34299 3.92511,-9.34887 3.26841,-11.74644 0,-0.003 2.51873,0.89631 5.27325,1.88882 m 14.19165,46.47334 c -10.94108,-2.83416 -14.42088,-13.2662 -11.51885,-24.13298 2.91706,-10.92506 11.20225,-18.24542 22.08977,-15.42328 10.88283,2.8166 14.43591,13.20423 11.52355,24.12929 -2.90579,10.87233 -11.15152,18.25929 -22.09447,15.42697 m 9.73009,-36.40667 c -6.99341,-1.8102 -10.60662,6.08274 -12.8435,14.45112 -2.24252,8.36468 -3.04858,17.04755 3.94014,18.86146 6.99342,1.80651 10.62635,-6.14285 12.85948,-14.50754 2.24158,-8.36653 3.03543,-16.99298 -3.95612,-18.80504 z m 19.90644,40.25093 c 0,0 0.69615,-0.74092 1.17059,-2.24958 0.6689,-2.121 1.09917,-6.2002 1.61401,-9.38032 l 3.06361,-23.32176 c -6.5265,-0.80567 -8.18372,-0.34317 -11.05005,1.32643 l 2.68877,-5.9708 c 2.03207,0.44399 6.53495,0.92314 12.013,1.60392 3.66582,0.44955 14.5834,1.42172 14.5834,1.42172 l 0.3711,5.9708 c -2.40787,-2.74259 -4.90592,-2.98957 -10.34545,-3.41136 l -3.0514,23.39946 c -0.27339,2.17836 -1.48719,9.73738 -0.28373,11.97585 -1.31244,-0.148 -3.48637,-0.39035 -5.30988,-0.56887 -1.88928,-0.1887 -4.37699,-0.61327 -5.46397,-0.79549 m 52.00628,-8.09922 c 0.0761,7.02068 -5.7242,12.10442 -14.64541,11.974 -6.93799,-0.099 -10.56622,-2.91001 -11.95476,-4.05424 l 1.44397,-6.66269 c 2.15421,4.2457 5.72419,7.33146 9.74324,7.39436 4.1985,0.0574 7.50261,-2.37536 7.5712,-6.47308 0.0433,-2.97753 -1.62247,-4.77664 -8.62528,-8.36468 -6.71251,-3.41228 -9.21057,-6.81809 -9.21057,-11.89444 0,-6.91244 6.10656,-10.42278 13.28223,-10.42463 5.27701,-0.005 8.95785,1.58636 11.26989,2.80364 l -1.49,6.10493 c -3.20171,-4.20777 -6.09904,-5.76823 -9.59387,-5.8154 -3.44316,-0.0565 -5.88109,1.79355 -5.85854,5.27706 0.0235,3.79616 4.2652,5.84964 9.9847,8.99552 6.57723,3.62226 8.04469,7.25563 8.0832,11.13965 m 32.48689,-21.50786 c 0.2546,0.82418 0.40868,1.82501 0.48759,2.61032 0.0676,0.72427 0.10238,1.68534 0.016,2.59275 -0.18883,2.2764 -1.28519,4.9191 -3.09931,6.78017 -2.7705,2.84898 -6.38089,4.26514 -11.16843,4.48436 -1.84606,0.11192 -2.28855,-0.44307 -2.41068,-1.75378 l -0.0113,-0.28583 c 0,0 -0.0404,-0.50781 0.36357,-0.53278 l 0.46315,-0.0472 c 1.41485,-0.17205 3.51269,-0.6068 5.19716,-2.62328 1.61401,-2.07382 2.16641,-4.83122 1.88458,-7.79766 -0.29875,-3.08021 -1.23916,-5.30019 -3.34358,-6.89579 -1.82539,-1.38194 -3.97302,-1.83055 -6.18172,-1.65851 0,0 -0.88592,0.074 -1.86955,0.22755 0,0 -0.57682,0.049 -0.52797,0.60494 l 2.37122,24.18848 c 0.20574,2.13025 0.79574,9.62544 2.56852,11.17203 0,0 -2.01799,0.20997 -5.82191,0.51706 -2.90108,0.23496 -5.16145,0.29046 -5.16145,0.29046 0.76285,-1.85553 0.63603,-4.59998 0.44625,-7.79582 l -1.83854,-19.07421 c -0.20857,-2.1839 -0.58342,-9.66522 -2.39096,-11.51335 0,0 4.8627,-0.70854 13.85907,-1.54474 4.70487,-0.43936 8.55858,0.1517 11.88243,2.36706 2.17487,1.44298 3.67051,3.54363 4.28586,5.68775 m 36.81034,7.79952 c 1.92498,8.38411 -2.07153,15.52225 -10.93074,17.70338 -6.22681,1.53178 -15.19218,-0.71687 -17.69399,-11.46988 l -3.04764,-12.69733 c -0.80231,-3.55381 -2.11381,-9.84744 -4.20883,-11.48652 0,0 2.33928,-0.32745 6.00603,-0.99899 3.66394,-0.67431 5.3672,-1.07484 5.3672,-1.07484 -0.96296,1.49387 0.048,7.3768 1.00429,11.6965 l 3.89129,16.14015 c 0.69333,2.95719 1.67507,4.98291 3.35955,6.17708 1.24761,0.88706 2.91612,1.13126 4.65132,0.81861 1.58207,-0.28859 3.22614,-1.16919 4.08858,-2.74445 0.9141,-1.65295 0.9094,-4.04682 0.20574,-7.00216 l -4.36667,-16.1383 c -1.19406,-4.44273 -2.57038,-10.00284 -4.04911,-10.93338 0,0 1.77935,-0.47545 5.15112,-1.42541 2.55254,-0.71502 4.07166,-1.15069 5.17272,-1.53363 -1.00712,2.42995 1.39135,9.88074 1.90055,12.01191 l 3.49859,12.95726 m 39.78376,-3.30777 c 0.85868,0.32376 1.78218,0.54575 2.55912,0.22015 -0.0883,0.52725 -0.58999,1.57712 -1.43082,2.42625 -3.58126,3.61486 -6.9455,2.99327 -8.0832,2.54928 -6.17702,-2.31988 -16.50744,-11.33483 -16.93301,-12.31716 0,0 -0.10617,-0.25808 0.16158,-0.36631 l 0.37391,-0.16279 c 1.61307,-0.66137 3.4441,-2.45677 4.16749,-4.1569 1.15461,-2.491 0.9592,-4.72763 -0.2142,-7.46837 -1.2138,-2.84897 -3.33981,-4.64345 -5.00456,-5.12538 -2.46235,-0.71686 -4.29901,-0.14799 -5.4198,0.29046 0,0 -1.47779,0.57256 -1.91746,1.00824 0,0 -0.29593,0.24234 0.0478,1.23393 l 7.80513,21.94723 c 1.18561,3.22822 3.24399,9.52647 5.10978,10.5865 0,0 -2.10817,0.81863 -5.30425,1.95451 -3.19796,1.13681 -5.1436,1.66591 -5.1436,1.66591 0.65105,-2.45123 -1.8113,-9.11485 -2.43229,-10.98426 l -5.04683,-14.81925 c -1.26172,-3.57324 -3.56529,-9.97601 -5.44048,-11.0009 0,0 3.6846,-1.01565 11.96697,-4.44088 4.40425,-1.8213 8.67132,-2.60015 12.52127,-1.49016 2.3374,0.67524 3.91571,1.83148 5.20749,3.67498 0.49322,0.71224 0.85679,1.41247 1.17057,2.13858 0.28749,0.67432 0.48572,1.44854 0.6163,2.16818 0.40773,2.24032 0.0649,4.61939 -1.2495,6.86711 0,0 -1.18749,2.25976 -3.71936,4.03388 0,-9.2e-4 8.13393,6.78481 15.63185,9.56717"
     id="path3"
     style="stroke-width:0.932202" />
</svg>
